<svg width="25" height="25" viewBox="0 0 25 25" fill="none" xmlns="http://www.w3.org/2000/svg">
<path d="M15.2518 4.2617C15.4418 4.26318 15.6313 4.33465 15.7801 4.48582C16.0678 4.77807 16.0641 5.25805 15.7718 5.54579L9.20125 12.0148C8.71753 12.4911 8.71145 13.271 9.1877 13.7548L15.6567 20.3253C15.9444 20.6176 15.9407 21.0976 15.6485 21.3853C15.3562 21.673 14.8762 21.6693 14.5885 21.377L8.11947 14.8065C7.61346 14.2925 7.32884 13.6003 7.33453 12.8703C7.34022 12.1403 7.62558 11.4525 8.14954 10.9466L14.7201 4.47756C14.8712 4.33874 15.0618 4.26022 15.2518 4.2617Z" fill="#4D4D4D"/>
</svg>
