<svg width="21" height="19" viewBox="0 0 21 19" fill="none" xmlns="http://www.w3.org/2000/svg">
<path d="M3.1524 6.84351C3.15107 6.70102 3.20778 6.55798 3.33109 6.44431C3.5695 6.22455 3.96746 6.2208 4.20992 6.43603L9.66119 11.2749C10.0625 11.6311 10.7092 11.625 11.1038 11.2613L16.4638 6.32056C16.7023 6.1008 17.1002 6.09705 17.3427 6.31228C17.5851 6.5275 17.5885 6.88749 17.3501 7.10724L11.9901 12.048C11.5708 12.4344 11.0007 12.6573 10.3955 12.663C9.79028 12.6687 9.21625 12.4641 8.78977 12.0781L3.33851 7.23927C3.22139 7.12787 3.15373 6.98601 3.1524 6.84351Z" fill="black" fill-opacity="0.8"/>
</svg>
