<svg width="24" height="24" viewBox="0 0 24 24" fill="none" xmlns="http://www.w3.org/2000/svg">
<g clip-path="url(#clip0_240_5209)">
<path d="M21.2497 23.9997H2.74985C1.23284 23.9997 0 22.7667 0 21.2498V6.74985C0 5.23284 1.23284 4 2.74985 4H6.24988C6.66387 4 6.99987 4.336 6.99987 4.74999C6.99987 5.16399 6.66387 5.49999 6.24988 5.49999H2.74985C2.06083 5.49999 1.49999 6.06083 1.49999 6.74985V21.2498C1.49999 21.9387 2.06083 22.4997 2.74985 22.4997H21.2497C21.9387 22.4997 22.4998 21.9387 22.4998 21.2498V12.7498C22.4998 12.3358 22.8358 11.9998 23.2498 11.9998C23.6638 11.9998 23.9998 12.3358 23.9998 12.7498V21.2498C23.9998 22.7667 22.7667 23.9997 21.2497 23.9997Z" fill="black"/>
<path d="M6.74889 15.9871C6.69396 15.9871 6.63885 15.9811 6.58392 15.967C6.24499 15.8881 6 15.5981 6 15.2502V13.7502C6 8.37425 10.374 4.00027 15.7499 4.00027H15.9998V0.750177C15.9998 0.444211 16.1859 0.169189 16.4699 0.0541999C16.7528 -0.0596906 17.0778 0.00915639 17.2898 0.230163L23.7898 6.9801C24.0698 7.27013 24.0698 7.73009 23.7898 8.02012L17.2898 14.7701C17.0778 14.9911 16.7507 15.0592 16.4699 14.946C16.1859 14.831 15.9998 14.556 15.9998 14.25V11.0001H14.8119C11.666 11.0001 8.83884 12.748 7.43297 15.5611C7.30388 15.8211 7.03289 15.9871 6.74889 15.9871ZM15.7499 5.50025C11.5499 5.50025 8.072 8.65513 7.56297 12.72C9.38083 10.6922 11.9879 9.50015 14.8119 9.50015H16.7498C17.1638 9.50015 17.4998 9.83615 17.4998 10.2501V12.3901L22.2087 7.50011L17.4998 2.61014V4.75026C17.4998 5.16426 17.1638 5.50025 16.7498 5.50025H15.7499Z" fill="black"/>
</g>
<defs>
<clipPath id="clip0_240_5209">
<rect width="24" height="24" fill="white"/>
</clipPath>
</defs>
</svg>
