<svg width="48" height="48" viewBox="0 0 48 48" fill="none" xmlns="http://www.w3.org/2000/svg">
<path d="M43.611 20.0835H42V20.0005H24V28.0005H35.303C33.654 32.6575 29.223 36.0005 24 36.0005C17.373 36.0005 12 30.6275 12 24.0005C12 17.3735 17.373 12.0005 24 12.0005C27.059 12.0005 29.842 13.1545 31.961 15.0395L37.618 9.38249C34.046 6.05349 29.268 4.00049 24 4.00049C12.955 4.00049 4 12.9555 4 24.0005C4 35.0455 12.955 44.0005 24 44.0005C35.045 44.0005 44 35.0455 44 24.0005C44 22.6595 43.862 21.3505 43.611 20.0835Z" fill="#FFC107"/>
<path d="M6.30664 14.6915L12.8776 19.5105C14.6556 15.1085 18.9616 12.0005 24.0006 12.0005C27.0596 12.0005 29.8426 13.1545 31.9616 15.0395L37.6186 9.38249C34.0466 6.05349 29.2686 4.00049 24.0006 4.00049C16.3186 4.00049 9.65664 8.33749 6.30664 14.6915Z" fill="#FF3D00"/>
<path d="M24.0003 44.0007C29.1663 44.0007 33.8603 42.0237 37.4093 38.8087L31.2193 33.5707C29.1439 35.1491 26.6078 36.0028 24.0003 36.0007C18.7983 36.0007 14.3813 32.6837 12.7173 28.0547L6.19531 33.0797C9.50531 39.5567 16.2273 44.0007 24.0003 44.0007Z" fill="#4CAF50"/>
<path d="M43.611 20.0825H42V19.9995H24V27.9995H35.303C34.5142 30.2159 33.0934 32.1527 31.216 33.5705L31.219 33.5685L37.409 38.8065C36.971 39.2045 44 33.9995 44 23.9995C44 22.6585 43.862 21.3495 43.611 20.0825Z" fill="#699BF7"/>
</svg>
