<svg width="24" height="24" viewBox="0 0 24 24" fill="none" xmlns="http://www.w3.org/2000/svg">
<g clip-path="url(#clip0_240_5269)">
<path d="M23.0115 11.0987C23.3109 10.7003 23.4886 10.2056 23.4886 9.67002C23.4886 8.87657 23.0984 8.17293 22.5002 7.73966C22.7996 7.34132 22.9773 6.84655 22.9773 6.31101C22.9773 5.51755 22.5875 4.81349 21.9893 4.38023C22.2885 3.98198 22.4659 3.4873 22.4659 2.95199C22.4659 1.63823 21.3971 0.569336 20.0833 0.569336H19.0278H12.5825C11.3471 0.569336 10.1341 0.789274 8.97741 1.22305L6.63192 2.10257V1.02895H0V15.8752H6.63197V13.8284C9.06352 16.433 11.3775 19.0185 11.7753 19.6551V22.4208C11.7753 22.9782 12.2287 23.4316 12.7861 23.4316C15.0848 23.4316 16.955 21.5615 16.955 19.2627V18.0152L16.2012 15.4116H21.6173C22.9311 15.4116 24 14.3428 24 13.029C24 12.2356 23.6098 11.532 23.0115 11.0987ZM5.22572 14.4689H1.40625V2.4352H5.22572V14.4689ZM21.6173 14.0054H14.3301L15.5487 18.2147V19.2627C15.5487 20.6518 14.5181 21.8046 13.1815 21.9971V19.5126C13.1815 19.1721 13.1815 18.9031 9.72338 15.1074C8.42447 13.6817 7.11291 12.2849 6.63197 11.7744V3.60449L9.47119 2.53977C10.4695 2.16543 11.5162 1.97559 12.5825 1.97559H19.0279H20.0834C20.6217 1.97559 21.0598 2.41363 21.0598 2.95199C21.0598 3.49035 20.6218 3.92835 20.0834 3.92835V5.3346H20.5947C21.1331 5.3346 21.5711 5.77265 21.5711 6.31101C21.5711 6.84937 21.1331 7.28737 20.5947 7.28737V8.69362C20.6258 8.69362 20.6567 8.69245 20.6875 8.69127V8.69362H21.106C21.6444 8.69362 22.0824 9.13166 22.0824 9.67002C22.0824 10.2084 21.6444 10.6464 21.106 10.6464H21.0184V12.0526H21.6174C22.1558 12.0526 22.5938 12.4907 22.5938 13.029C22.5938 13.5674 22.1558 14.0054 21.6173 14.0054Z" fill="black"/>
</g>
<defs>
<clipPath id="clip0_240_5269">
<rect width="24" height="24" fill="white"/>
</clipPath>
</defs>
</svg>
