<svg width="328" height="328" viewBox="0 0 328 328" fill="none" xmlns="http://www.w3.org/2000/svg">
<path d="M103.705 186.187C105.152 184.74 105.152 182.329 103.705 180.882L92.1287 169.305L107.082 154.352C108.529 152.905 108.529 150.493 107.082 149.046C105.635 147.599 103.223 147.599 101.776 149.046L86.8228 163.999L73.317 150.493C71.8699 149.046 69.4581 149.046 68.0111 150.493C66.564 151.94 66.564 154.352 68.0111 155.799L81.517 169.305L68.0111 182.811C66.564 184.258 66.564 186.67 68.0111 188.117C69.4581 189.564 71.8699 189.564 73.317 188.117L86.8228 174.611L98.3993 186.187C100.329 187.634 102.258 187.634 103.705 186.187Z" fill="#1A3F74"/>
<path d="M102.258 233.94C100.811 235.387 100.811 237.799 102.74 239.246C104.187 240.693 106.599 240.693 108.046 238.764C131.682 212.716 172.199 213.199 195.352 237.316C196.799 238.764 199.211 238.764 200.658 237.316C202.105 235.869 202.105 233.458 200.658 232.011C174.129 204.999 128.787 204.516 102.258 233.94Z" fill="#1A3F74"/>
<path d="M282.658 262.882L295.2 135.059C295.682 129.753 293.753 124.447 290.376 120.588C287 116.729 281.694 114.318 276.388 114.318V81.0353C276.388 68.4942 266.741 58.3648 254.2 57.8824L51.1291 54.9883C38.1055 54.9883 28.4585 65.1177 27.9761 77.1765V85.8589C22.1879 87.3059 17.8467 91.1648 15.4349 96.953C12.5408 100.329 10.6114 104.671 9.64671 108.047C7.23494 116.729 7.71729 125.894 8.682 135.059C12.5408 177.506 16.3996 219.471 19.7761 261.918C21.2232 280.247 26.0467 287.965 52.5761 289.412C128.306 293.271 204.035 292.788 279.764 291.341C282.659 291.341 286.035 291.341 288.447 289.894C291.341 288.447 293.27 285.553 292.788 282.659C291.341 276.388 280.729 277.353 274.458 276.871C278.8 273.977 281.694 269.153 282.658 262.882ZM51.1291 62.7059L254.2 65.6C262.4 65.6 269.635 72.8353 269.153 81.0353V114.8H198.247C192.941 114.8 187.635 112.388 183.776 108.529L172.682 95.9883C166.894 89.7177 158.694 85.8589 150.011 85.8589H35.2114V78.1412C35.2114 68.9765 42.4467 62.2236 51.1291 62.7059ZM263.847 273.012H46.3055C40.5173 273.012 35.2114 268.671 34.7291 262.4L20.7408 105.153C20.2585 98.4 25.5644 92.6118 32.3173 92.6118H150.011C156.764 92.6118 163.035 95.5059 167.376 100.329L178.47 112.871C183.294 118.659 190.529 122.035 198.247 122.035H276.388C279.764 122.035 282.658 123.482 285.07 125.894C287.482 128.306 288.447 131.682 287.964 134.577L275.423 262.4C274.941 268.188 269.635 273.012 263.847 273.012Z" fill="black" fill-opacity="0.7"/>
<path d="M213.2 163.034L223.812 152.422C225.259 150.975 225.259 148.563 223.812 147.116C222.365 145.669 219.953 145.669 218.506 147.116L207.894 157.728L194.388 144.222C192.941 142.775 190.529 142.775 189.082 144.222C187.635 145.669 187.635 148.081 189.082 149.528L202.588 163.034L190.047 175.575C188.6 177.022 188.6 179.434 190.047 180.881C191.494 182.328 193.906 182.328 195.353 180.881L207.894 168.34L221.4 181.846C222.847 183.293 225.259 183.293 226.706 181.846C228.153 180.398 228.153 177.987 226.706 176.54L213.2 163.034Z" fill="#1A3F74"/>
<path d="M278.799 36.658C274.458 42.4462 271.082 48.2345 268.67 54.9874C268.187 56.9168 269.152 58.8462 271.082 59.3286C273.011 59.8109 274.94 58.8462 275.423 56.9168C277.352 51.1286 280.246 45.3403 284.105 40.5168C285.552 39.0698 285.07 36.658 283.623 35.2109C282.176 35.2109 280.246 35.2109 278.799 36.658Z" fill="#1A3F74"/>
<path d="M309.671 50.6454C308.706 49.1983 306.294 48.2336 304.847 49.6807L282.177 64.1513C280.73 65.116 280.247 67.5277 281.212 68.9748C282.177 70.4218 284.588 71.3865 286.035 69.9395L308.706 55.4689C310.153 54.5042 310.635 52.0924 309.671 50.6454Z" fill="#1A3F74"/>
<path d="M316.424 76.6934L290.859 78.6228C288.929 78.6228 287.482 80.5522 287.482 82.4816C287.482 84.411 289.412 85.8581 291.341 85.8581L316.906 83.9287C318.835 83.9287 320.282 81.9992 320.282 80.0698C319.8 78.1404 318.353 76.6934 316.424 76.6934Z" fill="#1A3F74"/>
</svg>
