<svg width="578" height="525" viewBox="0 0 578 525" fill="none" xmlns="http://www.w3.org/2000/svg">
<path d="M564.088 311.183C547.63 361.081 512.164 415.761 459.961 433.573C381.1 460.474 374.06 525.22 230.93 524.707C210.034 524.742 189.196 522.504 168.783 518.034C158.803 515.815 148.974 512.963 139.357 509.494C54.5667 478.909 8.14569 406.172 1.49669 328.446C-7.23851 226.222 62.3381 174.641 107.637 144.226C152.935 113.811 204.663 0.936872 345.378 0.265872C366.859 0.0841529 388.289 2.37659 409.245 7.09787C457.02 18.0779 506.186 44.5153 535.723 84.8119C537.927 87.8375 540.053 90.9363 542.103 94.1083C581.985 156.121 586.536 243.156 564.088 311.183Z" fill="#012C7A"/>
<path opacity="0.7" d="M564.088 311.183C547.63 361.081 512.164 415.761 459.961 433.573C381.1 460.474 374.06 525.22 230.93 524.707C210.034 524.742 189.196 522.504 168.783 518.034C158.803 515.815 148.974 512.963 139.357 509.494C54.5667 478.909 8.14569 406.172 1.49669 328.446C-7.23851 226.222 62.3381 174.641 107.637 144.226C152.935 113.811 204.663 0.936872 345.378 0.265872C366.859 0.0841529 388.289 2.37659 409.245 7.09787C457.02 18.0779 506.186 44.5153 535.723 84.8119C537.927 87.8375 540.053 90.9363 542.103 94.1083C581.985 156.121 586.536 243.156 564.088 311.183Z" fill="#5AABBC"/>
</svg>
