<svg width="623" height="523" viewBox="0 0 623 523" fill="none" xmlns="http://www.w3.org/2000/svg">
<path d="M519.432 480.988C552.464 453.116 577.007 415.047 595.534 378.131C623.058 323.291 637.709 254.866 599.29 201.544C577.127 170.787 542.505 151.37 504.073 144.057C467.099 137.033 431.14 138.551 399.338 116.562C367.176 94.2973 339.184 66.5261 310.391 40.6739C236.361 -25.8065 101.857 -6.7404 39.3903 82.7699C-23.0763 172.28 -6.05936 288.558 54.0946 342.495C108.113 390.951 183.479 400.421 243.125 438.302C272.681 457.117 293.347 484.801 324.667 501.321C361.094 520.525 405.755 528.402 446.793 518.593C474.731 511.907 498.74 498.448 519.432 480.988Z" fill="#012C7A"/>
<path opacity="0.7" d="M519.432 480.988C552.464 453.116 577.007 415.047 595.534 378.131C623.058 323.291 637.709 254.866 599.29 201.544C577.127 170.787 542.505 151.37 504.073 144.057C467.099 137.033 431.14 138.551 399.338 116.562C367.176 94.2973 339.184 66.526 310.391 40.6739C236.361 -25.8065 101.857 -6.7404 39.3903 82.7699C-23.0763 172.28 -6.05936 288.558 54.0946 342.495C108.113 390.951 183.479 400.421 243.125 438.302C272.681 457.117 293.347 484.801 324.667 501.321C361.094 520.525 405.755 528.402 446.793 518.593C474.731 511.907 498.74 498.448 519.432 480.988Z" fill="#438EA1"/>
</svg>
