<svg width="24" height="24" viewBox="0 0 24 24" fill="none" xmlns="http://www.w3.org/2000/svg">
<path d="M23.4887 14.3309C23.4887 13.7954 23.311 13.3006 23.0115 12.9022C23.6098 12.4689 24 11.7653 24 10.9719C24 9.65812 22.9311 8.58927 21.6173 8.58927H16.2012L16.9549 5.98569V4.73821C16.9549 2.43951 15.0848 0.569336 12.786 0.569336C12.2287 0.569336 11.7752 1.0228 11.7752 1.58015V4.34577C11.3775 4.98234 9.06352 7.56787 6.63197 10.1725V8.12577H0V22.972H6.63197V21.8984L8.97741 22.7779C10.1341 23.2116 11.3471 23.4316 12.5825 23.4316H20.0834C21.3972 23.4316 22.466 22.3627 22.466 21.0489C22.466 20.5136 22.2885 20.0189 21.9893 19.6207C22.5875 19.1874 22.9773 18.4833 22.9773 17.6899C22.9773 17.1544 22.7996 16.6596 22.5002 16.2613C23.0985 15.828 23.4887 15.1244 23.4887 14.3309ZM5.22572 21.5658H1.40625V9.53202H5.22572V21.5658ZM21.6173 11.9482H21.0184V13.3545H21.106C21.6444 13.3545 22.0824 13.7925 22.0824 14.3309C22.0824 14.8692 21.6444 15.3073 21.106 15.3073H20.6875V15.3096C20.6566 15.3084 20.6258 15.3073 20.5947 15.3073V16.7135C21.133 16.7135 21.571 17.1515 21.571 17.6899C21.571 18.2282 21.1331 18.6663 20.5947 18.6663H20.0834V20.0726C20.6217 20.0726 21.0597 20.5106 21.0597 21.0489C21.0597 21.5873 20.6217 22.0253 20.0834 22.0253H12.5825C11.5163 22.0253 10.4695 21.8355 9.47119 21.4611L6.63197 20.3964V12.2265C7.11291 11.7161 8.42447 10.3193 9.72338 8.89354C13.1815 5.09779 13.1815 4.82877 13.1815 4.48827V2.00376C14.5181 2.19618 15.5487 3.34912 15.5487 4.73816V5.7862L14.3301 9.99548H21.6173C22.1557 9.99548 22.5938 10.4335 22.5938 10.9718C22.5938 11.5102 22.1557 11.9482 21.6173 11.9482Z" fill="black"/>
</svg>
