<svg width="626" height="560" viewBox="0 0 626 560" fill="none" xmlns="http://www.w3.org/2000/svg">
<path d="M581.004 521.366L575.831 475.796" stroke="black" stroke-width="0.985332" stroke-linecap="round" stroke-linejoin="round"/>
<path d="M575.804 477.075C575.804 477.075 566.513 470.289 566.513 454.773C566.513 439.257 578.905 426.663 578.905 426.663C578.905 426.663 592.339 442.179 589.238 457.683C586.137 473.187 575.804 477.075 575.804 477.075Z" fill="#012C7A" stroke="black" stroke-width="0.985332" stroke-linecap="round" stroke-linejoin="round"/>
<path d="M575.831 475.796L578.197 441.553" stroke="black" stroke-width="0.985332" stroke-linecap="round" stroke-linejoin="round"/>
<path d="M585.776 518.004C590.286 507.097 595.791 496.575 602.231 486.558" stroke="black" stroke-width="0.985332" stroke-linecap="round" stroke-linejoin="round"/>
<path d="M597.366 494.799C597.366 494.799 592.206 484.852 599.505 470.966C606.803 457.08 623.86 450.896 623.86 450.896C623.86 450.896 628.606 470.376 618.513 483.008C608.421 495.639 597.366 494.799 597.366 494.799Z" fill="#012C7A" stroke="black" stroke-width="0.985332" stroke-linecap="round" stroke-linejoin="round"/>
<path d="M597.366 494.799L616.174 465.786" stroke="black" stroke-width="0.985332" stroke-linecap="round" stroke-linejoin="round"/>
<path d="M572.622 522.068C569.819 513.306 566.009 504.857 561.26 496.868L554.028 485.178" stroke="black" stroke-width="0.985332" stroke-linecap="round" stroke-linejoin="round"/>
<path d="M559.843 494.222C554.136 495.866 548.079 496.128 542.235 494.983C536.392 493.838 530.952 491.324 526.424 487.674C510.383 475.03 511.279 449.228 511.279 449.228C511.279 449.228 542.371 445.064 554.924 461.596C558.562 466.225 560.917 471.63 561.776 477.326C562.635 483.021 561.97 488.827 559.843 494.222Z" fill="#012C7A" stroke="black" stroke-width="0.985332" stroke-linecap="round" stroke-linejoin="round"/>
<path d="M559.843 494.223L522.988 458.186" stroke="black" stroke-width="0.985332" stroke-linecap="round" stroke-linejoin="round"/>
<path d="M598.007 511.607H558.667V547.808H598.007V511.607Z" fill="black" stroke="black" stroke-width="0.985332" stroke-linecap="round" stroke-linejoin="round"/>
<path d="M532.279 1H269.125V209.034H532.279V1Z" fill="white" stroke="black" stroke-width="0.985332" stroke-linecap="round" stroke-linejoin="round"/>
<path d="M323.744 117.955H321.606L321.245 115.672H318.651L318.277 117.955H316.339L318.491 105.323H321.592L323.744 117.955ZM318.919 113.953H320.951L319.935 107.556L318.919 113.953Z" fill="black" fill-opacity="0.8"/>
<path d="M326.739 105.323V115.07C326.739 115.973 327.167 116.324 327.835 116.324C328.504 116.324 328.945 115.998 328.945 115.07V105.323H330.936V114.944C330.936 116.964 329.867 118.118 327.782 118.118C325.696 118.118 324.627 116.964 324.627 114.944V105.323H326.739Z" fill="black" fill-opacity="0.8"/>
<path d="M331.765 105.323H338.302V107.13H336.096V117.955H334.024V107.13H331.819L331.765 105.323Z" fill="black" fill-opacity="0.8"/>
<path d="M341.35 117.955H339.225V105.323H341.35V110.742H343.743V105.323H345.908V117.955H343.743V112.548H341.35V117.955Z" fill="black" fill-opacity="0.8"/>
<path d="M349.557 110.642H352.458V112.448H349.557V116.211H353.206V118.017H347.392V105.323H353.153V107.13H349.504L349.557 110.642Z" fill="black" fill-opacity="0.8"/>
<path d="M356.402 108.873V118.017H354.503V105.323H357.177L359.356 112.849V105.323H361.241V117.955H359.062L356.402 108.873Z" fill="black" fill-opacity="0.8"/>
<path d="M362.096 105.323H368.646V107.13H366.427V117.955H364.315V107.13H362.096V105.323Z" fill="black" fill-opacity="0.8"/>
<path d="M369.582 105.323H371.694V117.955H369.582V105.323Z" fill="black" fill-opacity="0.8"/>
<path d="M379.367 113.251V114.932C379.367 116.951 378.298 118.105 376.212 118.105C374.127 118.105 373.058 116.951 373.058 114.932V108.359C373.058 106.327 374.14 105.173 376.212 105.173C378.284 105.173 379.367 106.327 379.367 108.359V109.613H377.375V108.259C377.375 107.355 376.948 107.004 376.279 107.004C375.611 107.004 375.183 107.355 375.183 108.259V115.082C375.183 115.985 375.597 116.337 376.279 116.337C376.961 116.337 377.375 116.023 377.375 115.082V113.276L379.367 113.251Z" fill="black" fill-opacity="0.8"/>
<path d="M387.495 117.955H385.356L384.995 115.672H382.415L382.041 117.955H380.103L382.255 105.323H385.356L387.495 117.955ZM382.669 113.953H384.701L383.685 107.556L382.669 113.953Z" fill="black" fill-opacity="0.8"/>
<path d="M387.133 105.323H393.683V107.13H391.504V117.955H389.392V107.13H387.173L387.133 105.323Z" fill="black" fill-opacity="0.8"/>
<path d="M396.718 110.642H399.619V112.448H396.718V116.211H400.381V118.017H394.606V105.323H400.381V107.13H396.718V110.642Z" fill="black" fill-opacity="0.8"/>
<path d="M406.65 113.765L403.977 105.323H406.209L407.826 111.081L409.444 105.323H411.462L408.789 113.765V117.955H406.677L406.65 113.765Z" fill="black" fill-opacity="0.8"/>
<path d="M411.824 108.36C411.824 107.562 412.162 106.796 412.763 106.231C413.365 105.667 414.181 105.35 415.032 105.35C415.883 105.35 416.699 105.667 417.3 106.231C417.902 106.796 418.24 107.562 418.24 108.36V114.933C418.24 115.731 417.902 116.497 417.3 117.062C416.699 117.626 415.883 117.943 415.032 117.943C414.181 117.943 413.365 117.626 412.763 117.062C412.162 116.497 411.824 115.731 411.824 114.933V108.36ZM413.936 115.058C413.936 115.961 414.364 116.313 415.032 116.313C415.7 116.313 416.128 115.974 416.128 115.058V108.235C416.128 107.331 415.7 106.98 415.032 106.98C414.364 106.98 413.936 107.331 413.936 108.235V115.058Z" fill="black" fill-opacity="0.8"/>
<path d="M421.622 105.323V115.07C421.622 115.973 422.05 116.324 422.718 116.324C423.386 116.324 423.814 115.998 423.814 115.07V105.323H425.819V114.944C425.819 116.964 424.75 118.118 422.664 118.118C420.579 118.118 419.51 116.964 419.51 114.944V105.323H421.622Z" fill="black" fill-opacity="0.8"/>
<path d="M431.688 117.955C431.51 117.454 431.446 116.924 431.501 116.399V114.417C431.501 113.251 431.073 112.812 430.164 112.812H429.429V117.955H427.317V105.323H430.512C432.704 105.323 433.64 106.277 433.64 108.233V109.224C433.709 109.72 433.618 110.223 433.38 110.67C433.142 111.117 432.767 111.487 432.303 111.733C433.359 112.147 433.707 113.1 433.707 114.417V116.399C433.665 116.919 433.743 117.44 433.934 117.929L431.688 117.955ZM429.375 107.13V111.005H430.271C431.06 111.005 431.541 110.679 431.541 109.676V108.421C431.541 107.518 431.22 107.167 430.472 107.167L429.375 107.13Z" fill="black" fill-opacity="0.8"/>
<path d="M444.828 117.955H442.689L442.328 115.672H439.722L439.361 117.955H437.422L439.628 105.323H442.729L444.828 117.955ZM440.002 113.953H442.034L440.965 107.619L440.002 113.953Z" fill="black" fill-opacity="0.8"/>
<path d="M451.926 113.251V114.932C451.926 116.951 450.843 118.105 448.771 118.105C446.699 118.105 445.617 116.951 445.617 114.932V108.359C445.617 106.327 446.686 105.173 448.771 105.173C450.857 105.173 451.926 106.327 451.926 108.359V109.613H449.921V108.259C449.921 107.355 449.493 107.004 448.825 107.004C448.157 107.004 447.729 107.355 447.729 108.259V115.082C447.729 115.985 448.157 116.337 448.825 116.337C449.493 116.337 449.921 116.023 449.921 115.082V113.276L451.926 113.251Z" fill="black" fill-opacity="0.8"/>
<path d="M459.345 113.251V114.932C459.345 116.951 458.275 118.105 456.19 118.105C454.105 118.105 453.035 116.951 453.035 114.932V108.359C453.035 106.327 454.118 105.173 456.19 105.173C458.262 105.173 459.345 106.327 459.345 108.359V109.613H457.34V108.259C457.34 107.355 456.925 107.004 456.243 107.004C455.562 107.004 455.147 107.355 455.147 108.259V115.082C455.147 115.985 455.575 116.337 456.243 116.337C456.912 116.337 457.34 116.023 457.34 115.082V113.276L459.345 113.251Z" fill="black" fill-opacity="0.8"/>
<path d="M460.455 108.359C460.427 107.947 460.489 107.533 460.637 107.144C460.786 106.755 461.018 106.399 461.32 106.097C461.621 105.795 461.985 105.555 462.389 105.391C462.793 105.226 463.229 105.142 463.67 105.142C464.11 105.142 464.546 105.226 464.95 105.391C465.355 105.555 465.719 105.795 466.02 106.097C466.321 106.399 466.554 106.755 466.702 107.144C466.851 107.533 466.913 107.947 466.885 108.359V114.932C466.913 115.345 466.851 115.758 466.702 116.147C466.554 116.536 466.321 116.893 466.02 117.194C465.719 117.496 465.355 117.736 464.95 117.9C464.546 118.065 464.11 118.15 463.67 118.15C463.229 118.15 462.793 118.065 462.389 117.9C461.985 117.736 461.621 117.496 461.32 117.194C461.018 116.893 460.786 116.536 460.637 116.147C460.489 115.758 460.427 115.345 460.455 114.932V108.359ZM462.58 115.057C462.58 115.961 462.995 116.312 463.677 116.312C464.358 116.312 464.773 115.973 464.773 115.057V108.234C464.773 107.331 464.345 106.979 463.677 106.979C463.008 106.979 462.58 107.331 462.58 108.234V115.057Z" fill="black" fill-opacity="0.8"/>
<path d="M470.266 105.323V115.07C470.266 115.973 470.694 116.324 471.363 116.324C472.031 116.324 472.459 115.998 472.459 115.07V105.323H474.464V114.944C474.464 116.964 473.394 118.118 471.309 118.118C469.224 118.118 468.154 116.964 468.154 114.944V105.323H470.266Z" fill="black" fill-opacity="0.8"/>
<path d="M477.792 108.873V118.017H475.894V105.323H478.568L480.746 112.849V105.323H482.631V117.955H480.452L477.792 108.873Z" fill="black" fill-opacity="0.8"/>
<path d="M483.5 105.323H490.05V107.13H487.831V117.955H485.719V107.13H483.5V105.323Z" fill="black" fill-opacity="0.8"/>
<path d="M431.735 66.5861C434.386 51.1427 423.193 36.6069 406.735 34.1194C390.277 31.6319 374.786 42.1348 372.135 57.5783C369.484 73.0217 380.677 87.5575 397.135 90.045C413.593 92.5324 429.084 82.0296 431.735 66.5861Z" fill="#012C7A"/>
<path d="M415.099 55.5516C415.099 57.9953 414.327 60.384 412.88 62.4159C411.433 64.4477 409.376 66.0313 406.971 66.9664C404.565 67.9016 401.917 68.1463 399.363 67.6695C396.809 67.1928 394.463 66.0161 392.621 64.2881C390.78 62.5602 389.526 60.3587 389.018 57.962C388.51 55.5653 388.77 53.0811 389.767 50.8234C390.764 48.5658 392.451 46.6362 394.616 45.2785C396.782 43.9209 399.327 43.1963 401.932 43.1963C405.424 43.1963 408.773 44.498 411.242 46.8151C413.712 49.1322 415.099 52.2748 415.099 55.5516Z" fill="black" fill-opacity="0.8"/>
<path d="M380.263 81.7801C383.075 84.506 386.442 86.6735 390.164 88.1538C393.887 89.6341 397.889 90.3969 401.931 90.3969C405.974 90.3969 409.976 89.6341 413.699 88.1538C417.421 86.6735 420.788 84.506 423.6 81.7801V80.9647C423.602 79.5339 423.303 78.1167 422.721 76.7943C422.139 75.4719 421.284 74.2702 420.207 73.2578C419.129 72.2455 417.849 71.4424 416.441 70.8944C415.032 70.3465 413.522 70.0645 411.997 70.0645H391.879C388.798 70.0645 385.844 71.2129 383.665 73.2571C381.487 75.3013 380.263 78.0738 380.263 80.9647V81.7801Z" fill="black" fill-opacity="0.8"/>
<path d="M492.39 140.722H310.297V161.494H492.39V140.722Z" stroke="black" stroke-width="0.985332" stroke-miterlimit="10"/>
<path d="M492.39 171.867H310.297V192.639H492.39V171.867Z" fill="#012C7A" stroke="black" stroke-width="0.985332" stroke-miterlimit="10"/>
<path d="M371.373 151.698V152.952H368.085V157.443H372.095V158.697H366.561V146.104H372.095V147.358H368.085V151.673L371.373 151.698Z" fill="#012C7A"/>
<path d="M374.835 158.747H373.499V146.104H375.464L378.578 155.235V146.104H379.915V158.747H378.351L374.902 148.524L374.835 158.747Z" fill="#012C7A"/>
<path d="M383.338 158.747V147.382H380.811V146.128H387.281V147.382H384.821V158.747H383.338Z" fill="#012C7A"/>
<path d="M393.149 151.698V152.952H389.861V157.443H393.871V158.697H388.337V146.104H393.871V147.358H389.861V151.673L393.149 151.698Z" fill="#012C7A"/>
<path d="M398.282 146.104C400.408 146.104 401.29 147.12 401.29 148.989V150.017C401.382 150.567 401.265 151.129 400.96 151.606C400.654 152.083 400.18 152.444 399.619 152.626C400.849 152.965 401.304 153.88 401.304 155.26V157.23C401.264 157.748 401.356 158.268 401.571 158.747H400.06C399.846 158.259 399.759 157.73 399.806 157.205V155.285C399.806 153.855 399.098 153.404 397.841 153.404H396.852V158.81H395.355V146.104H398.282ZM397.908 152.062C399.098 152.062 399.806 151.698 399.806 150.331V149.076C399.806 147.947 399.365 147.345 398.242 147.345H396.852V152.024L397.908 152.062Z" fill="#012C7A"/>
<path d="M411.797 149.151V150.267H410.367V149.013C410.367 147.872 409.885 147.182 408.789 147.182C407.693 147.182 407.212 147.872 407.212 149.013V155.686C407.212 156.828 407.706 157.518 408.789 157.518C409.872 157.518 410.367 156.828 410.367 155.686V154.043H411.797V155.611C411.797 157.53 410.821 158.797 408.749 158.797C406.677 158.797 405.728 157.543 405.728 155.611V149.076C405.728 147.169 406.69 145.902 408.749 145.902C410.808 145.902 411.797 147.244 411.797 149.151Z" fill="#012C7A"/>
<path d="M413.04 149.151C413.04 147.219 414.056 145.978 416.114 145.978C418.173 145.978 419.215 147.232 419.215 149.151V155.686C419.215 157.605 418.199 158.872 416.114 158.872C414.029 158.872 413.04 157.618 413.04 155.686V149.151ZM414.523 155.761C414.523 156.915 415.045 157.593 416.114 157.593C417.184 157.593 417.718 156.915 417.718 155.761V149.088C417.718 147.947 417.21 147.257 416.114 147.257C415.018 147.257 414.523 147.947 414.523 149.088V155.761Z" fill="#012C7A"/>
<path d="M423.787 146.104C425.886 146.104 426.848 147.295 426.848 149.252V155.624C426.848 157.556 425.886 158.747 423.787 158.747H420.632V146.104H423.787ZM423.787 157.393C424.856 157.393 425.378 156.765 425.378 155.611V149.114C425.378 147.96 424.856 147.32 423.76 147.32H422.143V157.355L423.787 157.393Z" fill="#012C7A"/>
<path d="M433.038 151.698V152.952H429.749V157.443H433.759V158.697H428.212V146.104H433.759V147.358H429.749V151.673L433.038 151.698Z" fill="#012C7A"/>
<path d="M389.099 177.361C391.184 177.361 392.147 178.616 392.147 180.51V186.882C392.147 188.814 391.184 190.005 389.099 190.005H385.931V177.361H389.099ZM389.099 188.726C390.182 188.726 390.703 188.086 390.703 186.932V180.434C390.703 179.28 390.182 178.653 389.085 178.653H387.495V188.688L389.099 188.726Z" fill="black" fill-opacity="0.8"/>
<path d="M393.443 180.372C393.443 178.44 394.459 177.186 396.518 177.186C398.576 177.186 399.619 178.44 399.619 180.372V186.907C399.681 187.314 399.646 187.73 399.516 188.123C399.386 188.517 399.165 188.878 398.869 189.182C398.572 189.485 398.207 189.723 397.801 189.879C397.394 190.034 396.956 190.103 396.518 190.08C394.459 190.08 393.443 188.826 393.443 186.907V180.372ZM394.914 186.982C394.914 188.136 395.435 188.801 396.518 188.801C397.601 188.801 398.109 188.136 398.109 186.982V180.372C398.109 179.23 397.614 178.54 396.518 178.54C395.422 178.54 394.914 179.23 394.914 180.372V186.982Z" fill="black" fill-opacity="0.8"/>
<path d="M402.36 190.005H401.023V177.361H402.921L406.036 186.506V177.361H407.373V190.005H405.809L402.36 179.782V190.005Z" fill="black" fill-opacity="0.8"/>
<path d="M413.695 182.968V184.223H410.406V188.726H414.417V189.98H408.882V177.361H414.43V178.616H410.42V182.931L413.695 182.968Z" fill="black" fill-opacity="0.8"/>
<path d="M532.279 1H269.125V11.0599H532.279V1Z" fill="#012C7A" stroke="black" stroke-width="0.985332" stroke-linecap="round" stroke-linejoin="round"/>
<path d="M93.0342 322.451V320.595" stroke="black" stroke-width="0.985332" stroke-linecap="round" stroke-linejoin="round"/>
<path d="M93.0342 316.92V157.882C93.0342 154.668 93.7089 151.487 95.0197 148.518C96.3305 145.55 98.2517 142.853 100.674 140.582C103.096 138.31 105.971 136.509 109.135 135.28C112.299 134.052 115.69 133.42 119.114 133.422H243.125" stroke="black" stroke-width="0.985332" stroke-linecap="round" stroke-linejoin="round" stroke-dasharray="2.93 2.93"/>
<path d="M245.144 133.422H247.109" stroke="black" stroke-width="0.985332" stroke-linecap="round" stroke-linejoin="round"/>
<path d="M260.142 134.438L238.834 122.886V145.978L260.142 134.438Z" fill="black" fill-opacity="0.8"/>
<path d="M463.556 477.352H465.535" stroke="black" stroke-width="0.985332" stroke-linecap="round" stroke-linejoin="round"/>
<path d="M469.451 477.351H476.763C483.701 477.351 490.355 474.765 495.261 470.161C500.167 465.558 502.923 459.314 502.923 452.803V220.749" stroke="black" stroke-width="0.985332" stroke-linecap="round" stroke-linejoin="round" stroke-dasharray="2.93 2.93"/>
<path d="M502.923 218.918V217.074" stroke="black" stroke-width="0.985332" stroke-linecap="round" stroke-linejoin="round"/>
<path d="M456.097 476.272L477.405 487.812V464.72L456.097 476.272Z" fill="black" fill-opacity="0.8"/>
<path d="M344.438 325.701C345.574 323.671 347.282 321.973 349.374 320.789C351.467 319.606 353.866 318.984 356.309 318.99H470.668C470.668 318.99 478.929 318.99 476.456 333.729C473.983 348.467 440.083 438.454 431.809 465.598C423.534 492.743 421.89 550.154 421.89 550.154H284.659C284.659 550.154 295.66 413.091 344.438 325.701Z" fill="white" stroke="black" stroke-width="0.985332" stroke-linecap="round" stroke-linejoin="round"/>
<path d="M450.831 344.591C439.268 369.904 414.738 470.026 410.835 550.154H421.89C421.89 550.154 423.588 492.705 431.809 465.598C440.03 438.492 473.97 348.467 476.456 333.729C478.943 318.99 470.668 318.99 470.668 318.99C470.668 318.99 460.094 324.296 450.831 344.591Z" fill="black" stroke="black" stroke-width="0.985332" stroke-linecap="round" stroke-linejoin="round"/>
<path d="M233.367 321.022C233.367 321.022 212.38 318.626 198.518 304.954C184.656 291.281 228.649 242.525 252.135 231.035C275.622 219.545 285.3 222.694 310.485 240.117C335.669 257.539 360.252 285.499 359.945 304.251C359.637 323.004 348.756 331.972 363.955 341.217C379.154 350.462 422.171 376.715 428.453 394.753C434.736 412.79 423.842 435.23 398.617 447.435C373.392 459.64 332.006 459.076 292.144 446.984C252.282 434.892 243.607 396.634 248.74 381.068C253.873 365.501 267.455 354.802 263.364 342.961C259.274 331.12 233.367 321.022 233.367 321.022Z" fill="black" stroke="black" stroke-width="0.985332" stroke-linecap="round" stroke-linejoin="round"/>
<path d="M251.36 374.796C251.36 374.796 229.651 371.962 219.625 378.045C209.6 384.129 160.06 463.579 160.06 463.579L132.696 429.022L108.969 439.019C108.969 439.019 120.091 479.409 133.03 499.504C145.97 519.598 153.349 521.63 157.787 520.966C170.994 518.996 209.252 477.465 209.252 477.465L223.154 520.865L213.717 552.412H389.5L368.179 519.046C368.179 519.046 395.997 398.629 388.912 385.872C381.827 373.116 340.548 374.796 327.568 374.796H290.407C284.775 375.844 279.051 376.399 273.309 376.452C265.968 376.252 258.642 375.699 251.36 374.796Z" fill="#012C7A"/>
<path d="M368.78 378.861L369.141 378.999L365.773 387.052L365.398 386.914L368.78 378.861ZM367.858 387.817L368.219 387.955L371.601 379.902L371.227 379.764L367.858 387.817ZM383.191 413.443L382.803 413.343L381.319 418.297H381.734L383.191 413.443ZM385.73 414.12L385.343 414.02L384.006 418.297H384.407L385.73 414.12ZM369.689 414.396L370.946 418.297H371.36L370.024 414.284L369.689 414.396ZM372.604 413.581L372.216 413.681L373.7 418.297H374.114L372.604 413.581ZM383.364 395.155L387.949 387.629L387.615 387.44L383.03 394.967L383.364 395.155ZM385.664 396.409L389.955 389.372C389.955 389.159 389.955 388.971 389.874 388.77L385.316 396.233L385.664 396.409ZM388.671 407.109L389.433 406.168L389.513 405.478L388.351 406.883L388.671 407.109ZM377.322 399.47L383.712 405.741L383.993 405.491L377.603 399.219L377.322 399.47ZM375.304 401.138L381.68 407.41L381.974 407.159L375.585 400.887L375.304 401.138ZM368.259 401.138L368.366 400.774L363.433 399.633V400.009L368.259 401.138ZM363.367 397.375L368.914 398.692L369.008 398.328L363.433 397.074L363.367 397.375ZM369.556 408.576L369.435 408.225L363.433 410.182V410.571L369.556 408.576ZM368.607 405.867L363.367 407.497V407.886L368.714 406.218L368.607 405.867ZM365.706 475.947L369.074 467.894L368.714 467.756L365.332 475.809L365.706 475.947ZM371.16 468.659L367.791 476.712L368.152 476.85L371.534 468.797L371.16 468.659ZM370.986 506.415L369.957 503.192L369.569 503.292L370.826 507.18L370.986 506.415ZM377.67 452.253L377.296 452.378L380.424 460.519H380.504L380.624 459.954L377.67 452.253ZM379.769 451.538L381.413 455.79C381.413 455.552 381.506 455.313 381.546 455.062L380.143 451.412L379.769 451.538ZM385.624 430.339L385.837 431.004L385.958 430.251L385.624 430.339ZM376.828 429.85L376.293 438.48H376.681L377.215 429.837L376.828 429.85ZM378.926 438.63H379.314L379.849 429.988H379.461L378.926 438.63ZM367.684 429.474L367.871 429.147L363.326 426.852V427.279L367.684 429.474ZM363.326 424.456L368.927 427.279L369.115 426.952L363.433 424.13L363.326 424.456ZM366.829 437.514L366.575 437.238L363.433 440.023V440.512L366.829 437.514ZM365.104 435.645L364.85 435.357L363.326 436.611V437.1L365.104 435.645ZM363.433 450.484V450.873L371.748 447.825L371.601 447.486L363.433 450.484ZM363.433 447.825V448.226L370.786 445.529L370.639 445.178L363.433 447.825ZM368.339 463.529L368.433 463.165L363.433 462.112V462.488L368.339 463.529ZM368.914 461.121L369.008 460.757L363.433 459.578V459.954L368.914 461.121ZM368.259 490.197L368.366 489.845L363.367 488.654V489.043L368.259 490.197ZM363.433 486.434L368.981 487.763L369.074 487.399L363.433 486.07V486.434ZM369.623 497.635L369.502 497.284L363.433 499.165V499.567L369.623 497.635ZM368.794 495.289L368.673 494.938L363.433 496.569V496.958L368.794 495.289ZM380.678 421.759L381.734 418.285H381.319L380.303 421.659L380.678 421.759ZM384.461 418.285H384.06L382.843 422.324L383.217 422.437L384.461 418.285ZM372.296 422.663L372.684 422.562L371.347 418.285H370.933L372.296 422.663ZM375.197 421.847L374.061 418.285H373.646L374.823 421.96L375.197 421.847ZM377.402 541.449L380.531 549.577L380.905 549.452L377.777 541.324L377.402 541.449ZM383.378 548.612L380.25 540.483L379.875 540.609L383.017 548.737L383.378 548.612ZM387.802 550.619L387.415 550.518L386.853 552.4H387.268L387.802 550.619ZM363.433 516.35L367.791 518.545L367.978 518.219L363.433 515.923V516.35ZM363.433 513.54L368.78 516.287L368.861 515.911L363.433 513.126V513.54ZM366.869 526.573L366.615 526.284L363.433 528.956V529.433L366.869 526.573ZM365.144 524.691L364.89 524.415L363.367 525.67V526.159L365.144 524.691ZM371.534 536.432L363.433 539.467V539.869L371.748 536.808L371.534 536.432ZM363.367 537.172L370.719 534.475L370.572 534.136L363.367 536.771V537.172ZM363.367 551.058V551.446L367.791 552.375H368.299L368.366 552.124L363.367 551.058ZM368.847 550.067L368.941 549.703L363.367 548.524V548.913L368.847 550.067ZM270.502 386.876L270.863 387.014L274.245 378.961L273.871 378.823L270.502 386.876ZM272.948 387.779L273.323 387.917L276.691 379.864L276.33 379.726L272.948 387.779ZM359.33 399.006L363.34 399.971V399.595L359.396 398.654L359.33 399.006ZM360.078 396.258L359.971 396.61L363.367 397.425V397.036L360.078 396.258ZM363.433 410.571V410.182L360.76 411.022L360.88 411.373L363.433 410.571ZM359.851 408.664L359.971 409.015L363.367 407.962V407.573L359.851 408.664ZM352.739 418.297H353.194L354.932 415.463L354.597 415.274L352.739 418.297ZM355.787 418.297H356.242L357.217 416.692L356.883 416.504L355.787 418.297ZM335.91 414.835L335.602 415.074L338.423 418.297H338.931L335.91 414.835ZM337.647 413.506L341.831 418.297H342.339L337.955 413.28L337.647 413.506ZM327.675 417.733L327.314 417.858L327.475 418.297H327.902L327.675 417.733ZM329.787 417.018L330.282 418.272H330.696L330.162 416.867L329.787 417.018ZM315.324 418.272L316.46 414.07L316.072 413.982L314.909 418.272H315.324ZM318.625 414.585L317.623 418.272H317.984L318.96 414.685L318.625 414.585ZM288.321 413.418L287.933 413.318L286.436 418.272H286.851L288.321 413.418ZM290.848 414.095L290.473 413.995L289.137 418.272H289.551L290.848 414.095ZM274.807 414.371L276.063 418.272H276.477L275.141 414.258L274.807 414.371ZM277.707 413.556L277.333 413.656L278.817 418.272H279.218L277.707 413.556ZM288.482 395.13L293.067 387.603L292.719 387.415L288.134 394.941L288.482 395.13ZM290.433 396.183L290.767 396.359L295.352 388.833L295.005 388.645L290.433 396.183ZM342.74 401.702L351.229 405.077L351.376 404.738L342.887 401.364L342.74 401.702ZM341.711 403.973L350.2 407.347L350.347 407.008L341.791 403.647L341.711 403.973ZM348.863 390.978L349.237 391.078L351.75 382.762L351.362 382.649L348.863 390.978ZM351.389 391.655L351.777 391.755L354.277 383.427L353.902 383.326L351.389 391.655ZM337.594 376.176L340.267 384.455L340.642 384.355L338.035 376.051L337.594 376.176ZM340.107 375.461L342.781 383.74L343.155 383.64L340.481 375.361L340.107 375.461ZM310.979 410.922L308.306 402.643L307.931 402.743L310.605 411.035L310.979 410.922ZM313.506 410.207L310.832 401.928L310.444 402.028L313.118 410.32L313.506 410.207ZM323.932 405.415L333.062 404.161V403.797L323.932 405.051V405.415ZM324.307 407.861L333.437 406.607V406.243L324.307 407.497V407.861ZM330.99 397.312L331.378 397.4L333.437 388.971L333.049 388.883L330.99 397.312ZM335.616 389.435L333.557 397.864L333.945 397.952L336.003 389.523L335.616 389.435ZM303.279 392.508L303.614 392.709L308.546 385.396L308.212 385.208L303.279 392.508ZM310.779 386.725L310.444 386.525L305.512 393.838L305.846 394.038L310.779 386.725ZM302.21 378.309L310.658 374.847V374.759H309.936L302.09 377.97L302.21 378.309ZM303.106 380.228L303.266 380.567L311.714 377.117L311.554 376.778L303.106 380.228ZM295.085 374.759H294.671L292.585 381.558L292.973 381.658L295.085 374.759ZM290.473 381.031L292.345 374.759H291.93L290.086 380.88L290.473 381.031ZM326.646 377.418L325.737 374.797H325.323L326.191 377.506L326.646 377.418ZM323.745 378.234L324.133 378.133L323.063 374.809H322.649L323.745 378.234ZM293.481 406.908L293.788 407.134L299.403 400.272L299.082 400.047L293.481 406.908ZM295.566 408.413L295.887 408.639L301.488 401.765L301.181 401.539L295.566 408.413ZM282.439 399.495L288.829 405.766L289.123 405.516L282.733 399.244L282.439 399.495ZM280.461 401.138L286.851 407.41L287.131 407.159L280.755 400.887L280.461 401.138ZM315.457 390.049L315.297 390.388L323.785 393.775L323.946 393.424L315.457 390.049ZM316.326 388.118L324.815 391.492L324.975 391.153L316.487 387.779L316.326 388.118ZM273.43 401.138L273.523 400.774L268.524 399.633V400.009L273.43 401.138ZM268.537 397.375L274.071 398.692L274.178 398.328L268.524 397.074L268.537 397.375ZM274.726 408.576L274.593 408.225L268.524 410.182V410.571L274.726 408.576ZM273.764 405.867L268.537 407.497V407.886L273.884 406.218L273.764 405.867ZM273.871 467.756L270.502 475.809L270.863 475.947L274.245 467.894L273.871 467.756ZM276.33 468.659L272.948 476.712L273.323 476.85L276.691 468.797L276.33 468.659ZM359.61 425.372L363.367 427.279V426.852L359.797 425.046L359.61 425.372ZM361.041 422.863L360.853 423.177L363.367 424.431V424.005L361.041 422.863ZM363.433 440.023L359.704 443.058L359.958 443.334L363.433 440.512V440.023ZM358.233 441.465L363.433 437.251V436.761L357.979 441.177L358.233 441.465ZM363.019 450.697L363.153 451.048L363.433 450.936V450.547L363.019 450.697ZM362.057 448.402L362.19 448.74L363.433 448.289V447.887L362.057 448.402ZM363.393 462.2L359.383 461.347L359.289 461.71L363.38 462.576L363.393 462.2ZM363.393 459.691L359.971 458.963L359.891 459.327L363.393 460.067V459.691ZM363.393 488.729L359.423 487.688L359.33 488.052L363.34 489.018L363.393 488.729ZM360.105 485.392L359.998 485.756L363.433 486.434V486.057L360.105 485.392ZM363.433 499.567V499.165L360.76 500.006L360.88 500.357L363.433 499.567ZM363.433 496.958V496.569L359.918 497.66L360.038 498.011L363.433 496.958ZM309.161 422.688L300.673 419.301L300.526 419.64L309.014 423.026L309.161 422.688ZM299.496 421.922L307.985 425.297L308.132 424.958L299.643 421.584L299.496 421.922ZM354.905 504.446L354.571 504.27L352.739 507.293H353.194L354.905 504.446ZM357.191 505.7L356.857 505.512L355.76 507.318H356.215L357.191 505.7ZM335.575 504.082L338.396 507.318H338.904L335.883 503.844L335.575 504.082ZM337.621 502.514L341.805 507.318H342.313L337.928 502.301L337.621 502.514ZM327.648 506.754L327.288 506.879L327.448 507.318H327.876L327.648 506.754ZM329.761 506.039L330.255 507.293H330.67L330.135 505.889L329.761 506.039ZM316.393 503.116L316.005 503.016L314.842 507.318H315.31L316.393 503.116ZM318.559 503.631L317.556 507.318H317.984L318.96 503.718L318.559 503.631ZM288.254 502.452L287.867 502.351L286.369 507.369H286.784L288.254 502.452ZM290.781 503.129L290.406 503.029L289.07 507.318H289.484L290.781 503.129ZM274.74 503.405L275.996 507.318H276.411L275.074 503.305L274.74 503.405ZM277.266 502.702L278.75 507.318H279.151L277.64 502.59L277.266 502.702ZM292.652 476.487L288.067 484.013L288.415 484.201L293 476.675L292.652 476.487ZM295.326 477.891L294.978 477.703L290.406 485.229L290.741 485.418L295.326 477.891ZM332.608 436.674L326.726 429.988L326.432 430.226L332.26 436.924L332.608 436.674ZM330.576 438.242L324.667 431.518L324.36 431.757L330.202 438.455L330.576 438.242ZM316.126 434.579L319.254 442.707L319.628 442.582L316.5 434.453L316.126 434.579ZM318.612 433.738L321.74 441.867L322.101 441.741L318.973 433.613L318.612 433.738ZM351.349 493.772L342.861 490.397L342.714 490.736L351.202 494.11L351.349 493.772ZM350.32 496.054L341.831 492.668L341.684 493.019L350.173 496.393L350.32 496.054ZM351.336 471.695L348.836 480.024L349.21 480.124L351.723 471.795L351.336 471.695ZM354.25 472.473L353.876 472.372L351.362 480.689L351.75 480.789L354.25 472.473ZM340.655 473.363L337.982 465.085L337.607 465.185L340.281 473.476L340.655 473.363ZM343.182 472.648L340.508 464.37L340.12 464.47L342.794 472.761L343.182 472.648ZM316.446 450.986L311.861 458.512L312.196 458.687L316.781 451.161L316.446 450.986ZM314.495 449.945L314.147 449.756L309.576 457.283L309.91 457.458L314.495 449.945ZM298.922 456.781L293.08 450.057L292.773 450.296L298.614 456.994L298.922 456.781ZM300.953 455.213L295.125 448.515L294.818 448.753L300.646 455.451L300.953 455.213ZM282.506 452.491L285.634 460.632L286.009 460.506L282.867 452.365L282.506 452.491ZM284.979 451.65L288.107 459.791L288.482 459.666L285.354 451.525L284.979 451.65ZM348.729 458.236L349.117 458.324L351.389 449.945L351.002 449.844L348.729 458.236ZM353.942 450.547L353.555 450.459L351.282 458.838L351.67 458.926L353.942 450.547ZM338.864 457.584L330.375 454.209L330.228 454.548L338.717 457.935L338.864 457.584ZM339.893 455.313L331.351 451.939L331.204 452.278L339.693 455.652L339.893 455.313ZM310.979 499.918L308.306 491.627L307.931 491.739L310.605 500.018L310.979 499.918ZM313.506 499.203L310.832 490.912L310.444 491.024L313.118 499.303L313.506 499.203ZM333.062 493.195V492.831L323.932 494.085V494.449L333.062 493.195ZM333.437 495.64V495.277L324.307 496.531V496.895L333.437 495.64ZM331.351 486.434L333.41 478.004L333.022 477.917L330.964 486.358L331.351 486.434ZM333.918 486.985L335.976 478.556L335.589 478.468L333.53 486.91L333.918 486.985ZM308.52 474.442L308.185 474.241L303.279 481.504L303.614 481.705L308.52 474.442ZM310.752 475.759L310.418 475.558L305.485 482.871L305.819 483.072L310.752 475.759ZM310.632 463.88L310.485 463.542L302.023 467.004L302.183 467.342L310.632 463.88ZM311.688 466.151L311.527 465.812L303.079 469.274L303.239 469.613L311.688 466.151ZM295.446 462.388L295.072 462.275L292.585 470.541L292.973 470.641L295.446 462.388ZM290.406 470.039L292.906 461.71L292.532 461.61L290.019 469.939L290.406 470.039ZM326.566 466.364L323.892 458.085L323.505 458.186L326.178 466.477L326.566 466.364ZM321.018 458.838L323.692 467.117L324.079 467.016L321.406 458.738L321.018 458.838ZM308.199 437.514L300.833 442.732L301.074 443.021L308.439 437.815L308.199 437.514ZM302.665 445.04L310.017 439.822L309.789 439.533L302.424 444.739L302.665 445.04ZM296.302 437.878L293.748 429.561L293.361 429.674L295.927 437.978L296.302 437.878ZM290.834 430.352L293.387 438.768L293.775 438.668L291.249 430.327L290.834 430.352ZM282.038 429.862L281.504 438.492H281.891L282.426 429.85L282.038 429.862ZM284.124 438.643H284.525L285.059 430H284.658L284.124 438.643ZM299.269 489.206L298.948 488.98L293.347 495.854L293.655 496.079L299.269 489.206ZM301.354 490.711L301.047 490.485L295.433 497.359L295.753 497.585L301.354 490.711ZM282.306 488.428L288.695 494.7L288.989 494.436L282.6 488.165L282.306 488.428ZM280.461 490.197L286.851 496.468L287.131 496.217L280.755 489.946L280.461 490.197ZM347.593 442.017L347.285 441.791L341.484 448.515L341.791 448.753L347.593 442.017ZM345.24 440.236L339.439 446.959L339.746 447.198L345.534 440.462L345.24 440.236ZM346.858 427.479H346.47L345.427 436.072H345.828L346.858 427.479ZM343.85 427.153L342.821 435.758H343.208L344.238 427.166L343.85 427.153ZM323.946 482.47L315.457 479.096L315.297 479.434L323.785 482.808L323.946 482.47ZM316.326 477.151L324.815 480.526L324.975 480.187L316.487 476.813L316.326 477.151ZM272.895 429.599L273.082 429.273L268.537 426.977V427.404L272.895 429.599ZM268.537 424.582L274.138 427.404L274.325 427.078L268.524 424.13L268.537 424.582ZM272.039 437.639L271.772 437.363L268.524 440.023V440.512L272.039 437.639ZM270.315 435.77L270.048 435.482L268.537 436.736V437.225L270.315 435.77ZM276.691 447.511L268.537 450.509V450.898L276.838 447.85L276.691 447.511ZM275.876 445.554L275.742 445.203L268.524 447.825V448.226L275.876 445.554ZM273.443 463.554L273.523 463.191L268.537 462.137V462.513L273.443 463.554ZM268.524 459.954L274.004 461.121L274.098 460.757L268.524 459.578V459.954ZM273.43 490.197L273.523 489.845L268.537 488.654V489.043L273.43 490.197ZM268.524 486.434L274.058 487.763L274.165 487.399L268.524 486.07V486.434ZM274.713 497.635L274.579 497.284L268.524 499.165V499.567L274.713 497.635ZM273.884 495.289L273.751 494.938L268.524 496.569V496.958L273.884 495.289ZM349.972 422.775L350.306 422.951L353.154 418.285H352.739L349.972 422.775ZM352.258 424.03L352.592 424.205L356.202 418.31H355.747L352.258 424.03ZM341.711 421.521L338.891 418.285H338.383L341.404 421.747L341.711 421.521ZM343.449 420.191L343.756 419.953L342.299 418.285H341.791L343.449 420.191ZM330.776 425.861L327.862 418.335H327.435L330.402 426.037L330.776 425.861ZM332.875 425.146L333.249 425.021L330.656 418.285H330.242L332.875 425.146ZM313.76 422.374L314.147 422.462L315.283 418.285H314.869L313.76 422.374ZM316.313 422.989L316.7 423.076L318.037 418.285H317.623L316.313 422.989ZM285.768 421.734L286.811 418.26H286.396L285.38 421.634L285.768 421.734ZM289.551 418.26H289.137L287.92 422.299L288.308 422.412L289.551 418.26ZM277.386 422.637L277.761 422.537L276.424 418.26H276.01L277.386 422.637ZM280.287 421.822L279.138 418.26H278.737L279.9 421.935L280.287 421.822ZM359.784 514.079L359.597 514.406L363.353 516.312V515.886L359.784 514.079ZM361.027 511.909L360.84 512.236L363.353 513.49V513.076L361.027 511.909ZM363.433 529.433V528.956L359.704 531.979L359.958 532.255L363.433 529.433ZM363.433 526.171V525.682L357.979 530.11L358.233 530.386L363.433 526.171ZM363.019 539.618L363.153 539.969L363.433 539.869V539.467L363.019 539.618ZM362.057 537.322L362.19 537.674L363.433 537.21V536.808L362.057 537.322ZM359.383 550.255L359.289 550.619L363.38 551.484V551.095L359.383 550.255ZM363.393 548.561L359.971 547.834L359.891 548.198L363.393 548.95V548.561ZM309.161 511.671L300.673 508.297L300.526 508.636L309.014 512.01L309.161 511.671ZM299.496 510.906L307.985 514.293L308.132 513.941L299.643 510.567L299.496 510.906ZM326.432 519.172L332.26 525.87L332.568 525.632L326.726 518.946L326.432 519.172ZM330.536 527.2L324.667 520.514L324.36 520.74L330.202 527.438L330.536 527.2ZM319.588 531.59L316.46 523.449L316.086 523.575L319.214 531.716L319.588 531.59ZM322.061 530.75L318.933 522.609L318.572 522.734L321.7 530.875L322.061 530.75ZM316.714 540.17L316.38 539.982L311.795 547.508L312.129 547.696L316.714 540.17ZM314.428 538.915L314.08 538.74L309.509 546.266L309.843 546.454L314.428 538.915ZM298.855 545.752L293.08 539.116L292.773 539.342L298.614 546.04L298.855 545.752ZM300.887 544.184L295.058 537.498L294.751 537.724L300.579 544.422L300.887 544.184ZM285.942 549.477L282.8 541.349L282.439 541.474L285.567 549.602L285.942 549.477ZM288.415 548.637L285.287 540.508L284.912 540.634L288.04 548.762L288.415 548.637ZM351.242 538.941L350.855 538.853L348.582 547.232L348.97 547.32L351.242 538.941ZM353.795 539.543L353.408 539.455L351.135 547.846L351.523 547.934L353.795 539.543ZM338.864 546.642L330.375 543.268L330.228 543.607L338.717 546.981L338.864 546.642ZM339.893 544.359L331.351 540.922L331.204 541.261L339.693 544.648L339.893 544.359ZM295.058 551.271L294.684 552.525H295.098L295.433 551.421L295.058 551.271ZM292.893 550.694L292.519 550.593L291.944 552.475H292.358L292.893 550.694ZM323.531 547.232L325.216 552.475H325.63L323.919 547.119L323.531 547.232ZM321.392 547.834L321.018 547.934L322.462 552.475H322.876L321.392 547.834ZM308.439 526.974L308.199 526.686L300.833 531.891L301.074 532.192L308.439 526.974ZM310.017 528.956L309.789 528.655L302.424 533.86L302.665 534.161L310.017 528.956ZM295.927 527.112L296.302 526.999L293.748 518.695L293.361 518.796L295.927 527.112ZM293.775 527.689L291.249 519.323L290.874 519.423L293.428 527.727L293.775 527.689ZM281.891 527.689L282.426 519.059H282.038L281.504 527.702L281.891 527.689ZM284.565 527.84L285.1 519.197H284.699L284.164 527.827L284.565 527.84ZM347.633 531.076L347.326 530.837L341.524 537.561L341.831 537.799L347.633 531.076ZM345.28 529.282L339.479 536.005L339.786 536.244L345.574 529.52L345.28 529.282ZM346.898 516.538H346.51L345.467 525.13H345.868L346.898 516.538ZM343.89 516.224L342.861 524.817H343.248L344.278 516.212L343.89 516.224ZM272.935 518.658L273.122 518.332L268.577 516.036V516.463L272.935 518.658ZM274.365 516.149L268.524 513.126V513.54L274.125 516.375L274.365 516.149ZM272.039 526.573L271.772 526.284L268.524 528.943V529.433L272.039 526.573ZM270.315 524.691L270.048 524.415L268.537 525.67V526.159L270.315 524.691ZM276.691 536.432L268.537 539.43V539.831L276.838 536.771L276.691 536.432ZM268.537 537.172L275.876 534.475L275.742 534.136L268.537 536.771V537.172ZM268.537 551.058V551.446L272.962 552.375H273.456L273.523 552.124L268.537 551.058ZM274.018 550.067L274.111 549.703L268.537 548.524V548.913L274.018 550.067ZM350.32 511.922L353.167 507.256H352.739L350.066 511.734L350.32 511.922ZM355.76 507.256L352.271 512.963L352.606 513.151L356.215 507.256H355.76ZM341.417 510.718L341.725 510.479L338.904 507.256H338.396L341.417 510.718ZM343.462 509.15L343.77 508.911L342.313 507.256H341.805L343.462 509.15ZM330.79 514.819L327.876 507.293H327.448L330.416 514.983L330.79 514.819ZM332.889 514.117L333.263 513.979L330.67 507.256H330.255L332.889 514.117ZM314.174 511.433L315.31 507.256H314.896L313.786 511.345L314.174 511.433ZM316.34 511.947L316.727 512.035L318.064 507.256H317.65L316.34 511.947ZM285.795 510.693L286.837 507.231H286.423L285.407 510.592L285.795 510.693ZM289.163 507.231L287.947 511.27L288.334 511.37L289.578 507.231H289.163ZM277.413 511.608L277.787 511.495L276.451 507.231H276.036L277.413 511.608ZM279.926 510.893L280.314 510.793L279.164 507.231H278.763L279.926 510.893ZM264.514 399.043L268.524 400.009V399.633L264.58 398.692L264.514 399.043ZM265.262 396.296L265.169 396.647L268.564 397.463V397.074L265.262 396.296ZM268.524 410.571V410.182L265.85 411.022L265.984 411.373L268.524 410.571ZM265.021 408.664L265.142 409.015L268.537 407.962V407.573L265.021 408.664ZM257.83 418.297H258.284L260.022 415.463L259.674 415.274L257.83 418.297ZM260.864 418.297H261.319L262.308 416.692L261.96 416.504L260.864 418.297ZM241 414.835L240.693 415.074L243.513 418.297H244.021L241 414.835ZM242.738 413.506L246.908 418.297H247.43L243.045 413.28L242.738 413.506ZM232.766 417.733L232.391 417.858L232.565 418.297H232.979L232.766 417.733ZM234.878 417.018L235.359 418.272H235.787L235.252 416.867L234.878 417.018ZM220.401 418.272L221.537 414.07L221.163 413.982L220 418.272H220.401ZM223.716 414.585L222.713 418.272H223.128L224.09 414.685L223.716 414.585ZM191.941 418.272L193.398 413.418L193.024 413.318L191.527 418.272H191.941ZM195.951 414.095L195.564 413.995L194.227 418.272H194.641L195.951 414.095ZM247.791 401.702L256.279 405.077L256.44 404.738L247.951 401.364L247.791 401.702ZM246.761 403.973L255.29 407.41L255.45 407.071L246.962 403.647L246.761 403.973ZM253.913 390.978L254.301 391.078L256.8 382.762L256.426 382.649L253.913 390.978ZM256.453 391.655L256.827 391.755L259.34 383.427L258.966 383.326L256.453 391.655ZM242.751 376.176L245.425 384.455L245.799 384.355L243.125 376.051L242.751 376.176ZM245.278 375.461L247.951 383.74L248.325 383.64L245.652 375.361L245.278 375.461ZM213.115 402.743L215.789 411.035L216.163 410.922L213.49 402.643L213.115 402.743ZM218.676 410.27L216.003 401.991L215.628 402.091L218.302 410.382L218.676 410.27ZM229.103 405.478L238.233 404.224V403.86L229.103 405.114V405.478ZM229.41 407.56V407.924L238.54 406.67V406.306L229.41 407.56ZM238.58 389.033L238.193 388.946L236.148 397.375L236.522 397.463L238.58 389.033ZM240.773 389.498L238.714 397.927L239.088 398.015L241.147 389.585L240.773 389.498ZM208.37 392.508L208.704 392.709L213.637 385.396L213.302 385.208L208.37 392.508ZM210.602 393.838L210.936 394.038L215.869 386.725L215.535 386.525L210.602 393.838ZM231.696 377.368L230.841 374.696H230.44L231.322 377.418L231.696 377.368ZM228.795 378.183L229.17 378.083L228.221 375.098L227.833 375.173L228.795 378.183ZM198.531 406.858L198.839 407.084L204.44 400.222L204.132 399.996L198.531 406.858ZM206.552 401.715L206.231 401.489L200.63 408.363L200.951 408.589L206.552 401.715ZM220.588 390.062L220.441 390.401L228.929 393.787L229.076 393.436L220.588 390.062ZM221.47 388.13L229.958 391.505L230.105 391.166L221.617 387.792L221.47 388.13ZM179.015 467.844L175.646 475.897L176.007 476.035L179.376 467.982L179.015 467.844ZM181.461 468.747L178.092 476.8L178.453 476.938L181.835 468.885L181.461 468.747ZM264.741 425.46L268.51 427.366V426.94L264.928 425.134L264.741 425.46ZM266.184 422.951L265.997 423.265L268.51 424.519V424.092L266.184 422.951ZM268.524 440.023L264.781 443.058L265.048 443.334L268.524 440.512V440.023ZM263.324 441.465L268.524 437.251V436.761L263.07 441.177L263.324 441.465ZM268.096 450.697L268.243 451.048L268.524 450.936V450.547L268.096 450.697ZM268.524 447.887L267.187 448.402L267.334 448.74L268.577 448.289L268.524 447.887ZM268.524 462.174L264.514 461.322L264.433 461.685L268.524 462.551V462.174ZM265.102 458.913L265.008 459.277L268.524 460.017V459.641L265.102 458.913ZM268.524 488.616L264.58 487.675L264.473 488.039L268.484 489.005L268.524 488.616ZM265.222 485.28L265.128 485.643L268.524 486.434V486.057L265.222 485.28ZM268.524 499.567V499.165L265.85 500.006L265.984 500.357L268.524 499.567ZM268.524 496.958V496.569L265.008 497.66L265.128 498.011L268.524 496.958ZM205.696 419.64L214.185 423.026L214.345 422.688L205.857 419.301L205.696 419.64ZM204.667 421.922L213.155 425.297L213.316 424.958L204.827 421.584L204.667 421.922ZM260.089 504.446L259.741 504.27L257.83 507.293H258.284L260.089 504.446ZM262.375 505.7L262.027 505.512L260.931 507.318H261.386L262.375 505.7ZM240.759 504.082L243.58 507.318H244.088L241.067 503.844L240.759 504.082ZM242.805 502.514L246.975 507.318H247.497L243.112 502.301L242.805 502.514ZM232.832 506.754L232.458 506.879L232.632 507.318H233.046L232.832 506.754ZM234.944 506.039L235.426 507.293H235.853L235.319 505.889L234.944 506.039ZM220.066 507.293H220.467L221.604 503.091L221.229 502.991L220.066 507.293ZM223.783 503.606L222.78 507.293H223.194L224.157 503.693L223.783 503.606ZM180.298 503.279L179.924 503.38L180.659 505.663L180.98 505.387L180.298 503.279ZM182.824 502.564L182.437 502.677L182.798 503.756L183.105 503.468L182.824 502.564ZM198.184 476.637L197.836 476.461L193.251 483.988L193.599 484.176L198.184 476.637ZM195.884 485.418L200.47 477.891L200.122 477.703L195.537 485.229L195.884 485.418ZM237.778 436.649L231.897 429.988L231.589 430.226L237.431 436.924L237.778 436.649ZM235.733 438.216L229.892 431.518L229.597 431.757L235.426 438.455L235.733 438.216ZM221.296 434.554L224.424 442.682L224.799 442.556L221.671 434.428L221.296 434.554ZM223.769 433.713L226.897 441.842L227.272 441.716L224.144 433.588L223.769 433.713ZM256.493 493.746L248.005 490.372L247.844 490.711L256.333 494.085L256.493 493.746ZM255.464 496.029L246.975 492.643L246.815 492.994L255.303 496.368L255.464 496.029ZM256.48 471.67L253.967 479.999L254.354 480.099L256.854 471.77L256.48 471.67ZM259.394 472.448L259.019 472.347L256.493 480.664L256.867 480.764L259.394 472.448ZM245.799 473.338L243.125 465.059L242.751 465.16L245.425 473.451L245.799 473.338ZM248.325 472.623L245.652 464.345L245.278 464.445L247.951 472.736L248.325 472.623ZM221.59 450.961L217.005 458.487L217.353 458.662L221.938 451.136L221.59 450.961ZM219.304 449.706L214.719 457.232L215.067 457.408L219.652 449.882L219.304 449.706ZM197.916 450.271L203.758 456.969L204.052 456.731L198.251 450.057L197.916 450.271ZM199.948 448.703L205.79 455.401L206.097 455.163L200.349 448.49L199.948 448.703ZM187.637 452.466L190.765 460.607L191.139 460.481L188.011 452.34L187.637 452.466ZM190.123 451.625L193.251 459.766L193.612 459.641L190.484 451.5L190.123 451.625ZM253.819 458.236L254.207 458.324L256.466 449.945L256.092 449.844L253.819 458.236ZM259.033 450.547L258.645 450.459L256.373 458.838L256.76 458.926L259.033 450.547ZM244.034 457.584L235.546 454.209L235.386 454.548L243.874 457.935L244.034 457.584ZM245.064 455.313L236.575 451.939L236.415 452.278L244.903 455.652L245.064 455.313ZM215.655 491.024L218.329 499.303L218.703 499.203L216.029 490.912L215.655 491.024ZM238.246 493.195V492.831L229.116 494.085V494.449L238.246 493.195ZM238.607 495.64V495.277L229.477 496.531V496.895L238.607 495.64ZM236.522 486.434L238.58 478.004L238.193 477.917L236.148 486.358L236.522 486.434ZM239.088 486.985L241.147 478.556L240.773 478.468L238.714 486.91L239.088 486.985ZM213.343 474.241L209.867 479.397L210.014 479.873L213.717 474.392L213.343 474.241ZM215.575 475.558L210.87 482.533L211.017 482.997L215.909 475.759L215.575 475.558ZM207.18 467.004L207.34 467.342L215.789 463.88L215.628 463.542L207.18 467.004ZM216.845 466.151L216.684 465.812L208.236 469.274L208.383 469.613L216.845 466.151ZM200.603 462.388L200.216 462.275L197.676 470.541L198.05 470.641L200.603 462.388ZM195.55 470.039L198.063 461.71L197.689 461.61L195.176 469.939L195.55 470.039ZM231.736 466.364L229.063 458.085L228.688 458.186L231.362 466.477L231.736 466.364ZM226.175 458.838L228.849 467.117L229.223 467.016L226.55 458.738L226.175 458.838ZM213.356 437.514L206.004 442.732L206.244 443.021L213.597 437.815L213.356 437.514ZM207.581 444.701L207.822 445.002L215.187 439.784L214.947 439.496L207.581 444.701ZM198.531 429.649L201.084 437.953L201.472 437.853L198.906 429.536L198.531 429.649ZM196.005 430.327L198.558 438.643L198.932 438.543L196.339 430.327H196.005ZM186.648 438.467H187.049L187.583 429.825H187.182L186.648 438.467ZM190.203 430H189.816L189.281 438.643H189.669L190.203 430ZM193.438 493.583L187.797 488.077L187.516 488.328L193.171 493.847L193.438 493.583ZM185.899 489.82L185.645 490.197L191.366 495.778L191.634 495.515L185.899 489.82ZM252.737 441.904L252.429 441.678L246.641 448.402L246.949 448.64L252.737 441.904ZM250.384 440.123L244.582 446.846L244.89 447.085L250.691 440.349L250.384 440.123ZM252.028 427.479H251.627L250.598 436.072H250.986L252.028 427.479ZM249.007 427.153L247.978 435.758H248.379L249.408 427.166L249.007 427.153ZM229.103 482.47L220.614 479.096L220.467 479.434L228.956 482.808L229.103 482.47ZM230.132 480.187L221.644 476.813L221.497 477.151L229.985 480.526L230.132 480.187ZM177.197 437.652L176.943 437.376L176.635 437.627L175.967 438.655L177.197 437.652ZM181.862 447.524L173.708 450.522V450.91L182.009 447.862L181.862 447.524ZM181.047 445.567L180.899 445.216L173.708 447.862V448.264L181.047 445.567ZM178.6 463.567L178.694 463.203L173.708 462.149V462.526L178.6 463.567ZM179.188 461.158L179.269 460.795L173.708 459.616V459.992L179.188 461.158ZM178.587 490.197L178.694 489.845L173.708 488.654V489.043L178.587 490.197ZM173.708 486.434L179.242 487.763L179.335 487.399L173.708 486.057V486.434ZM179.884 497.635L179.763 497.284L173.708 499.153V499.554L179.884 497.635ZM179.055 495.289L178.934 494.938L173.708 496.556V496.945L179.055 495.289ZM255.156 422.788L255.504 422.964L258.351 418.297H257.83L255.156 422.788ZM257.442 424.042L257.79 424.218L261.386 418.322H260.931L257.442 424.042ZM246.908 421.534L244.088 418.297H243.58L246.601 421.759L246.908 421.534ZM248.633 420.204L248.94 419.966L247.497 418.297H246.975L248.633 420.204ZM235.96 425.874L233.046 418.348H232.632L235.586 426.049L235.96 425.874ZM238.072 425.159L238.447 425.033L235.853 418.297H235.426L238.072 425.159ZM218.957 422.387L219.345 422.474L220.467 418.297H220.066L218.957 422.387ZM221.51 423.001L221.884 423.089L223.221 418.297H222.807L221.51 423.001ZM190.578 421.672L190.965 421.772L192.008 418.297H191.594L190.578 421.672ZM194.748 418.297H194.334L193.117 422.336L193.492 422.449L194.748 418.297ZM264.781 514.443L268.551 516.35V515.923L264.968 514.117L264.781 514.443ZM266.225 511.934L266.037 512.261L268.551 513.515V513.101L266.225 511.934ZM268.524 529.433V528.943L264.781 531.979L265.048 532.255L268.524 529.433ZM268.524 526.171V525.682L263.07 530.11L263.324 530.386L268.524 526.171ZM268.096 539.618L268.243 539.969L268.524 539.869V539.467L268.096 539.618ZM267.134 537.322L267.281 537.674L268.524 537.21V536.808L267.134 537.322ZM264.46 550.255L264.38 550.619L268.47 551.484V551.095L264.46 550.255ZM268.47 548.561L265.048 547.834L264.955 548.198L268.47 548.95V548.561ZM231.589 519.172L237.431 525.87L237.738 525.632L231.897 518.946L231.589 519.172ZM235.693 527.2L229.851 520.514L229.557 520.74L235.386 527.438L235.693 527.2ZM224.758 531.59L222.085 524.591L221.898 525.205L224.397 531.716L224.758 531.59ZM227.231 530.75L224.103 522.609L223.729 522.734L226.857 530.875L227.231 530.75ZM221.884 540.17L221.537 539.982L216.952 547.508L217.299 547.696L221.884 540.17ZM219.211 538.765L216.39 543.506L215.949 544.974L219.652 538.903L219.211 538.765ZM256.386 538.966L256.012 538.878L253.739 547.257L254.127 547.345L256.386 538.966ZM258.953 539.568L258.565 539.48L256.292 547.872L256.68 547.959L258.953 539.568ZM244.034 546.642L235.546 543.268L235.386 543.607L243.874 546.981L244.034 546.642ZM245.064 544.359L236.575 540.985L236.415 541.324L244.903 544.711L245.064 544.359ZM228.702 547.232L230.386 552.475H230.801L229.076 547.119L228.702 547.232ZM226.563 547.834L226.175 547.934L227.632 552.475H228.047L226.563 547.834ZM252.75 531.026L252.443 530.787L246.654 537.511L246.962 537.749L252.75 531.026ZM250.397 529.232L244.596 535.955L244.903 536.194L250.705 529.47L250.397 529.232ZM252.028 516.488H251.627L250.598 525.08H250.986L252.028 516.488ZM249.007 516.174L247.978 524.766H248.379L249.408 516.162L249.007 516.174ZM255.49 512.022L258.338 507.356H257.83L255.156 511.834L255.49 512.022ZM260.918 507.356L257.429 513.063L257.776 513.252L261.372 507.356H260.918ZM246.588 510.818L246.895 510.58L244.075 507.356H243.567L246.588 510.818ZM248.619 509.25L248.927 509.012L247.483 507.356H246.962L248.619 509.25ZM235.947 514.92L233.033 507.394H232.619L235.573 515.083L235.947 514.92ZM238.059 514.217L238.433 514.079L235.84 507.356H235.412L238.059 514.217ZM219.478 509.438L219.705 510.128L220.454 507.356H220.053L219.478 509.438ZM221.497 512.047L221.871 512.135L223.208 507.356H222.793L221.497 512.047ZM173.28 450.697L173.427 451.048L173.708 450.936V450.547L173.28 450.697ZM173.708 447.887L172.371 448.402L172.518 448.74L173.761 448.289L173.708 447.887ZM169.604 461.685L173.708 462.551V462.174L169.697 461.322L169.604 461.685ZM170.192 459.277L173.708 460.017V459.641L170.272 458.838L170.192 459.277ZM173.708 488.679L169.697 487.738L169.604 488.102L173.614 489.068L173.708 488.679ZM170.406 485.342L170.312 485.706L173.708 486.509V486.133L170.406 485.342ZM173.708 499.629V499.228L171.034 500.068L171.155 500.42L173.708 499.629ZM173.708 497.02V496.631L170.179 497.723L170.299 498.074L173.708 497.02ZM165.233 504.546L164.899 504.371L163.054 507.394H163.508L165.233 504.546ZM167.519 505.801L167.184 505.613L166.088 507.419H166.543L167.519 505.801ZM145.917 504.183L148.724 507.419H149.245L146.224 503.944L145.917 504.183ZM147.948 502.615L152.132 507.419H152.64L148.256 502.401L147.948 502.615ZM140.463 506.014L140.088 506.139L140.583 507.394H141.011L140.463 506.014ZM134.715 431.882L136.051 433.488L134.715 431.819V431.882ZM126.413 434.679L129.555 442.807L129.916 442.682L126.828 434.428L126.413 434.679ZM128.9 433.839L132.028 441.967L132.402 441.842L129.274 433.713L128.9 433.839ZM161.583 493.746L153.095 490.372L152.948 490.711L161.436 494.085L161.583 493.746ZM160.554 496.029L152.079 492.643L151.919 492.994L160.407 496.368L160.554 496.029ZM161.583 471.67L159.07 479.999L159.445 480.099L161.958 471.77L161.583 471.67ZM164.497 472.448L164.11 472.347L161.61 480.664L161.984 480.764L164.497 472.448ZM150.903 473.338L148.229 465.059L147.855 465.16L150.528 473.451L150.903 473.338ZM153.416 472.623L150.742 464.345L150.368 464.445L153.041 472.736L153.416 472.623ZM127.055 451.149L126.721 450.961L122.136 458.487L122.483 458.662L127.055 451.149ZM124.769 449.894L124.435 449.706L119.85 457.232L120.197 457.408L124.769 449.894ZM149.192 457.584L140.703 454.209L140.556 454.548L149.045 457.935L149.192 457.584ZM150.221 455.313L141.733 451.939L141.585 452.278L150.074 455.652L150.221 455.313ZM134.26 494.399L143.39 493.144V492.781L134.26 494.035V494.399ZM134.634 496.845L143.764 495.59V495.227L134.634 496.481V496.845ZM141.318 486.308L141.706 486.383L143.764 477.954L143.377 477.866L141.318 486.308ZM145.943 478.418L143.885 486.86L144.272 486.935L146.331 478.506L145.943 478.418ZM120.812 463.492L117.297 464.934L117.43 465.285L120.973 463.83L120.812 463.492ZM121.855 465.762L118.152 467.28L118.286 467.631L122.015 466.101L121.855 465.762ZM133.886 458.236L136.559 466.527L136.947 466.414L134.273 458.135L133.886 458.236ZM131.359 458.951L134.033 467.23L134.42 467.129L131.747 458.85L131.359 458.951ZM111.174 442.908L111.415 443.196L118.78 437.991L118.54 437.69L111.174 442.908ZM120.371 439.96L120.131 439.671L112.765 444.877L113.006 445.178L120.371 439.96ZM134.287 482.495L125.798 479.121L125.638 479.459L134.126 482.834L134.287 482.495ZM126.667 477.176L135.156 480.551L135.316 480.212L126.828 476.775L126.667 477.176ZM170.139 514.18L169.951 514.506L170.286 514.255L170.139 514.18ZM171.382 512.01L171.195 512.336L172.17 512.825L172.491 512.562L171.382 512.01ZM156.236 521.066H156.637L157.185 516.425H156.798L156.236 521.066ZM153.563 520.64L153.95 520.753L154.499 516.149H154.111L153.563 520.64ZM163.441 507.293H162.987L160.313 511.771L160.648 511.96L163.441 507.293ZM166.476 507.293H166.021L162.532 513.001L162.88 513.189L166.476 507.293ZM151.691 510.755L151.985 510.517L149.178 507.293H148.657L151.691 510.755ZM153.723 509.187L154.031 508.949L152.574 507.293H152.066L153.723 509.187ZM140.516 507.293L142.428 512.311L143.163 513.114L140.944 507.344L140.516 507.293Z" fill="white"/>
<path d="M251.36 374.796C251.36 374.796 229.651 371.962 219.625 378.045C209.6 384.129 160.06 463.579 160.06 463.579L132.696 429.022L108.969 439.019C108.969 439.019 120.091 479.409 133.03 499.504C145.97 519.598 153.349 521.63 157.787 520.966C170.994 518.996 209.252 477.465 209.252 477.465L223.154 520.865L213.717 552.412H389.5L368.179 519.046C368.179 519.046 395.997 398.629 388.912 385.872C381.827 373.116 340.548 374.796 327.568 374.796H290.407C284.775 375.844 279.051 376.399 273.309 376.452C265.968 376.252 258.642 375.699 251.36 374.796V374.796Z" stroke="black" stroke-width="0.985332"/>
<path d="M209.265 477.464C204.176 467.923 202.2 457.185 203.584 446.595C206.164 429.699 217.312 411.197 217.312 411.197C217.312 411.197 195.069 441.302 195.069 451.336C195.069 461.371 201.686 476.047 201.686 476.047L195.911 491.513L209.265 477.464Z" fill="black" stroke="black" stroke-width="0.985332" stroke-linecap="round" stroke-linejoin="round"/>
<path d="M269.767 358.151L270.355 375.863L254.434 376.415C254.434 376.415 251.146 441.402 265.316 453.03C279.485 464.658 322.261 374.797 322.261 374.797L307.557 372.025L302.838 336.05L269.767 358.151Z" fill="white" stroke="black" stroke-width="0.985332" stroke-linecap="round" stroke-linejoin="round"/>
<path d="M304.536 343.073L270.489 373.178V362.528L304.536 343.073Z" fill="black" stroke="black" stroke-width="0.985332" stroke-linecap="round" stroke-linejoin="round"/>
<path d="M265.316 453.03C265.316 453.03 267.027 442.569 275.596 428.896L265.316 453.03Z" fill="white"/>
<path d="M265.316 453.03C265.316 453.03 267.027 442.569 275.596 428.896" stroke="black" stroke-width="0.985332" stroke-linecap="round" stroke-linejoin="round"/>
<path d="M262.909 258.279L224.144 296.098C227.189 304.147 228.665 312.645 228.501 321.185C228.047 334.581 241.027 354.287 251.641 363.444C262.254 372.601 283.91 358.527 291.997 353.56C297.399 350.125 302.435 346.21 307.036 341.869C309.986 341.749 312.855 340.929 315.375 339.485C317.895 338.042 319.984 336.022 321.446 333.615C321.446 333.615 265.115 277.132 262.909 258.279Z" fill="white" stroke="black" stroke-width="0.985332" stroke-linecap="round" stroke-linejoin="round"/>
<path d="M252.402 297.114C253.743 299.676 254.61 302.433 254.969 305.268C255.089 308.767 248.552 325.161 249.488 326.253C250.424 327.344 253.351 330.957 255.637 330.492" stroke="black" stroke-width="0.985332" stroke-linecap="round" stroke-linejoin="round"/>
<path d="M268.523 315.038C273.985 313.118 279.991 313.051 285.5 314.85" stroke="black" stroke-width="0.492666" stroke-linecap="round" stroke-linejoin="round"/>
<path d="M238.353 316.343C241.273 315.574 244.29 315.177 247.323 315.164" stroke="black" stroke-width="0.492666" stroke-linecap="round" stroke-linejoin="round"/>
<path d="M247.51 287.844C246.012 287.74 244.509 287.962 243.118 288.493C241.726 289.024 240.485 289.849 239.489 290.905C236.134 294.53 234.503 297.691 233.661 295.132C232.819 292.573 236.562 287.869 237.885 286.916C239.209 285.963 245.411 282.225 247.51 287.844Z" fill="black"/>
<path d="M264.099 285.737C268.031 285.724 271.911 286.583 275.421 288.246C280.541 290.88 278.095 285.537 274.499 284.006C270.903 282.476 264.674 282.627 264.099 285.737Z" fill="black"/>
<path d="M323.451 348.642C323.692 352.406 321.62 355.541 318.853 355.692C316.086 355.842 313.64 352.932 313.399 349.194C313.158 345.456 314.829 335.811 317.596 335.66C320.363 335.509 323.224 344.892 323.451 348.642Z" fill="#012C7A" stroke="black" stroke-width="0.985332" stroke-linecap="round" stroke-linejoin="round"/>
<path d="M245.919 309.57C246.106 312.079 245.09 314.111 243.66 314.199C242.23 314.286 240.987 312.367 240.759 309.909C240.532 307.45 241.588 305.368 243.018 305.28C244.449 305.192 245.799 307.162 245.919 309.57Z" fill="black"/>
<path d="M274.766 308.604C274.953 311.113 273.937 313.133 272.52 313.233C271.104 313.333 269.847 311.401 269.606 308.93C269.366 306.459 270.449 304.402 271.865 304.314C273.282 304.227 274.592 306.146 274.766 308.604Z" fill="black"/>
<path d="M255.451 337.629C255.451 337.629 262.255 339.674 271.492 332.261" stroke="black" stroke-width="0.985332" stroke-linecap="round" stroke-linejoin="round"/>
<path d="M132.696 429.047L120.251 413.405C119.676 409.24 118.566 400.636 118.379 394.828C118.125 386.926 118.54 382.096 113.754 375.085C108.968 368.073 95.6142 356.997 94.3577 354.425C93.1011 351.854 89.4651 359.104 91.751 363.808C94.0368 368.512 96.1222 369.954 96.1222 369.954C96.1222 369.954 71.5392 358.49 70.7238 360.359C69.9084 362.227 82.1665 395.28 87.7808 403.997C90.1201 407.635 96.6034 412.502 99.7314 416.716C101.261 418.796 102.573 421.01 103.648 423.327C106.562 434.955 109.958 447.749 111.669 448.213C115.559 449.279 132.068 449.53 132.696 429.047Z" fill="white" stroke="black" stroke-width="0.985332" stroke-miterlimit="10"/>
<path d="M97.7536 393.11C97.5289 393.166 97.2944 393.181 97.0637 393.152C96.833 393.124 96.6106 393.053 96.4093 392.943C96.2081 392.833 96.0319 392.687 95.8909 392.514C95.75 392.34 95.647 392.142 95.588 391.931L76.0313 324.083C75.9267 323.673 75.993 323.24 76.2166 322.874C76.4402 322.508 76.8042 322.236 77.2344 322.114C77.6863 322.002 78.1669 322.062 78.5721 322.28C78.9774 322.498 79.2748 322.858 79.3999 323.28L99.0101 391.103C99.1207 391.525 99.0512 391.971 98.8165 392.346C98.5818 392.721 98.2004 392.995 97.7536 393.11Z" fill="black" stroke="black" stroke-width="0.985332" stroke-miterlimit="10"/>
<path d="M83.6503 349.948C83.6503 349.948 64.7754 359.306 65.9383 361.137C67.1013 362.968 70.5501 369.504 72.1275 369.353C73.7049 369.202 85.1609 360.422 85.9897 359.318C86.8184 358.214 83.6503 349.948 83.6503 349.948Z" fill="white" stroke="black" stroke-width="0.985332" stroke-miterlimit="10"/>
<path d="M87.0192 361.438C87.0192 361.438 71.3391 372.288 71.847 373.868C72.355 375.449 80.0413 394.151 81.3781 395.669C82.7149 397.186 94.9863 391.906 94.9863 391.906L87.0192 361.438Z" fill="white" stroke="black" stroke-width="0.985332" stroke-miterlimit="10"/>
<path d="M89.399 371.521C89.399 371.521 74.3872 382.585 75.3764 382.936" stroke="black" stroke-width="0.985332" stroke-miterlimit="10"/>
<path d="M92.2323 383.514L79.6133 390.45" stroke="black" stroke-width="0.985332" stroke-miterlimit="10"/>
<path d="M96.0825 369.954L103.007 376.301C103.007 376.301 93.81 394.727 102.619 404.9" stroke="black" stroke-width="0.985332" stroke-miterlimit="10"/>
<path d="M369.302 378.722C369.302 378.722 386.105 376.665 393.364 389.697C400.622 402.73 445.979 517.917 446.714 528.93C447.449 539.943 416.744 542.64 406.518 537.848C396.291 533.057 367.752 476.135 364.864 468.583" fill="#012C7A"/>
<path d="M374.644 458.483L372.153 466.792L372.538 466.894L375.029 458.585L374.644 458.483Z" fill="white"/>
<path d="M380.451 435.056L377.897 426.739L377.51 426.852L380.076 435.156L380.451 435.056Z" fill="white"/>
<path d="M379.201 459.309L376.683 467.636L377.069 467.738L379.587 459.412L379.201 459.309Z" fill="white"/>
<path d="M383.07 453.857L377.229 447.159L376.921 447.398L382.763 454.083L383.07 453.857Z" fill="white"/>
<path d="M395.678 462.831L387.224 466.292L387.384 466.637L395.839 463.176L395.678 462.831Z" fill="white"/>
<path d="M394.887 472.81L394.553 472.609L389.62 479.922L389.954 480.123L394.887 472.81Z" fill="white"/>
<path d="M374.983 427.528L377.536 435.844L377.924 435.732L375.357 427.428L374.983 427.528Z" fill="white"/>
<path d="M387.388 478.593L387.722 478.794L392.655 471.494L392.321 471.293L387.388 478.593Z" fill="white"/>
<path d="M385.102 452.29L379.274 445.592L378.967 445.83L384.795 452.516L385.102 452.29Z" fill="white"/>
<path d="M393.943 436.678L386.57 441.878L386.811 442.179L394.184 436.979L393.943 436.678Z" fill="white"/>
<path d="M392.094 399.845L394.754 408.137L395.128 408.024L392.481 399.745L392.094 399.845Z" fill="white"/>
<path d="M392.589 435.03L392.348 434.729L384.982 439.934L385.223 440.235L392.589 435.03Z" fill="white"/>
<path d="M387.722 389.848L390.489 385.747C390.396 385.659 390.316 385.558 390.222 385.458L387.388 389.648L387.722 389.848Z" fill="white"/>
<path d="M379.635 405.465L379.956 405.69L385.557 398.817L385.249 398.591L379.635 405.465Z" fill="white"/>
<path d="M384.661 416.741L393.15 420.115L393.31 419.777L384.822 416.402L384.661 416.741Z" fill="white"/>
<path d="M394.62 399.131L397.28 407.422L397.655 407.309L395.008 399.03L394.62 399.131Z" fill="white"/>
<path d="M394.058 454.522L398.643 447.009L398.296 446.833L393.724 454.334L394.058 454.522Z" fill="white"/>
<path d="M383.803 418.71L383.652 419.045L392.143 422.425L392.294 422.09L383.803 418.71Z" fill="white"/>
<path d="M394.601 460.616L386.146 464.075L386.306 464.42L394.761 460.961L394.601 460.616Z" fill="white"/>
<path d="M415.567 538.024L415.42 538.363L419.684 540.069H420.727L415.567 538.024Z" fill="white"/>
<path d="M417.411 511.118L414.818 504.383L414.283 502.99L413.909 503.116L414.404 504.383L417.037 511.244L417.411 511.118Z" fill="white"/>
<path d="M408.536 517.842L414.377 524.54L414.671 524.302L408.843 517.604L408.536 517.842Z" fill="white"/>
<path d="M414.925 511.959L412.025 504.383L411.797 503.831L411.437 503.944L411.597 504.383L414.565 512.085L414.925 511.959Z" fill="white"/>
<path d="M417.518 492.379L408.388 493.583L408.442 493.947L417.572 492.743L417.518 492.379Z" fill="white"/>
<path d="M444.04 529.356L446.513 527.349L446.433 526.936L443.759 529.08L444.04 529.356Z" fill="white"/>
<path d="M377.55 403.96L377.857 404.186L383.472 397.312L383.151 397.086L377.55 403.96Z" fill="white"/>
<path d="M367.027 449.449L366.649 449.577L369.781 457.718L370.159 457.59L367.027 449.449Z" fill="white"/>
<path d="M442.302 527.488L445.831 524.628C445.787 524.496 445.752 524.362 445.724 524.227L442.048 527.212L442.302 527.488Z" fill="white"/>
<path d="M416.716 522.734L410.875 516.048L410.567 516.274L416.409 522.972L416.716 522.734Z" fill="white"/>
<path d="M368.833 427.207L368.297 435.848L368.7 435.87L369.235 427.229L368.833 427.207Z" fill="white"/>
<path d="M410.715 463.453L408.068 455.174L407.68 455.274L410.34 463.565L410.715 463.453Z" fill="white"/>
<path d="M403.086 430.665L402.722 430.788L405.852 438.929L406.217 438.806L403.086 430.665Z" fill="white"/>
<path d="M401.745 415.4L400.475 420.104L400.862 420.191L402.159 415.4L403.135 411.8L402.747 411.712L401.745 415.4Z" fill="white"/>
<path d="M399.031 415.399L397.922 419.488L398.31 419.576L399.432 415.399L400.582 411.197L400.194 411.109L399.031 415.399Z" fill="white"/>
<path d="M405.153 455.991L407.813 464.269L408.188 464.169L405.541 455.878L405.153 455.991Z" fill="white"/>
<path d="M400.587 431.541L400.222 431.664L403.354 439.805L403.719 439.681L400.587 431.541Z" fill="white"/>
<path d="M369.522 448.586L369.145 448.714L372.275 456.855L372.652 456.727L369.522 448.586Z" fill="white"/>
<path d="M389.954 391.102L392.2 387.778L391.959 387.427L389.62 390.914L389.954 391.102Z" fill="white"/>
<path d="M400.475 474.216L408.963 477.59L409.11 477.251L400.622 473.877L400.475 474.216Z" fill="white"/>
<path d="M377.148 384.756L376.801 384.567L372.216 392.068L372.563 392.257L377.148 384.756Z" fill="white"/>
<path d="M439.628 505.624L439.454 505.16L436.447 510.102L436.781 510.278L439.628 505.624Z" fill="white"/>
<path d="M431.006 513.527L430.619 513.489L429.576 522.082L429.977 522.119L431.006 513.527Z" fill="white"/>
<path d="M425.957 489.786L425.806 490.121L434.297 493.501L434.448 493.167L425.957 489.786Z" fill="white"/>
<path d="M437.316 504.382L438.479 502.488L438.318 502.012L436.861 504.382L434.121 508.873L434.469 509.049L437.316 504.382Z" fill="white"/>
<path d="M431.741 528.065L431.434 527.826L425.632 534.549L425.94 534.788L431.741 528.065Z" fill="white"/>
<path d="M434.028 490.284L426.97 487.475L426.823 487.813L434.202 490.748L434.028 490.284Z" fill="white"/>
<path d="M429.683 526.51L429.376 526.271L423.587 532.995L423.895 533.233L429.683 526.51Z" fill="white"/>
<path d="M420.139 475.607L419.751 475.52L417.692 483.949L418.08 484.037L420.139 475.607Z" fill="white"/>
<path d="M425.566 507.857L425.874 507.619L423.053 504.383L420.032 500.921L419.725 501.159L422.545 504.383L425.566 507.857Z" fill="white"/>
<path d="M374.502 393.298L374.85 393.486L379.435 385.973L379.087 385.797L374.502 393.298Z" fill="white"/>
<path d="M400.585 520.518L400.22 520.642L403.352 528.782L403.717 528.659L400.585 520.518Z" fill="white"/>
<path d="M435.485 536.03L435.097 535.93L434.389 538.539L434.83 538.426L435.485 536.03Z" fill="white"/>
<path d="M403.095 519.647L402.73 519.771L405.861 527.912L406.226 527.788L403.095 519.647Z" fill="white"/>
<path d="M415.406 449.38L418.935 450.785C418.935 450.622 418.802 450.459 418.748 450.308L415.553 449.054L415.406 449.38Z" fill="white"/>
<path d="M438.038 536.607L437.65 536.52L437.329 537.686L437.784 537.536L438.038 536.607Z" fill="white"/>
<path d="M392.28 511.043L385.276 508.259L385.57 508.773L392.12 511.382L392.28 511.043Z" fill="white"/>
<path d="M368.339 398.327L372.898 402.78L373.192 402.529L368.366 397.825L368.339 398.327Z" fill="white"/>
<path d="M408.536 428.858L411.664 432.433L411.223 431.355L408.883 428.62L408.536 428.858Z" fill="white"/>
<path d="M371 404.498L371.28 404.235L368.206 401.225L368.179 401.739L371 404.498Z" fill="white"/>
<path d="M421.729 462.262L424.39 470.553L424.764 470.44L422.117 462.161L421.729 462.262Z" fill="white"/>
<path d="M393.31 508.772L384.822 505.386L384.661 505.724L393.15 509.111L393.31 508.772Z" fill="white"/>
<path d="M383.472 486.307L383.151 486.081L377.55 492.942L377.857 493.168L383.472 486.307Z" fill="white"/>
<path d="M397.655 496.305L395.008 488.014L394.62 488.127L397.28 496.405L397.655 496.305Z" fill="white"/>
<path d="M395.128 497.02L392.481 488.729L392.094 488.841L394.754 497.12L395.128 497.02Z" fill="white"/>
<path d="M385.557 487.8L385.249 487.587L379.635 494.448L379.956 494.674L385.557 487.8Z" fill="white"/>
<path d="M372.082 419.438L372.47 419.539L373.713 415.399L374.969 411.222L374.595 411.109L373.298 415.399L372.082 419.438Z" fill="white"/>
<path d="M370.558 415.399L369.542 418.773L369.93 418.874L370.973 415.399L372.43 410.545L372.056 410.444L370.558 415.399Z" fill="white"/>
<path d="M377.148 473.739L376.801 473.551L372.216 481.064L372.563 481.24L377.148 473.739Z" fill="white"/>
<path d="M379.435 474.968L379.087 474.78L374.502 482.294L374.85 482.469L379.435 474.968Z" fill="white"/>
<path d="M400.595 448.062L396.01 455.564L396.344 455.752L400.93 448.238L400.595 448.062Z" fill="white"/>
<path d="M417.185 474.968L415.126 483.397L415.514 483.485L417.572 475.056L417.185 474.968Z" fill="white"/>
<path d="M419.991 453.482L414.524 451.312L414.377 451.65L420.179 453.958C420.112 453.82 420.058 453.645 419.991 453.482Z" fill="white"/>
<path d="M417.211 490.296L417.158 489.933L408.028 491.137L408.081 491.501L417.211 490.296Z" fill="white"/>
<path d="M422.077 499.353L421.77 499.591L425.954 504.382L427.611 506.289L427.919 506.051L426.462 504.382L422.077 499.353Z" fill="white"/>
<path d="M402.159 504.382L403.135 500.795L402.747 500.707L401.745 504.382L400.475 509.086L400.862 509.174L402.159 504.382Z" fill="white"/>
<path d="M399.6 476.19L399.448 476.524L407.939 479.905L408.091 479.57L399.6 476.19Z" fill="white"/>
<path d="M399.432 504.383L400.582 500.181L400.194 500.093L399.031 504.383L397.922 508.472L398.31 508.572L399.432 504.383Z" fill="white"/>
<path d="M427.357 521.843L428.386 513.251L427.999 513.213L426.956 521.805L427.357 521.843Z" fill="white"/>
<path d="M369.302 378.722C369.302 378.722 386.105 376.665 393.364 389.697C400.622 402.73 445.979 517.917 446.714 528.93C447.449 539.943 416.744 542.64 406.518 537.848C396.291 533.057 367.752 476.135 364.864 468.583" stroke="black" stroke-width="0.985332"/>
<path d="M267.722 535.753C267.722 535.753 233.38 531.639 227.525 532.317C221.67 532.994 195.376 549.463 195.376 549.463H269.86L267.722 535.753Z" fill="white" stroke="black" stroke-width="0.985332" stroke-linecap="round" stroke-linejoin="round"/>
<path d="M409.485 513.803L267.789 535.754L269.861 549.464H444.574C445.933 542.679 446.667 535.796 446.767 528.893C446.767 518.607 440.19 506.954 440.19 506.954" fill="#012C7A"/>
<path d="M421.222 536.443L423.882 544.722L424.256 544.621L421.609 536.33L421.222 536.443Z" fill="white"/>
<path d="M430.927 513.012L425.125 519.735L425.432 519.973L431.234 513.25L430.927 513.012Z" fill="white"/>
<path d="M423.08 518.181L423.387 518.42L429.175 511.696L428.868 511.458L423.08 518.181Z" fill="white"/>
<path d="M404.646 530.159L407.306 538.45L407.68 538.337L405.033 530.059L404.646 530.159Z" fill="white"/>
<path d="M426.783 543.907L424.122 535.616L423.748 535.729L426.408 544.008L426.783 543.907Z" fill="white"/>
<path d="M410.207 537.636L407.56 529.345L407.172 529.458L409.832 537.736L410.207 537.636Z" fill="white"/>
<path d="M434.598 521.121L432.328 529.51L432.716 529.602L434.987 521.214L434.598 521.121Z" fill="white"/>
<path d="M432.972 549.464H433.386L435.324 543.042L434.937 542.941L432.972 549.464Z" fill="white"/>
<path d="M400.114 548.047L399.967 548.386L402.667 549.464H403.683L400.114 548.047Z" fill="white"/>
<path d="M437.116 521.669L434.844 530.058L435.233 530.15L437.505 521.762L437.116 521.669Z" fill="white"/>
<path d="M369.002 522.755L368.625 522.883L371.755 531.024L372.132 530.896L369.002 522.755Z" fill="white"/>
<path d="M413.869 525.832L422.344 529.206L422.505 528.867L414.016 525.48L413.869 525.832Z" fill="white"/>
<path d="M416.676 549.15L416.596 549.464H416.997L417.064 549.226L416.676 549.15Z" fill="white"/>
<path d="M415.047 523.238L414.896 523.573L423.387 526.954L423.538 526.619L415.047 523.238Z" fill="white"/>
<path d="M376.413 521.566L382.255 528.265L382.562 528.026L376.721 521.328L376.413 521.566Z" fill="white"/>
<path d="M384.595 526.46L378.753 519.774L378.459 520L384.287 526.698L384.595 526.46Z" fill="white"/>
<path d="M441.808 512.674L442.623 512.009L442.463 511.646L441.554 512.398L441.808 512.674Z" fill="white"/>
<path d="M376.156 532.811L373.639 541.138L374.024 541.24L376.542 532.914L376.156 532.811Z" fill="white"/>
<path d="M443.505 530.486L446.726 531.176C446.726 531.05 446.726 530.925 446.726 530.799L443.572 530.122L443.505 530.486Z" fill="white"/>
<path d="M394.045 546.792L392.241 549.464H392.709L394.38 546.98L394.045 546.792Z" fill="white"/>
<path d="M446.633 533.308L443.011 532.543L442.917 532.894L446.606 533.684C446.62 533.559 446.633 533.434 446.633 533.308Z" fill="white"/>
<path d="M443.533 514.543L443.627 514.468L443.479 514.092L443.278 514.267L443.533 514.543Z" fill="white"/>
<path d="M394.089 534.776L385.634 538.235L385.794 538.58L394.249 535.121L394.089 534.776Z" fill="white"/>
<path d="M392.147 545.664L391.813 545.463L389.112 549.464H389.58L392.147 545.664Z" fill="white"/>
<path d="M378.72 533.552L376.203 541.878L376.588 541.981L379.106 533.654L378.72 533.552Z" fill="white"/>
<path d="M395.17 537.012L386.716 540.473L386.877 540.818L395.331 537.357L395.17 537.012Z" fill="white"/>
<path d="M400.422 522.42L400.088 522.231L395.502 529.745L395.837 529.933L400.422 522.42Z" fill="white"/>
<path d="M393.216 528.516L393.55 528.692L398.136 521.191L397.788 521.003L393.216 528.516Z" fill="white"/>
<path d="M299.263 534.783L290.809 538.242L290.969 538.587L299.424 535.128L299.263 534.783Z" fill="white"/>
<path d="M281.811 547.908L281.464 547.732L280.408 549.463H280.862L281.811 547.908Z" fill="white"/>
<path d="M279.191 541.248L281.49 533.621L281.062 533.684L278.816 541.147L279.191 541.248Z" fill="white"/>
<path d="M284.097 549.138L283.749 548.962L283.442 549.464H283.896L284.097 549.138Z" fill="white"/>
<path d="M328.544 526.923L328.704 526.585L328.196 526.396L327.475 526.497L328.544 526.923Z" fill="white"/>
<path d="M338.142 549.464H338.557L340.481 543.042L340.107 542.941L338.142 549.464Z" fill="white"/>
<path d="M341.605 524.315L340.041 530.11L340.415 530.21L342.032 524.252L341.605 524.315Z" fill="white"/>
<path d="M297.317 545.664L296.983 545.463L294.283 549.464H294.751L297.317 545.664Z" fill="white"/>
<path d="M299.55 546.98L299.215 546.792L297.397 549.464H297.865L299.55 546.98Z" fill="white"/>
<path d="M378.579 548.962L378.271 549.464H378.726L378.926 549.138L378.579 548.962Z" fill="white"/>
<path d="M437.476 543.619L435.712 549.464H436.126L437.851 543.72L437.476 543.619Z" fill="white"/>
<path d="M366.52 523.613L366.143 523.741L369.275 531.882L369.652 531.754L366.52 523.613Z" fill="white"/>
<path d="M342.633 543.619L340.882 549.464H341.283L343.021 543.72L342.633 543.619Z" fill="white"/>
<path d="M305.284 548.047L305.124 548.386L307.838 549.464H308.84L305.284 548.047Z" fill="white"/>
<path d="M376.64 547.908L376.293 547.732L375.237 549.463H375.691L376.64 547.908Z" fill="white"/>
<path d="M281.846 532.972L279.355 541.281L279.74 541.383L282.231 533.074L281.846 532.972Z" fill="white"/>
<path d="M357.886 539.266L357.512 539.128L354.143 547.181L354.504 547.319L357.886 539.266Z" fill="white"/>
<path d="M300.317 537.044L291.862 540.504L292.022 540.849L300.477 537.389L300.317 537.044Z" fill="white"/>
<path d="M360.332 540.157L359.958 540.031L356.589 548.084L356.964 548.21L360.332 540.157Z" fill="white"/>
<path d="M348.087 532.907L352.178 533.772L357.07 534.801L357.164 534.437L352.178 533.383L348.168 532.543L348.087 532.907Z" fill="white"/>
<path d="M357.659 532.392L357.753 532.029L352.178 530.85L348.756 530.122L348.663 530.486L352.178 531.226L357.659 532.392Z" fill="white"/>
<path d="M337.874 529.596L339.198 524.691L338.77 524.754L337.487 529.508L337.874 529.596Z" fill="white"/>
<path d="M327.675 528.868L323.344 527.137L322.623 527.25L327.515 529.206L327.675 528.868Z" fill="white"/>
<path d="M314.99 537.736L315.377 537.636L312.717 529.345L312.343 529.458L314.99 537.736Z" fill="white"/>
<path d="M312.85 538.337L310.19 530.059L309.816 530.159L312.476 538.45L312.85 538.337Z" fill="white"/>
<path d="M326.392 536.443L329.052 544.722L329.427 544.621L326.766 536.33L326.392 536.443Z" fill="white"/>
<path d="M321.834 549.15L321.753 549.464H322.168L322.221 549.226L321.834 549.15Z" fill="white"/>
<path d="M331.953 543.907L329.293 535.616L328.918 535.729L331.565 544.008L331.953 543.907Z" fill="white"/>
<path d="M409.485 513.803L267.789 535.754L269.861 549.464H444.574C445.933 542.679 446.667 535.796 446.767 528.893C446.767 518.607 440.19 506.954 440.19 506.954" stroke="black" stroke-width="0.985332"/>
<path d="M440.644 547.243H264.513L258.738 456.328C258.581 455.442 258.631 454.535 258.886 453.67C259.14 452.804 259.591 452.001 260.21 451.316C260.828 450.631 261.598 450.08 262.465 449.702C263.333 449.324 264.278 449.128 265.235 449.128H439.896C440.853 449.126 441.799 449.321 442.668 449.698C443.537 450.075 444.308 450.626 444.927 451.311C445.545 451.997 445.997 452.801 446.25 453.668C446.503 454.534 446.552 455.442 446.392 456.328L440.644 547.243Z" fill="#0F0F0F" stroke="#0F0F0F" stroke-width="0.985332" stroke-linecap="round" stroke-linejoin="round"/>
<path d="M273.162 451.311H438.626C439.56 451.302 440.485 451.484 441.336 451.845C442.188 452.206 442.945 452.737 443.555 453.402C444.164 454.066 444.612 454.847 444.867 455.69C445.121 456.534 445.177 457.419 445.029 458.285" stroke="white" stroke-width="0.985332" stroke-linecap="round" stroke-linejoin="round"/>
<path d="M260.048 456.893C260.174 455.366 260.911 453.942 262.112 452.906C263.312 451.87 264.887 451.3 266.518 451.311" stroke="white" stroke-width="0.985332" stroke-linecap="round" stroke-linejoin="round"/>
<path d="M441.379 538.388H263.751V547.243H441.379V538.388Z" fill="white" stroke="#0F0F0F" stroke-width="0.985332" stroke-linecap="round" stroke-linejoin="round"/>
<path d="M364.529 498.549C364.529 502.463 358.888 505.636 351.937 505.636C344.986 505.636 339.358 502.463 339.358 498.549C339.358 494.635 344.999 491.462 351.937 491.462C358.875 491.462 364.529 494.635 364.529 498.549Z" fill="white" stroke="#0F0F0F" stroke-width="0.985332" stroke-linecap="round" stroke-linejoin="round"/>
<path d="M89.3183 538.112C85.5852 537.939 81.9186 537.118 78.5039 535.691C77.6342 535.299 76.9597 534.606 76.6213 533.758C76.283 532.909 76.3069 531.971 76.6882 531.139C77.0695 530.307 77.7785 529.645 78.6674 529.292C79.5562 528.939 80.5561 528.922 81.4582 529.244C84.907 530.624 89.3317 531.477 90.5214 531C92.6869 528.705 96.0422 514.844 91.7111 508.234C91.4837 507.767 91.1405 507.359 90.7102 507.042C90.2799 506.726 89.7751 506.511 89.2381 506.415C86.7785 506.101 83.1425 508.472 81.8592 509.601C81.1275 510.198 80.1774 510.505 79.209 510.458C78.2406 510.411 77.3296 510.013 76.6677 509.348C76.0058 508.683 75.6448 507.803 75.6607 506.893C75.6765 505.983 76.0681 505.115 76.7528 504.471C77.4345 503.869 83.6371 498.638 90.2273 499.453C91.8632 499.683 93.4212 500.261 94.7815 501.144C96.1419 502.027 97.2682 503.19 98.074 504.546C104.45 514.28 100.093 532.844 95.1866 536.482C93.4834 537.632 91.4147 538.207 89.3183 538.112Z" fill="#0F0F0F" stroke="black" stroke-opacity="0.8" stroke-width="0.985332" stroke-linecap="round" stroke-linejoin="round"/>
<path d="M82.7013 496.594H41.4624V547.959H82.7013V496.594Z" fill="#0F0F0F" stroke="black" stroke-opacity="0.8" stroke-width="0.985332" stroke-linecap="round" stroke-linejoin="round"/>
<path d="M45.2051 493.784C45.2051 493.784 45.2051 489.506 53.5598 485.229C61.9145 480.952 66.4729 474.542 61.9145 462.425C57.3562 450.308 58.1181 441.753 67.2615 434.616" fill="#0F0F0F"/>
<path d="M45.2051 493.784C45.2051 493.784 45.2051 489.506 53.5598 485.229C61.9145 480.952 66.4729 474.542 61.9145 462.425C57.3562 450.308 58.1181 441.753 67.2615 434.616" stroke="black" stroke-opacity="0.8" stroke-width="0.985332" stroke-linecap="round" stroke-linejoin="round"/>
<path d="M47.1035 448.188C47.5313 442.983 50.0043 438.58 55.124 434.616L47.1035 448.188Z" fill="#0F0F0F"/>
<path d="M47.1035 448.188C47.5313 442.983 50.0043 438.58 55.124 434.616" stroke="black" stroke-opacity="0.8" stroke-width="0.985332" stroke-linecap="round" stroke-linejoin="round"/>
<path d="M49.7636 462.426C48.929 460.264 48.2546 458.051 47.7451 455.803L49.7636 462.426Z" fill="#0F0F0F"/>
<path d="M49.7636 462.426C48.929 460.264 48.2546 458.051 47.7451 455.803" stroke="black" stroke-opacity="0.8" stroke-width="0.985332" stroke-linecap="round" stroke-linejoin="round"/>
<path d="M79.132 466.603C78.8118 465.185 78.3875 463.789 77.8621 462.426L77.167 460.494" fill="#0F0F0F"/>
<path d="M79.132 466.603C78.8118 465.185 78.3875 463.789 77.8621 462.426L77.167 460.494" stroke="black" stroke-opacity="0.8" stroke-width="0.985332" stroke-linecap="round" stroke-linejoin="round"/>
<path d="M61.1528 493.784C61.1528 493.784 61.1528 489.507 69.5076 485.23C74.9883 482.42 78.8648 478.694 79.5466 473.05" fill="#0F0F0F"/>
<path d="M61.1528 493.784C61.1528 493.784 61.1528 489.507 69.5076 485.23C74.9883 482.42 78.8648 478.694 79.5466 473.05" stroke="black" stroke-opacity="0.8" stroke-width="0.985332" stroke-linecap="round" stroke-linejoin="round"/>
<path d="M625.477 547.08H3.29785V560H625.477V547.08Z" fill="black"/>
</svg>
