<svg width="50" height="50" viewBox="0 0 50 50" fill="none" xmlns="http://www.w3.org/2000/svg">
<path d="M3.26149 3.47135C-0.656393 7.54007 0.145463 11.8622 0.145463 24.9926C0.145463 35.8965 -1.75739 46.8275 8.20142 49.4008C11.3112 50.2004 38.8652 50.2004 41.9708 49.3966C46.1172 48.327 49.4908 44.9645 49.952 39.1013C50.0164 38.2829 50.0164 11.7168 49.9499 10.8819C49.4596 4.63651 45.6145 1.03718 40.5478 0.308169C39.3866 0.139937 39.1539 0.0900903 33.1961 0.0797056C12.0632 0.0900903 7.43072 -0.850764 3.26149 3.47135Z" fill="url(#paint0_linear_240_5112)"/>
<path d="M25.069 6.59979C17.5262 6.59979 10.3635 5.92894 7.6276 12.949C6.49752 15.8484 6.66163 19.6139 6.66163 25.0056C6.66163 29.7369 6.50999 34.1836 7.6276 37.0602C10.3572 44.0844 17.5781 43.4115 25.0649 43.4115C32.2878 43.4115 39.7351 44.1633 42.5042 37.0602C43.6364 34.1317 43.4702 30.4223 43.4702 25.0056C43.4702 17.8153 43.8669 13.1733 40.3791 9.6882C36.8476 6.15741 32.0718 6.59979 25.0607 6.59979H25.069ZM23.4196 9.91667C39.1534 9.89174 41.156 8.14296 40.0508 32.4369C39.6582 41.0292 33.1146 40.0863 25.0711 40.0863C10.405 40.0863 9.98331 39.6668 9.98331 24.9973C9.98331 10.1576 11.1466 9.92497 23.4196 9.91251V9.91667ZM34.8949 12.9718C33.6755 12.9718 32.6866 13.9605 32.6866 15.1796C32.6866 16.3988 33.6755 17.3874 34.8949 17.3874C36.1143 17.3874 37.1031 16.3988 37.1031 15.1796C37.1031 13.9605 36.1143 12.9718 34.8949 12.9718ZM25.069 15.5535C19.8486 15.5535 15.6171 19.7863 15.6171 25.0056C15.6171 30.225 19.8486 34.4557 25.069 34.4557C30.2894 34.4557 34.5189 30.225 34.5189 25.0056C34.5189 19.7863 30.2894 15.5535 25.069 15.5535ZM25.069 18.8704C33.1811 18.8704 33.1914 31.1409 25.069 31.1409C16.959 31.1409 16.9466 18.8704 25.069 18.8704Z" fill="white"/>
<defs>
<linearGradient id="paint0_linear_240_5112" x1="3.35708" y1="46.7425" x2="49.6855" y2="6.63794" gradientUnits="userSpaceOnUse">
<stop stop-color="#FFDD55"/>
<stop offset="0.5" stop-color="#FF543E"/>
<stop offset="1" stop-color="#C837AB"/>
</linearGradient>
</defs>
</svg>
