<svg width="607" height="622" viewBox="0 0 607 622" fill="none" xmlns="http://www.w3.org/2000/svg">
<path d="M607 172.807H578.88V173.17H607V172.807Z" fill="black" fill-opacity="0.3"/>
<path d="M339.103 180.447H247.625V180.81H339.103V180.447Z" fill="black" fill-opacity="0.3"/>
<path d="M510.806 0H313.703V188.184H510.806V0Z" fill="#012C7A"/>
<path d="M515.178 0H318.075V188.184H515.178V0Z" fill="#012C7A"/>
<path d="M507.32 179.353V8.83105L325.948 8.83105V179.353H507.32Z" fill="white"/>
<path d="M507.32 179.353V8.83105H504.008V179.353H507.32Z" fill="#012C7A"/>
<path d="M511.924 126.353H321.329V138.205H511.924V126.353Z" fill="#012C7A"/>
<path d="M145.874 145.574C145.874 145.574 146.876 162.452 185.179 162.452C223.481 162.452 224.497 145.574 224.497 145.574H145.874Z" fill="white"/>
<path d="M41.9924 174.741L35.7031 216.704H41.9924L80.5705 174.741H41.9924Z" fill="#2C2A29"/>
<path d="M35.7031 174.741V216.704L74.2812 174.741H35.7031Z" fill="#2C2A29"/>
<path d="M193.298 174.741L186.995 216.704H193.298L231.876 174.741H193.298Z" fill="#2C2A29"/>
<path d="M186.995 174.741V216.704L225.587 174.741H186.995Z" fill="#2C2A29"/>
<path d="M7.36528 175.539H49.3276V162.452H7.36528V175.539Z" fill="#2C2A29"/>
<path d="M257.963 162.452H49.342V175.539H257.963V162.452Z" fill="#2C2A29"/>
<path d="M92.2049 108.682C103.055 110.134 109.765 86.6183 85.814 66.6611C87.1067 89.7557 73.308 106.082 92.2049 108.682Z" fill="#2C2A29"/>
<path d="M100.179 139.562C115.895 128.537 105.132 90.032 56.4739 92.8208C77.5349 121.115 72.7563 158.764 100.179 139.562Z" fill="#012C7A"/>
<path d="M94.6306 139.3C84.1727 128.043 98.9881 99.7194 136.651 110.061C115.416 128.711 112.845 158.879 94.6306 139.3Z" fill="#012C7A"/>
<path d="M108.037 122.886C111.654 118.529 115.924 113.532 114.893 108.362C113.862 103.191 111.262 99.2254 113.324 93.6479C115.794 86.9664 115.314 78.9923 111.146 79.6604C106.977 80.3286 102.3 85.2235 102.431 91.687C102.561 98.1506 98.4074 99.9662 94.5583 103.307C90.7092 106.648 89.2131 111.499 88.5159 116.379C87.3103 123.961 77.477 122.523 74.8625 129.118C72.1754 135.48 77.5496 143.962 86.1484 145.908C94.7471 147.855 100.877 149.075 106.745 142.364C112.7 135.116 102.678 129.19 108.037 122.886Z" fill="#012C7A"/>
<path d="M78.4355 162.453H110.753L113.194 140.971H75.9954L78.4355 162.453Z" fill="#2C2A29"/>
<path d="M73.5986 144.805H115.604V140.07H73.5986V144.805Z" fill="#012C7A"/>
<path d="M108.225 331.333C109.898 332.07 111.669 332.559 113.483 332.786C117.211 333.24 120.981 332.366 124.129 330.317C129.111 327.092 132.133 321.442 131.653 316.242C131.628 315.988 131.507 315.753 131.316 315.583C131.125 315.414 130.877 315.322 130.622 315.327C126.113 315.295 121.653 316.266 117.566 318.17C113.479 320.074 109.866 322.864 106.99 326.337C105.625 320.527 104.419 314.383 103.548 308.05C105.965 309.901 108.805 311.119 111.812 311.594C113.057 311.745 114.318 311.691 115.545 311.434C122.038 310.098 127.165 303.141 131.842 295.806C131.928 295.674 131.986 295.526 132.011 295.371C132.036 295.216 132.028 295.057 131.987 294.905C131.948 294.758 131.875 294.623 131.774 294.509C131.673 294.396 131.547 294.308 131.406 294.251C119.569 289.313 107.019 299.989 103.01 303.838C102.401 298.504 102.076 293.142 102.037 287.773C104.57 288.579 107.171 289.153 109.808 289.487C116.184 290.228 121.544 289.124 125.378 286.161C129.925 282.675 132.031 276.88 131.464 269.428C131.452 269.286 131.411 269.147 131.342 269.021C131.274 268.896 131.18 268.785 131.066 268.698C130.953 268.611 130.823 268.548 130.684 268.513C130.545 268.479 130.4 268.474 130.259 268.499C116.78 270.46 106.424 279.088 102.11 283.242C102.11 282.283 102.11 281.324 102.211 280.337C102.227 280.099 102.161 279.863 102.022 279.668C101.904 277.846 101.381 276.072 100.491 274.477C99.6021 272.882 98.3686 271.504 96.8807 270.445C93.4964 268.252 88.7613 267.961 82.7915 269.559C82.6157 269.61 82.4525 269.697 82.3124 269.814C82.1723 269.932 82.0584 270.077 81.9781 270.242C81.8991 270.397 81.8578 270.569 81.8578 270.743C81.8578 270.917 81.8991 271.089 81.9781 271.244C82.2251 271.665 87.4395 280.467 96.6337 281.557C97.6292 281.645 98.6304 281.645 99.6259 281.557C99.5097 284.2 99.4661 286.858 99.5097 289.516C96.3089 286.772 92.5474 284.76 88.4881 283.621C84.4287 282.482 80.1696 282.244 76.0084 282.922C75.6796 282.975 75.3835 283.152 75.1805 283.416C75.0845 283.543 75.0166 283.689 74.9816 283.844C74.9465 284 74.945 284.161 74.9771 284.316C76.8073 293.307 81.2374 299.364 86.8294 300.497C87.0764 300.497 87.3378 300.584 87.6138 300.628C90.5188 300.962 94.6729 300.105 99.7275 295.297C100.084 301.441 100.777 307.56 101.805 313.628C96.9242 310.476 85.7256 304.709 75.7615 310.316C75.509 310.45 75.3147 310.672 75.2155 310.94C75.1164 311.208 75.1194 311.503 75.2241 311.768C79.2765 319.961 83.6921 324.231 88.7467 324.841H88.8775C93.0897 325.291 97.5924 323.2 102.691 318.508C103.838 324.434 105.203 330.128 106.656 335.415C101.95 331.479 95.9365 331.304 88.0786 334.834C87.9067 334.913 87.7548 335.03 87.6341 335.176C87.5135 335.322 87.4271 335.493 87.3814 335.676C87.3357 335.851 87.3373 336.034 87.3857 336.208C87.4342 336.381 87.528 336.539 87.6574 336.664C87.9914 336.998 93.6997 342.474 100.73 343.273C103.416 343.61 106.141 343.14 108.559 341.922C111.44 351.593 114.953 361.064 119.075 370.275C119.157 370.448 119.284 370.597 119.442 370.707C119.6 370.816 119.784 370.883 119.975 370.899C120.234 370.924 120.495 370.879 120.73 370.769C121.029 370.623 121.262 370.37 121.38 370.06C121.499 369.749 121.495 369.406 121.37 369.098C115.944 356.898 111.547 344.266 108.225 331.333Z" fill="#012C7A"/>
<g opacity="0.6">
<path d="M108.225 331.333C109.898 332.07 111.669 332.559 113.483 332.786C117.211 333.24 120.981 332.366 124.129 330.317C129.111 327.092 132.133 321.442 131.653 316.242C131.628 315.988 131.507 315.753 131.316 315.583C131.125 315.414 130.877 315.322 130.622 315.327C126.113 315.295 121.653 316.266 117.566 318.17C113.479 320.074 109.866 322.864 106.99 326.337C105.625 320.527 104.419 314.383 103.548 308.05C105.965 309.901 108.805 311.119 111.812 311.594C113.057 311.745 114.318 311.691 115.545 311.434C122.038 310.098 127.165 303.141 131.842 295.806C131.928 295.674 131.986 295.526 132.011 295.371C132.036 295.216 132.028 295.057 131.987 294.905C131.948 294.758 131.875 294.623 131.774 294.509C131.673 294.396 131.547 294.308 131.406 294.251C119.569 289.313 107.019 299.989 103.01 303.838C102.401 298.504 102.076 293.142 102.037 287.773C104.57 288.579 107.171 289.153 109.808 289.487C116.184 290.228 121.544 289.124 125.378 286.161C129.925 282.675 132.031 276.88 131.464 269.428C131.452 269.286 131.411 269.147 131.342 269.021C131.274 268.896 131.18 268.785 131.066 268.698C130.953 268.611 130.823 268.548 130.684 268.513C130.545 268.479 130.4 268.474 130.259 268.499C116.78 270.46 106.424 279.088 102.11 283.242C102.11 282.283 102.11 281.324 102.211 280.337C102.227 280.099 102.161 279.863 102.022 279.668C101.904 277.846 101.381 276.072 100.491 274.477C99.6021 272.882 98.3686 271.504 96.8807 270.445C93.4964 268.252 88.7613 267.961 82.7915 269.559C82.6157 269.61 82.4525 269.697 82.3124 269.814C82.1723 269.932 82.0584 270.077 81.9781 270.242C81.8991 270.397 81.8578 270.569 81.8578 270.743C81.8578 270.917 81.8991 271.089 81.9781 271.244C82.2251 271.665 87.4395 280.467 96.6337 281.557C97.6292 281.645 98.6304 281.645 99.6259 281.557C99.5097 284.2 99.4661 286.858 99.5097 289.516C96.3089 286.772 92.5474 284.76 88.4881 283.621C84.4287 282.482 80.1696 282.244 76.0084 282.922C75.6796 282.975 75.3835 283.152 75.1805 283.416C75.0845 283.543 75.0166 283.689 74.9816 283.844C74.9465 284 74.945 284.161 74.9771 284.316C76.8073 293.307 81.2374 299.364 86.8294 300.497C87.0764 300.497 87.3378 300.584 87.6138 300.628C90.5188 300.962 94.6729 300.105 99.7275 295.297C100.084 301.441 100.777 307.56 101.805 313.628C96.9242 310.476 85.7256 304.709 75.7615 310.316C75.509 310.45 75.3147 310.672 75.2155 310.94C75.1164 311.208 75.1194 311.503 75.2241 311.768C79.2765 319.961 83.6921 324.231 88.7467 324.841H88.8775C93.0897 325.291 97.5924 323.2 102.691 318.508C103.838 324.434 105.203 330.128 106.656 335.415C101.95 331.479 95.9365 331.304 88.0786 334.834C87.9067 334.913 87.7548 335.03 87.6341 335.176C87.5135 335.322 87.4271 335.493 87.3814 335.676C87.3357 335.851 87.3373 336.034 87.3857 336.208C87.4342 336.381 87.528 336.539 87.6574 336.664C87.9914 336.998 93.6997 342.474 100.73 343.273C103.416 343.61 106.141 343.14 108.559 341.922C111.44 351.593 114.953 361.064 119.075 370.275C119.157 370.448 119.284 370.597 119.442 370.707C119.6 370.816 119.784 370.883 119.975 370.899C120.234 370.924 120.495 370.879 120.73 370.769C121.029 370.623 121.262 370.37 121.38 370.06C121.499 369.749 121.495 369.406 121.37 369.098C115.944 356.898 111.547 344.266 108.225 331.333Z" fill="#012C7A"/>
</g>
<path d="M486.845 297.215H135.633C129.866 297.215 125.19 301.891 125.19 307.658V523.963C125.19 529.73 129.866 534.406 135.633 534.406H486.845C492.612 534.406 497.288 529.73 497.288 523.963V307.658C497.288 301.891 492.612 297.215 486.845 297.215Z" fill="#2C2A29"/>
<path opacity="0.6" d="M486.845 297.215H135.633C129.866 297.215 125.19 301.891 125.19 307.658V523.963C125.19 529.73 129.866 534.406 135.633 534.406H486.845C492.612 534.406 497.288 529.73 497.288 523.963V307.658C497.288 301.891 492.612 297.215 486.845 297.215Z" fill="#2C2A29"/>
<path d="M358.837 599.202H271.949C280.461 567.102 275.362 532.518 256.669 500.433H343.557C362.25 532.518 367.348 567.102 358.837 599.202Z" fill="#2C2A29"/>
<path d="M354.305 599.202H267.403C275.915 567.102 270.831 532.518 252.123 500.433H339.025C357.791 532.518 362.817 567.102 354.305 599.202Z" fill="#2C2A29"/>
<path d="M357.268 546.564H269.422C266.405 530.301 260.549 514.695 252.123 500.462H339.969C348.384 514.701 354.238 530.304 357.268 546.564Z" fill="#2C2A29"/>
<g opacity="0.4">
<path d="M358.837 599.202H271.949C280.461 567.102 275.362 532.518 256.669 500.433H343.557C362.25 532.518 367.348 567.102 358.837 599.202Z" fill="#2C2A29"/>
<path d="M354.305 599.202H267.403C275.915 567.102 270.831 532.518 252.123 500.433H339.025C357.791 532.518 362.817 567.102 354.305 599.202Z" fill="#2C2A29"/>
<path d="M357.268 546.563H269.422C266.405 530.3 260.549 514.694 252.123 500.461H339.969C348.384 514.7 354.238 530.303 357.268 546.563Z" fill="#2C2A29"/>
</g>
<path d="M354.305 599.202H267.403C275.915 567.102 270.831 532.518 252.123 500.433H339.025C357.791 532.518 362.817 567.102 354.305 599.202Z" fill="#2C2A29"/>
<path opacity="0.2" d="M354.305 599.202H267.403C275.915 567.102 270.831 532.518 252.123 500.433H339.025C357.791 532.518 362.817 567.102 354.305 599.202Z" fill="#2C2A29"/>
<path opacity="0.2" d="M356.339 546.564H269.335C266.344 530.318 260.544 514.717 252.196 500.462H339.2C347.548 514.717 353.348 530.318 356.339 546.564Z" fill="#2C2A29"/>
<path d="M481.907 297.215H130.695C124.927 297.215 120.252 301.891 120.252 307.658V523.963C120.252 529.73 124.927 534.406 130.695 534.406H481.907C487.674 534.406 492.35 529.73 492.35 523.963V307.658C492.35 301.891 487.674 297.215 481.907 297.215Z" fill="#2C2A29"/>
<path opacity="0.3" d="M481.907 297.215H130.695C124.927 297.215 120.252 301.891 120.252 307.658V523.963C120.252 529.73 124.927 534.406 130.695 534.406H481.907C487.674 534.406 492.35 529.73 492.35 523.963V307.658C492.35 301.891 487.674 297.215 481.907 297.215Z" fill="#2C2A29"/>
<path d="M338.183 592.331H238.978C237.156 592.331 235.408 593.055 234.12 594.343C232.831 595.632 232.107 597.379 232.107 599.201H345.053C345.053 597.379 344.329 595.632 343.041 594.343C341.752 593.055 340.005 592.331 338.183 592.331Z" fill="#2C2A29"/>
<path opacity="0.3" d="M338.183 592.331H238.978C237.156 592.331 235.408 593.055 234.12 594.343C232.831 595.632 232.107 597.379 232.107 599.201H345.053C345.053 597.379 344.329 595.632 343.041 594.343C341.752 593.055 340.005 592.331 338.183 592.331Z" fill="#2C2A29"/>
<path d="M492.35 309.228H120.252V500.418H492.35V309.228Z" fill="#2C2A29"/>
<path opacity="0.84" d="M492.219 309.228H120.121V500.418H492.219V309.228Z" fill="#F8FDF8"/>
<path opacity="0.23" d="M438.273 323.999H187.589C185.31 323.999 183.464 325.846 183.464 328.124V474.767C183.464 477.045 185.31 478.892 187.589 478.892H438.273C440.552 478.892 442.399 477.045 442.399 474.767V328.124C442.399 325.846 440.552 323.999 438.273 323.999Z" fill="#2C2A29"/>
<path opacity="0.67" d="M441.309 334.66V474.767C441.309 475.861 440.875 476.91 440.101 477.684C439.327 478.458 438.278 478.892 437.184 478.892H186.499C185.406 478.888 184.359 478.452 183.587 477.68C182.814 476.907 182.378 475.86 182.374 474.767V334.66H441.309Z" fill="#F8FDF8"/>
<path opacity="0.41" d="M440.554 340.15H183.13V473.416H440.554V340.15Z" fill="white"/>
<path opacity="0.19" d="M387.989 432.151C381.223 432.151 374.61 430.145 368.985 426.387C363.36 422.628 358.975 417.286 356.386 411.035C353.797 404.785 353.12 397.907 354.44 391.272C355.76 384.637 359.017 378.542 363.801 373.758C368.585 368.974 374.68 365.716 381.315 364.397C387.951 363.077 394.828 363.754 401.079 366.343C407.329 368.932 412.671 373.316 416.43 378.941C420.189 384.567 422.195 391.18 422.195 397.945C422.183 407.014 418.576 415.708 412.163 422.12C405.751 428.532 397.057 432.14 387.989 432.151ZM387.989 364.102C381.295 364.102 374.752 366.087 369.186 369.806C363.621 373.525 359.283 378.81 356.722 384.994C354.16 391.178 353.49 397.983 354.796 404.548C356.102 411.113 359.325 417.143 364.058 421.876C368.791 426.609 374.821 429.832 381.386 431.138C387.951 432.444 394.756 431.774 400.94 429.212C407.124 426.651 412.409 422.313 416.128 416.747C419.847 411.182 421.832 404.639 421.832 397.945C421.824 388.972 418.256 380.368 411.911 374.023C405.566 367.678 396.962 364.11 387.989 364.102Z" fill="#2C2A29"/>
<path opacity="0.19" d="M330.485 432.151C323.72 432.151 317.106 430.145 311.481 426.387C305.856 422.628 301.472 417.286 298.883 411.035C296.294 404.785 295.616 397.907 296.936 391.272C298.256 384.637 301.514 378.542 306.298 373.758C311.081 368.974 317.176 365.716 323.812 364.397C330.447 363.077 337.325 363.754 343.575 366.343C349.825 368.932 355.168 373.316 358.926 378.941C362.685 384.567 364.691 391.18 364.691 397.945C364.676 407.013 361.067 415.704 354.655 422.116C348.244 428.527 339.552 432.136 330.485 432.151ZM330.485 364.102C323.791 364.102 317.248 366.087 311.683 369.806C306.117 373.525 301.78 378.81 299.218 384.994C296.657 391.178 295.986 397.983 297.292 404.548C298.598 411.113 301.821 417.143 306.554 421.876C311.287 426.609 317.318 429.832 323.882 431.138C330.447 432.444 337.252 431.774 343.436 429.212C349.62 426.651 354.906 422.313 358.624 416.747C362.343 411.182 364.328 404.639 364.328 397.945C364.316 388.973 360.747 380.372 354.403 374.027C348.058 367.683 339.457 364.114 330.485 364.102Z" fill="#2C2A29"/>
<path opacity="0.19" d="M422.02 451.266H220.125C220.1 451.266 220.077 451.261 220.054 451.252C220.032 451.242 220.012 451.228 219.996 451.21C219.98 451.192 219.967 451.172 219.959 451.149C219.951 451.126 219.948 451.102 219.95 451.078V445.456C219.948 445.432 219.951 445.408 219.959 445.385C219.967 445.362 219.98 445.341 219.996 445.324C220.012 445.306 220.032 445.292 220.054 445.282C220.077 445.272 220.1 445.267 220.125 445.268H422.02C422.044 445.267 422.068 445.272 422.091 445.282C422.113 445.292 422.133 445.306 422.149 445.324C422.165 445.341 422.178 445.362 422.186 445.385C422.194 445.408 422.197 445.432 422.195 445.456V451.078C422.197 451.102 422.194 451.126 422.186 451.149C422.178 451.172 422.165 451.192 422.149 451.21C422.133 451.228 422.113 451.242 422.091 451.252C422.068 451.261 422.044 451.266 422.02 451.266ZM220.255 450.903H421.831V445.631H220.255V450.903Z" fill="#2C2A29"/>
<path opacity="0.19" d="M433.321 461.085H190.407C190.382 461.085 190.359 461.08 190.336 461.07C190.314 461.061 190.294 461.046 190.278 461.029C190.262 461.011 190.249 460.99 190.241 460.967C190.233 460.944 190.23 460.92 190.232 460.896V352.657C190.23 352.633 190.233 352.608 190.241 352.585C190.249 352.563 190.262 352.542 190.278 352.524C190.294 352.506 190.314 352.492 190.336 352.482C190.359 352.473 190.382 352.468 190.407 352.468H433.321C433.345 352.468 433.369 352.473 433.391 352.482C433.413 352.492 433.433 352.506 433.449 352.524C433.466 352.542 433.478 352.563 433.486 352.585C433.494 352.608 433.497 352.633 433.495 352.657V460.867C433.502 460.893 433.502 460.921 433.497 460.947C433.491 460.974 433.479 460.998 433.462 461.019C433.445 461.041 433.424 461.058 433.399 461.069C433.375 461.08 433.348 461.086 433.321 461.085ZM190.639 460.722H433.204V352.831H190.595L190.639 460.722Z" fill="#2C2A29"/>
<path d="M430.082 329.358C430.079 329.793 430.205 330.218 430.444 330.581C430.683 330.943 431.025 331.227 431.425 331.395C431.826 331.563 432.267 331.609 432.694 331.526C433.12 331.443 433.512 331.235 433.821 330.929C434.129 330.623 434.339 330.232 434.425 329.806C434.511 329.38 434.468 328.939 434.303 328.537C434.137 328.135 433.856 327.792 433.495 327.55C433.134 327.309 432.709 327.18 432.275 327.18C431.988 327.178 431.703 327.233 431.437 327.341C431.171 327.45 430.929 327.61 430.725 327.813C430.521 328.015 430.359 328.256 430.249 328.521C430.138 328.787 430.082 329.071 430.082 329.358Z" fill="white"/>
<path d="M424.504 331.552C425.716 331.552 426.698 330.57 426.698 329.358C426.698 328.147 425.716 327.165 424.504 327.165C423.293 327.165 422.311 328.147 422.311 329.358C422.311 330.57 423.293 331.552 424.504 331.552Z" fill="white"/>
<path d="M416.734 331.552C417.945 331.552 418.927 330.57 418.927 329.358C418.927 328.147 417.945 327.165 416.734 327.165C415.522 327.165 414.54 328.147 414.54 329.358C414.54 330.57 415.522 331.552 416.734 331.552Z" fill="white"/>
<path d="M441.309 334.384H182.374V334.936H441.309V334.384Z" fill="#2C2A29"/>
<path opacity="0.47" d="M219.703 309.228L185.526 500.418H219.355L253.532 309.228H219.703Z" fill="#F8FDF8"/>
<path opacity="0.47" d="M261.782 309.228L227.62 500.418H244.527L278.704 309.228H261.782Z" fill="#F8FDF8"/>
<path opacity="0.4" d="M450.838 309.228L416.661 500.418H425.129L459.291 309.228H450.838Z" fill="white"/>
<path opacity="0.4" d="M435.95 309.228L401.773 500.418H410.241L444.403 309.228H435.95Z" fill="white"/>
<path d="M361.815 592.331H344.051C342.229 592.331 340.481 593.055 339.193 594.343C337.904 595.632 337.181 597.379 337.181 599.201H368.671C368.672 598.3 368.497 597.407 368.153 596.573C367.809 595.74 367.305 594.982 366.668 594.344C366.031 593.706 365.275 593.2 364.442 592.854C363.609 592.509 362.716 592.331 361.815 592.331Z" fill="#2C2A29"/>
<path opacity="0.4" d="M361.815 592.331H344.051C342.229 592.331 340.481 593.055 339.193 594.343C337.904 595.632 337.181 597.379 337.181 599.201H368.671C368.672 598.3 368.497 597.407 368.153 596.573C367.809 595.74 367.305 594.982 366.668 594.344C366.031 593.706 365.275 593.2 364.442 592.854C363.609 592.509 362.716 592.331 361.815 592.331Z" fill="#2C2A29"/>
<path d="M313.418 517.848C313.418 519.255 313.001 520.631 312.219 521.802C311.436 522.972 310.325 523.884 309.024 524.423C307.724 524.962 306.293 525.103 304.912 524.828C303.532 524.554 302.264 523.876 301.268 522.88C300.273 521.885 299.595 520.617 299.32 519.236C299.046 517.856 299.187 516.425 299.725 515.124C300.264 513.824 301.176 512.712 302.347 511.93C303.517 511.148 304.893 510.73 306.301 510.73C308.188 510.73 309.999 511.48 311.333 512.815C312.668 514.15 313.418 515.96 313.418 517.848Z" fill="#2C2A29"/>
<path opacity="0.5" d="M313.418 517.848C313.418 519.255 313.001 520.631 312.219 521.802C311.436 522.972 310.325 523.884 309.024 524.423C307.724 524.962 306.293 525.103 304.912 524.828C303.532 524.554 302.264 523.876 301.268 522.88C300.273 521.885 299.595 520.617 299.32 519.236C299.046 517.856 299.187 516.425 299.725 515.124C300.264 513.824 301.176 512.712 302.347 511.93C303.517 511.148 304.893 510.73 306.301 510.73C308.188 510.73 309.999 511.48 311.333 512.815C312.668 514.15 313.418 515.96 313.418 517.848Z" fill="#2C2A29"/>
<path d="M245.485 574.654C244.483 539.882 244.57 327.833 246.589 310.418L249.334 306.627C249.334 306.627 248.07 309.997 247.765 369.592C247.46 429.188 247.053 565.809 247.388 574.654H245.485Z" fill="#012C7A"/>
<path d="M261.796 445.689C273.416 426.342 286.14 412.587 295.349 405.019C304.557 397.452 280.417 446.589 270.976 464.876C261.535 483.163 249.9 503.382 246.153 520.463C245.427 485.719 250.162 465.036 261.796 445.689Z" fill="#012C7A"/>
<path d="M246.385 312.858C248.768 290.867 245.543 270.547 257.512 244.794C269.48 219.042 278.587 198.823 290.134 189.426C292.909 187.16 283.424 231.925 272.4 257.141C264.629 274.934 262.13 287.643 253.88 299.64C251.949 302.429 246.385 312.858 246.385 312.858Z" fill="#012C7A"/>
<path d="M246.327 430.19C248.738 403.043 250.917 376.898 266.502 338.277C270.293 328.865 305.429 263.096 314.594 255.979C319.082 252.478 303.381 296.184 288.043 332.961C276.553 360.558 271.789 368.459 258.993 400.472C253.982 413.152 246.327 430.19 246.327 430.19Z" fill="#012C7A"/>
<path d="M225.876 296.226C212.804 278.521 200.167 266.552 190.886 260.292C181.604 254.032 206.863 297.563 219.006 316.561C231.149 335.56 242.144 352.045 247.17 368.517C244.759 333.846 238.949 313.947 225.876 296.226Z" fill="#012C7A"/>
<path d="M246.327 478.297C243.858 459.415 238.774 437.235 231.512 420.793C224.249 404.351 213.065 379.136 204.176 370.581C202.041 368.518 213.472 417.569 220.821 430.612C228.171 443.655 233.545 455.958 238.164 463.351C239.704 465.748 246.327 478.297 246.327 478.297Z" fill="#012C7A"/>
<path opacity="0.5" d="M245.485 574.654C244.483 539.882 244.57 327.833 246.589 310.418L249.334 306.627C249.334 306.627 248.07 309.997 247.765 369.592C247.46 429.188 247.053 565.809 247.388 574.654H245.485Z" fill="#012C7A"/>
<path opacity="0.5" d="M261.796 445.689C273.416 426.342 286.14 412.587 295.349 405.019C304.557 397.452 280.417 446.589 270.976 464.876C261.535 483.163 249.9 503.382 246.153 520.463C245.427 485.719 250.162 465.036 261.796 445.689Z" fill="#012C7A"/>
<path opacity="0.5" d="M246.385 312.858C248.768 290.867 245.543 270.547 257.512 244.794C269.48 219.042 278.587 198.823 290.134 189.426C292.909 187.16 283.424 231.925 272.4 257.141C264.629 274.934 262.13 287.643 253.88 299.64C251.949 302.429 246.385 312.858 246.385 312.858Z" fill="#012C7A"/>
<path opacity="0.5" d="M246.327 430.19C248.738 403.043 250.917 376.898 266.502 338.277C270.293 328.865 305.429 263.096 314.594 255.979C319.082 252.478 303.381 296.184 288.043 332.961C276.553 360.558 271.789 368.459 258.993 400.472C253.982 413.152 246.327 430.19 246.327 430.19Z" fill="#012C7A"/>
<path opacity="0.5" d="M225.876 296.226C212.804 278.521 200.167 266.552 190.886 260.292C181.604 254.032 206.863 297.563 219.006 316.561C231.149 335.56 242.144 352.045 247.17 368.517C244.759 333.846 238.949 313.947 225.876 296.226Z" fill="#012C7A"/>
<path opacity="0.5" d="M246.327 478.297C243.858 459.415 238.774 437.235 231.512 420.793C224.249 404.351 213.065 379.136 204.176 370.581C202.041 368.518 213.472 417.569 220.821 430.612C228.171 443.655 233.545 455.958 238.164 463.351C239.704 465.748 246.327 478.297 246.327 478.297Z" fill="#012C7A"/>
<path d="M273.983 599.202H218.933L214.779 567.566H278.137L273.983 599.202Z" fill="#2C2A29"/>
<path d="M282.233 571.256H210.669L208.621 560.58H284.281L282.233 571.256Z" fill="#2C2A29"/>
<path d="M213.922 330.971H50.1543C44.5471 330.971 40.0015 335.516 40.0015 341.124V589.049C40.0015 594.656 44.5471 599.202 50.1543 599.202H213.922C219.53 599.202 224.075 594.656 224.075 589.049V341.124C224.075 335.516 219.53 330.971 213.922 330.971Z" fill="#2C2A29"/>
<path opacity="0.6" d="M213.922 330.971H50.1543C44.5471 330.971 40.0015 335.516 40.0015 341.124V589.049C40.0015 594.656 44.5471 599.202 50.1543 599.202H213.922C219.53 599.202 224.075 594.656 224.075 589.049V341.124C224.075 335.516 219.53 330.971 213.922 330.971Z" fill="#2C2A29"/>
<path d="M209.057 330.971H45.2886C39.6813 330.971 35.1357 335.516 35.1357 341.124V589.049C35.1357 594.656 39.6813 599.202 45.2886 599.202H209.057C214.664 599.202 219.209 594.656 219.209 589.049V341.124C219.209 335.516 214.664 330.971 209.057 330.971Z" fill="#2C2A29"/>
<path opacity="0.3" d="M209.057 330.971H45.2886C39.6813 330.971 35.1357 335.516 35.1357 341.124V589.049C35.1357 594.656 39.6813 599.202 45.2886 599.202H209.057C214.664 599.202 219.209 594.656 219.209 589.049V341.124C219.209 335.516 214.664 330.971 209.057 330.971Z" fill="#2C2A29"/>
<path d="M219.209 342.62H35.1357V575.454H219.209V342.62Z" fill="#F8FDF8"/>
<path opacity="0.1" d="M219.209 342.62H35.1357V575.454H219.209V342.62Z" fill="#2C2A29"/>
<path opacity="0.48" d="M100.396 343.2L58.2737 576.034H90.4463L132.568 343.2H100.396Z" fill="#F8FDF8"/>
<path opacity="0.48" d="M142.126 342.62L100.004 575.468H116.083L158.205 342.62H142.126Z" fill="#F8FDF8"/>
<path d="M127.166 594.104C130.984 594.104 134.079 591.009 134.079 587.19C134.079 583.372 130.984 580.276 127.166 580.276C123.347 580.276 120.252 583.372 120.252 587.19C120.252 591.009 123.347 594.104 127.166 594.104Z" fill="#2C2A29"/>
<path opacity="0.5" d="M127.166 594.104C130.984 594.104 134.079 591.009 134.079 587.19C134.079 583.372 130.984 580.276 127.166 580.276C123.347 580.276 120.252 583.372 120.252 587.19C120.252 591.009 123.347 594.104 127.166 594.104Z" fill="#2C2A29"/>
<path d="M128.763 336.33C128.763 336.646 128.669 336.955 128.494 337.218C128.318 337.481 128.069 337.685 127.777 337.806C127.485 337.927 127.164 337.959 126.854 337.897C126.544 337.836 126.259 337.683 126.036 337.46C125.812 337.236 125.66 336.952 125.598 336.642C125.537 336.332 125.568 336.011 125.689 335.719C125.81 335.427 126.015 335.177 126.278 335.002C126.54 334.826 126.849 334.732 127.165 334.732C127.589 334.732 127.995 334.901 128.295 335.2C128.595 335.5 128.763 335.906 128.763 336.33Z" fill="#2C2A29"/>
<path opacity="0.5" d="M128.763 336.33C128.763 336.646 128.669 336.955 128.494 337.218C128.318 337.481 128.069 337.685 127.777 337.806C127.485 337.927 127.164 337.959 126.854 337.897C126.544 337.836 126.259 337.683 126.036 337.46C125.812 337.236 125.66 336.952 125.598 336.642C125.537 336.332 125.568 336.011 125.689 335.719C125.81 335.427 126.015 335.177 126.278 335.002C126.54 334.826 126.849 334.732 127.165 334.732C127.589 334.732 127.995 334.901 128.295 335.2C128.595 335.5 128.763 335.906 128.763 336.33Z" fill="#2C2A29"/>
<path d="M357.08 290.925L368.162 288.848C368.339 288.819 368.508 288.75 368.656 288.648C368.803 288.546 368.927 288.412 369.017 288.257C369.107 288.101 369.162 287.928 369.177 287.749C369.193 287.57 369.169 287.39 369.106 287.221L360.391 261.411C360.255 261.038 359.994 260.725 359.652 260.523C359.31 260.322 358.909 260.245 358.518 260.307L347.45 262.369C347.271 262.398 347.1 262.467 346.951 262.57C346.802 262.673 346.677 262.808 346.587 262.965C346.497 263.122 346.442 263.298 346.428 263.479C346.414 263.659 346.441 263.841 346.505 264.01L355.22 289.821C355.352 290.194 355.61 290.509 355.95 290.711C356.289 290.912 356.689 290.988 357.08 290.925Z" fill="#012C7A"/>
<path opacity="0.6" d="M357.08 290.925L368.162 288.848C368.339 288.819 368.508 288.75 368.656 288.648C368.803 288.546 368.927 288.412 369.017 288.257C369.107 288.101 369.162 287.928 369.177 287.749C369.193 287.57 369.169 287.39 369.106 287.221L360.391 261.411C360.255 261.038 359.994 260.725 359.652 260.523C359.31 260.322 358.909 260.245 358.518 260.307L347.45 262.369C347.271 262.398 347.1 262.467 346.951 262.57C346.802 262.673 346.677 262.808 346.587 262.965C346.497 263.122 346.442 263.298 346.428 263.479C346.414 263.659 346.441 263.841 346.505 264.01L355.22 289.821C355.352 290.194 355.61 290.509 355.95 290.711C356.289 290.912 356.689 290.988 357.08 290.925Z" fill="#2C2A29"/>
<path d="M358.445 290.723L369.513 288.66C369.692 288.631 369.862 288.563 370.011 288.46C370.161 288.357 370.285 288.222 370.375 288.064C370.466 287.907 370.52 287.732 370.534 287.551C370.548 287.37 370.522 287.188 370.457 287.019L361.742 261.208C361.606 260.836 361.344 260.522 361.003 260.321C360.661 260.12 360.26 260.043 359.868 260.104L348.8 262.182C348.622 262.209 348.452 262.275 348.302 262.377C348.153 262.478 348.029 262.612 347.938 262.768C347.847 262.925 347.793 263.099 347.779 263.279C347.765 263.459 347.791 263.64 347.856 263.808L356.571 289.619C356.708 289.991 356.969 290.305 357.311 290.506C357.652 290.708 358.053 290.784 358.445 290.723Z" fill="#012C7A"/>
<path opacity="0.3" d="M358.445 290.723L369.513 288.66C369.692 288.631 369.862 288.563 370.011 288.46C370.161 288.357 370.285 288.222 370.375 288.064C370.466 287.907 370.52 287.732 370.534 287.551C370.548 287.37 370.522 287.188 370.457 287.019L361.742 261.208C361.606 260.836 361.344 260.522 361.003 260.321C360.661 260.12 360.26 260.043 359.868 260.104L348.8 262.182C348.622 262.209 348.452 262.275 348.302 262.377C348.153 262.478 348.029 262.612 347.938 262.768C347.847 262.925 347.793 263.099 347.779 263.279C347.765 263.459 347.791 263.64 347.856 263.808L356.571 289.619C356.708 289.991 356.969 290.305 357.311 290.506C357.652 290.708 358.053 290.784 358.445 290.723Z" fill="#2C2A29"/>
<path d="M355.976 287.861L369.861 285.261L362.047 262.108L348.147 264.708L355.976 287.861Z" fill="#F8FDF8"/>
<path opacity="0.14" d="M355.976 287.861L369.861 285.261L362.047 262.108L348.147 264.708L355.976 287.861Z" fill="#012C7A"/>
<path d="M348.147 274.716L349.236 272.188L359.694 283.939L350.645 284.636L348.147 274.716Z" fill="white"/>
<path d="M169.476 183.586C181.854 183.586 191.888 173.552 191.888 161.175C191.888 148.797 181.854 138.763 169.476 138.763C157.099 138.763 147.064 148.797 147.064 161.175C147.064 173.552 157.099 183.586 169.476 183.586Z" fill="#012C7A"/>
<path d="M169.476 187.799C167.938 187.8 166.402 187.669 164.887 187.407L165.133 185.954C168.018 186.446 170.964 186.446 173.848 185.954L174.095 187.407C172.569 187.667 171.024 187.798 169.476 187.799ZM156.215 184.255C153.531 182.711 151.137 180.71 149.142 178.343L150.26 177.399C152.142 179.645 154.403 181.542 156.941 183.006L156.215 184.255ZM182.767 184.255L182.04 183.006C184.579 181.542 186.84 179.645 188.722 177.399L189.826 178.329C187.832 180.672 185.442 182.648 182.767 184.168V184.255ZM144.508 170.369C143.447 167.455 142.906 164.377 142.91 161.276H144.363C144.341 164.201 144.832 167.106 145.815 169.861L144.508 170.369ZM194.445 170.369L193.079 169.875C194.063 167.121 194.554 164.215 194.532 161.291H195.52H195.984C195.992 164.345 195.471 167.377 194.445 170.253V170.369ZM145.844 152.75L144.479 152.256C145.534 149.34 147.093 146.631 149.083 144.253L150.187 145.183C148.323 147.399 146.853 149.919 145.844 152.634V152.75ZM193.05 152.605C192.049 149.862 190.574 147.315 188.693 145.081L189.811 144.137C191.809 146.501 193.382 149.195 194.459 152.097L193.05 152.605ZM156.854 139.533L156.128 138.283C158.819 136.71 161.771 135.632 164.843 135.103L165.09 136.555C162.197 137.03 159.41 138.009 156.854 139.445V139.533ZM181.953 139.533C179.416 138.088 176.642 137.104 173.761 136.628L174.008 135.175C177.074 135.698 180.023 136.755 182.723 138.298L181.953 139.533Z" fill="#012C7A"/>
<path d="M343.833 274.498H339.475V275.951H343.833V274.498Z" fill="#012C7A"/>
<path d="M330.746 275.951H322.031V274.498H330.746V275.951ZM313.2 274.949C310.315 274.152 307.571 272.912 305.066 271.274L305.865 270.068C308.242 271.615 310.844 272.786 313.578 273.54L313.2 274.949ZM298.428 265.333C296.52 263.034 294.981 260.451 293.867 257.678L295.218 257.141C296.291 259.77 297.761 262.219 299.576 264.404L298.428 265.333ZM291.834 248.993C291.834 248.252 291.834 247.54 291.834 246.756C291.831 244.517 292.084 242.285 292.589 240.103L294.042 240.437C293.565 242.51 293.326 244.629 293.33 246.756C293.33 247.467 293.33 248.208 293.33 248.891L291.834 248.993ZM297.092 232.58L295.843 231.839C297.37 229.269 299.28 226.947 301.508 224.954L302.481 226.043C300.364 227.92 298.547 230.11 297.092 232.536V232.58ZM309.583 221.41L308.988 220.088C311.709 218.858 314.605 218.06 317.572 217.721L317.746 219.173C314.93 219.484 312.177 220.224 309.583 221.366V221.41ZM344.792 218.97H343.833V217.517H344.792C347.319 217.516 349.835 217.174 352.272 216.5L352.664 217.953C350.096 218.632 347.448 218.96 344.792 218.926V218.97ZM335.104 218.97H326.389V217.517H335.104V218.97ZM360.784 214.206L359.985 213C362.362 211.444 364.488 209.534 366.289 207.335L367.421 208.25C365.525 210.55 363.286 212.544 360.784 214.162V214.206ZM371.953 200.581L370.602 200.044C371.648 197.4 372.29 194.614 372.505 191.779L373.958 191.895C373.727 194.86 373.051 197.774 371.953 200.538V200.581ZM371.837 183.34C371.186 180.573 370.113 177.923 368.656 175.482L369.905 174.741C371.437 177.308 372.564 180.096 373.246 183.006L371.837 183.34ZM363.253 168.961C361.131 167.076 358.736 165.524 356.15 164.356L356.731 163.034C359.458 164.253 361.982 165.884 364.211 167.871L363.253 168.961ZM347.973 162.119C346.921 162.003 345.864 161.945 344.806 161.945H339.33V160.493H344.792C345.908 160.481 347.024 160.544 348.132 160.681L347.973 162.119ZM330.543 161.945H321.828V160.493H330.543V161.945ZM313.113 161.945H304.398V160.493H313.113V161.945ZM295.683 161.945H286.968V160.493H295.683V161.945ZM278.253 161.945H269.538V160.493H278.253V161.945ZM260.823 161.945H252.108V160.493H260.823V161.945ZM243.394 161.945H234.679V160.493H243.394V161.945ZM225.964 161.945H217.249V160.493H225.964V161.945Z" fill="#2C2A29"/>
<path d="M208.273 160.448H203.915V161.901H208.273V160.448Z" fill="#012C7A"/>
<path d="M170.086 192.476H168.866V196.121H170.086V192.476Z" fill="#012C7A"/>
<path d="M17.9092 433.676H16.7036V426.414H17.9092V433.676ZM17.9092 419.152H16.7036V411.889H17.9092V419.152ZM150.478 415.419C149.056 415.417 147.639 415.261 146.251 414.954L146.512 413.777C148.825 414.271 151.209 414.33 153.542 413.952L153.731 415.143C152.644 415.3 151.547 415.368 150.449 415.346L150.478 415.419ZM75.6165 415.419L75.5439 414.199C77.9013 414.053 80.2089 413.456 82.3415 412.441L82.8644 413.53C80.575 414.583 78.1044 415.184 75.5875 415.302L75.6165 415.419ZM68.1653 414.387C65.7754 413.593 63.5611 412.345 61.6436 410.713L62.4279 409.783C64.2252 411.318 66.3014 412.491 68.5429 413.24L68.1653 414.387ZM160.718 412.485L160.079 411.453C162.089 410.214 163.844 408.602 165.249 406.704L166.237 407.43C164.733 409.436 162.86 411.137 160.718 412.441V412.485ZM139.352 411.947C137.276 410.527 135.491 408.723 134.094 406.631L135.11 405.948C136.42 407.916 138.097 409.613 140.049 410.945L139.352 411.947ZM88.8341 409.042L87.9481 408.229C89.5408 406.482 90.7833 404.445 91.6084 402.23L92.7559 402.651C91.8616 404.983 90.5306 407.123 88.8341 408.955V409.042ZM56.9666 404.917C55.7905 402.688 55.0603 400.251 54.8169 397.742L56.0224 397.626C56.2533 399.977 56.939 402.261 58.0414 404.351L56.9666 404.917ZM17.9092 404.481H16.7036V397.219H17.9092V404.481ZM169.491 400.632L168.314 400.327C168.696 398.817 168.891 397.266 168.895 395.708V393.225H170.115V395.708C170.102 397.37 169.883 399.024 169.462 400.632H169.491ZM131.203 399.674C130.936 398.369 130.8 397.04 130.797 395.708V392.281H132.017V395.708C132.019 396.957 132.145 398.203 132.394 399.427L131.203 399.674ZM93.9614 395.2H92.7559V387.938H93.9614V395.2ZM55.9208 390.305H54.7007V383.043H55.9208V390.305ZM17.9092 389.884H16.7036V382.622H17.9092V389.884ZM170.115 385.933H168.895V378.671H170.115V385.933ZM132.06 384.975H130.84V379.833C130.845 379.139 130.806 378.445 130.724 377.756L131.929 377.61C132.016 378.348 132.06 379.09 132.06 379.833V384.975ZM94.005 380.617H92.7994V379.847C92.7954 377.596 93.1786 375.36 93.9324 373.238L95.0798 373.645C94.3666 375.635 94.003 377.733 94.005 379.847V380.617ZM54.323 375.882C53.8153 373.571 52.8632 371.381 51.5197 369.433L52.522 368.75C53.9274 370.83 54.9141 373.163 55.4269 375.62L54.323 375.882ZM18.4321 375.475L17.2556 375.185C17.8516 372.737 18.9171 370.429 20.3929 368.387L21.3661 369.099C19.9838 371.012 18.9782 373.171 18.403 375.461L18.4321 375.475ZM170.115 371.336H168.895V364.073H170.115V371.336ZM128.618 371.074C127.492 368.995 125.979 367.151 124.159 365.642L124.928 364.712C126.875 366.325 128.493 368.297 129.693 370.522L128.618 371.074ZM98.6675 367.617L97.7524 366.804C99.4263 364.919 101.448 363.376 103.708 362.258L104.245 363.347C102.116 364.386 100.212 365.832 98.6384 367.603L98.6675 367.617ZM46.5232 364.509C44.5597 363.196 42.3594 362.279 40.0451 361.807L40.292 360.616C42.7589 361.127 45.1024 362.113 47.1913 363.521L46.5232 364.509ZM26.4789 364.291L25.8398 363.26C27.9617 361.9 30.3308 360.972 32.8117 360.529L33.0296 361.735C30.6915 362.145 28.4563 363.008 26.4498 364.277L26.4789 364.291ZM117.986 362.287C116.191 361.717 114.32 361.428 112.437 361.43C111.9 361.43 111.478 361.43 110.985 361.43L110.897 360.21C111.391 360.21 111.9 360.21 112.35 360.21C114.359 360.21 116.357 360.513 118.276 361.11L117.986 362.287ZM170.115 356.738H168.895V349.476H170.115V356.738ZM170.115 342.141H168.895V334.878H170.115V342.141ZM170.115 327.543H168.895V320.281H170.115V327.543ZM170.115 313.018H168.895V305.756H170.115V313.018ZM170.115 298.421H168.895V291.158H170.115V298.421ZM170.115 283.809H168.895V276.546H170.115V283.809ZM170.115 269.284H168.895V262.021H170.115V269.284ZM170.115 254.686H168.895V247.424H170.115V254.686ZM170.115 240.089H168.895V232.826H170.115V240.089ZM170.115 225.564H168.895V218.302H170.115V225.564ZM170.115 210.967H168.895V203.704H170.115V210.967Z" fill="#012C7A"/>
<path d="M17.8949 441.127H16.6748V444.773H17.8949V441.127Z" fill="#012C7A"/>
<path d="M166.731 172.098C166.155 172.093 165.603 171.864 165.192 171.459L157.581 163.848C157.176 163.438 156.949 162.884 156.949 162.308C156.949 161.732 157.176 161.179 157.581 160.769C157.782 160.565 158.022 160.403 158.286 160.293C158.55 160.182 158.834 160.125 159.12 160.125C159.407 160.125 159.69 160.182 159.955 160.293C160.219 160.403 160.459 160.565 160.66 160.769L166.731 166.84L178.279 155.293C178.692 154.908 179.238 154.698 179.802 154.708C180.367 154.718 180.905 154.947 181.305 155.346C181.704 155.745 181.932 156.284 181.942 156.848C181.952 157.413 181.743 157.959 181.358 158.372L168.286 171.444C168.083 171.652 167.842 171.817 167.575 171.929C167.308 172.041 167.021 172.099 166.731 172.098Z" fill="white"/>
<path d="M439.857 215.556C438.404 222.818 435.238 237.343 440.293 242.209C440.293 242.209 438.317 249.471 424.911 249.471C410.154 249.471 417.852 242.209 417.852 242.209C425.913 240.292 425.695 234.322 424.301 228.715L439.857 215.556Z" fill="white"/>
<path d="M410.488 244.693C410.488 243.604 412.143 242.485 414.554 241.614C415.847 241.134 417.111 239.319 419.072 238.985C420.524 238.738 422.398 239.987 424.257 239.856C425.811 239.74 427.438 238.229 429.239 238.215C431.04 238.2 432.493 239.667 434.265 239.769C435.369 239.769 436.473 238.433 437.402 238.52C438.332 238.607 439.334 240.19 440.22 240.35C441.396 240.553 442.718 239.377 443.517 239.638C444.795 240.045 444.97 241.774 445.536 242.238C447.163 243.56 448.441 244.809 446.989 245.042C443.401 245.608 443.256 243.589 439.624 243.589C435.993 243.589 435.993 245.042 432.362 244.969C428.731 244.896 428.745 243.517 425.1 243.517C421.454 243.517 421.526 244.519 417.837 244.896C415.397 245.305 412.901 245.236 410.488 244.693Z" fill="#012C7A"/>
<g opacity="0.6">
<path d="M410.488 244.693C410.488 243.604 412.143 242.485 414.554 241.614C415.847 241.134 417.111 239.319 419.072 238.985C420.524 238.738 422.398 239.987 424.257 239.856C425.811 239.74 427.438 238.229 429.239 238.215C431.04 238.2 432.493 239.667 434.265 239.769C435.369 239.769 436.473 238.433 437.402 238.52C438.332 238.607 439.334 240.19 440.22 240.35C441.396 240.553 442.718 239.377 443.517 239.638C444.795 240.045 444.97 241.774 445.536 242.238C447.163 243.56 448.441 244.809 446.989 245.042C443.401 245.608 443.256 243.589 439.624 243.589C435.993 243.589 435.993 245.042 432.362 244.969C428.731 244.896 428.745 243.517 425.1 243.517C421.454 243.517 421.526 244.519 417.837 244.896C415.397 245.305 412.901 245.236 410.488 244.693Z" fill="#2C2A29"/>
</g>
<path d="M466.234 257.854C468.122 261.848 469.604 265.668 471.1 269.648C472.596 273.628 473.802 277.636 474.964 281.689C476.141 285.782 477.11 289.931 477.869 294.122C478.217 296.228 478.58 298.334 478.813 300.499C478.958 301.559 479.089 302.634 479.161 303.723L479.408 307.064C479.472 309.826 478.978 312.573 477.956 315.14C477.121 317.293 476.126 319.381 474.978 321.385C472.813 325.116 470.386 328.688 467.716 332.076C462.545 338.639 456.873 344.792 450.751 350.479L446.219 346.295C448.616 343.129 451.07 339.875 453.365 336.593C455.66 333.31 457.955 330.028 460.032 326.672C462.114 323.4 463.996 320.005 465.668 316.505C466.437 314.904 467.087 313.248 467.614 311.552C468.04 310.295 468.237 308.971 468.195 307.645L467.832 304.9C467.73 303.955 467.571 303.011 467.382 301.995C467.077 300.106 466.655 298.204 466.234 296.315C465.813 294.427 465.334 292.539 464.782 290.651C464.23 288.762 463.736 286.874 463.155 285.001C462.008 281.253 460.686 277.52 459.32 273.831C457.955 270.142 456.415 266.394 454.963 262.952L466.234 257.854Z" fill="white"/>
<path d="M461.281 244.984C466.336 246.088 471.724 264.273 471.724 264.273L451.825 276.968C451.825 276.968 445.58 262.443 447.991 256.11C450.518 249.574 455.311 243.677 461.281 244.984Z" fill="#012C7A"/>
<path opacity="0.6" d="M461.281 244.984C466.336 246.088 471.724 264.273 471.724 264.273L451.825 276.968C451.825 276.968 445.58 262.443 447.991 256.11C450.518 249.574 455.311 243.677 461.281 244.984Z" fill="white"/>
<path opacity="0.28" d="M458.579 251.171L451.782 276.851V276.967L459.741 271.883L458.579 251.171Z" fill="#012C7A"/>
<path d="M397.285 245.332C397.285 245.332 391.475 247.38 403.095 318.755H452.479C451.651 298.653 451.622 286.248 461.194 244.983C454.274 243.555 447.26 242.628 440.206 242.209C432.735 241.686 425.236 241.686 417.765 242.209C408.222 243.095 397.285 245.332 397.285 245.332Z" fill="#012C7A"/>
<path opacity="0.6" d="M397.285 245.332C397.285 245.332 391.475 247.38 403.095 318.755H452.479C451.651 298.653 451.622 286.248 461.194 244.983C454.274 243.555 447.26 242.628 440.206 242.209C432.735 241.686 425.236 241.686 417.765 242.209C408.222 243.095 397.285 245.332 397.285 245.332Z" fill="white"/>
<path d="M448.572 344.668L436.807 341.124L441.716 352.482C441.716 352.482 449.487 353.238 452.29 349.026L448.572 344.668Z" fill="white"/>
<path d="M427.278 344.871L431.897 354.152L441.716 352.511L436.807 341.152L427.278 344.871Z" fill="white"/>
<path d="M479.699 592.651H467.542L463.62 564.473H475.792L479.699 592.651Z" fill="white"/>
<path d="M424.417 592.651H412.26L411.447 564.473H423.604L424.417 592.651Z" fill="white"/>
<path d="M411.447 564.487L411.868 578.998H424.04L423.618 564.487H411.447Z" fill="white"/>
<path d="M475.792 564.487H463.62L465.639 578.998H477.811L475.792 564.487Z" fill="white"/>
<path d="M416.152 318.754C416.152 318.754 423.211 402.272 430.546 449.333C436.458 487.345 462.705 576.193 462.705 576.193H479.292C479.292 576.193 465.624 490.38 462.617 452.732C455.021 357.594 468.34 340.76 452.523 318.696L416.152 318.754Z" fill="#012C7A"/>
<path opacity="0.6" d="M416.152 318.754C416.152 318.754 423.211 402.272 430.546 449.333C436.458 487.345 462.705 576.193 462.705 576.193H479.292C479.292 576.193 465.624 490.38 462.617 452.732C455.021 357.594 468.34 340.76 452.523 318.696L416.152 318.754Z" fill="#2C2A29"/>
<path opacity="0.4" d="M431.229 351.61C431.229 351.61 424.432 372.788 424.533 403.333C425.71 413.661 426.959 423.915 428.237 433.414C432.13 424.554 439.291 398.729 431.229 351.61Z" fill="#2C2A29"/>
<path d="M403.109 318.756C403.109 318.756 393.508 412.485 394.307 449.581C395.135 488.174 409.282 576.195 409.282 576.195H425.724C425.724 576.195 423.124 490.498 424.577 452.53C426.16 411.207 439.29 318.756 439.29 318.756H403.109Z" fill="#012C7A"/>
<path opacity="0.6" d="M403.109 318.756C403.109 318.756 393.508 412.485 394.307 449.581C395.135 488.174 409.282 576.195 409.282 576.195H425.724C425.724 576.195 423.124 490.498 424.577 452.53C426.16 411.207 439.29 318.756 439.29 318.756H403.109Z" fill="#2C2A29"/>
<path d="M462.617 593.363C461.794 593.433 460.972 593.212 460.293 592.739C460.091 592.543 459.941 592.299 459.858 592.03C459.774 591.761 459.759 591.475 459.814 591.199C459.831 591.025 459.894 590.858 459.996 590.715C460.098 590.572 460.236 590.459 460.395 590.386C461.848 589.761 465.508 592.129 465.915 592.405C465.962 592.435 466 592.479 466.023 592.53C466.047 592.582 466.054 592.639 466.045 592.695C466.037 592.752 466.012 592.804 465.973 592.846C465.934 592.888 465.883 592.916 465.827 592.928C464.777 593.19 463.7 593.336 462.617 593.363ZM460.991 590.851C460.865 590.844 460.74 590.869 460.628 590.923C460.54 590.923 460.424 591.039 460.395 591.286C460.349 591.466 460.351 591.655 460.402 591.834C460.453 592.013 460.551 592.175 460.686 592.303C461.296 592.869 462.893 592.942 465.043 592.521C463.824 591.687 462.443 591.118 460.991 590.851Z" fill="#012C7A"/>
<path d="M465.754 592.942C465.712 592.954 465.666 592.954 465.624 592.942C464.462 592.288 462.254 589.659 462.515 588.294C462.561 588.068 462.683 587.864 462.86 587.717C463.036 587.569 463.258 587.486 463.489 587.48C463.708 587.448 463.933 587.467 464.144 587.534C464.356 587.602 464.549 587.718 464.709 587.872C466.03 589.034 466.045 592.549 466.045 592.695C466.046 592.745 466.033 592.795 466.007 592.838C465.981 592.882 465.944 592.918 465.9 592.942C465.852 592.956 465.802 592.956 465.754 592.942ZM463.692 588.003H463.561C463.198 588.003 463.111 588.207 463.082 588.337C462.922 589.18 464.302 591.155 465.449 592.07C465.484 590.711 465.093 589.376 464.331 588.25C464.157 588.089 463.929 588.001 463.692 588.003Z" fill="#012C7A"/>
<path d="M407.263 593.362C406.239 593.444 405.217 593.184 404.358 592.621C404.158 592.442 404.006 592.214 403.917 591.96C403.828 591.707 403.805 591.434 403.85 591.169C403.856 591.01 403.903 590.856 403.987 590.721C404.071 590.586 404.189 590.475 404.329 590.399C405.781 589.586 410.676 592.07 411.214 592.346C411.269 592.373 411.315 592.417 411.344 592.472C411.372 592.527 411.383 592.589 411.373 592.651C411.365 592.709 411.337 592.763 411.296 592.805C411.254 592.847 411.2 592.874 411.141 592.883C409.866 593.164 408.568 593.324 407.263 593.362ZM405.099 590.849C404.914 590.84 404.73 590.874 404.561 590.951C404.505 590.984 404.458 591.03 404.425 591.086C404.392 591.142 404.374 591.206 404.372 591.271C404.35 591.439 404.368 591.61 404.426 591.769C404.485 591.929 404.581 592.072 404.706 592.186C405.447 592.854 407.452 592.97 410.139 592.52C408.566 591.68 406.862 591.115 405.099 590.849Z" fill="#012C7A"/>
<path d="M411.039 592.941H410.923C409.471 592.288 406.566 589.659 406.827 588.279C406.827 587.959 407.118 587.552 407.916 587.465C408.203 587.437 408.493 587.468 408.768 587.555C409.042 587.642 409.296 587.785 409.514 587.974C411.039 589.237 411.315 592.52 411.33 592.651C411.333 592.7 411.324 592.75 411.304 592.796C411.284 592.841 411.253 592.881 411.214 592.912C411.16 592.941 411.099 592.951 411.039 592.941ZM408.134 588.003H407.96C407.437 588.003 407.394 588.264 407.379 588.337C407.248 589.165 409.195 591.242 410.676 592.113C410.554 590.734 410.012 589.426 409.122 588.366C408.85 588.135 408.506 588.006 408.149 588.003H408.134Z" fill="#012C7A"/>
<path d="M410.618 202.759C410.525 202.769 410.43 202.757 410.342 202.724C410.254 202.691 410.174 202.639 410.11 202.57C409.644 202.013 409.051 201.577 408.381 201.296C407.712 201.016 406.985 200.9 406.261 200.958C406.109 200.979 405.955 200.938 405.832 200.846C405.71 200.753 405.629 200.616 405.607 200.464C405.59 200.315 405.63 200.164 405.719 200.043C405.807 199.922 405.939 199.839 406.087 199.81C406.999 199.734 407.917 199.874 408.765 200.22C409.613 200.566 410.368 201.107 410.967 201.8C411.07 201.911 411.127 202.056 411.127 202.207C411.127 202.358 411.07 202.503 410.967 202.614C410.868 202.695 410.746 202.746 410.618 202.759Z" fill="black" fill-opacity="0.8"/>
<path d="M408.091 209.979C407.546 212.318 406.681 214.571 405.52 216.674C406.066 216.959 406.667 217.12 407.282 217.148C407.896 217.175 408.51 217.068 409.079 216.834L408.091 209.979Z" fill="white"/>
<path d="M408.73 208.134C408.861 209.107 408.468 209.964 407.829 210.051C407.19 210.138 406.566 209.426 406.377 208.468C406.188 207.509 406.638 206.623 407.277 206.536C407.917 206.449 408.628 207.219 408.73 208.134Z" fill="black" fill-opacity="0.8"/>
<path d="M407.612 206.682L405.186 206.348C405.186 206.348 406.639 207.916 407.612 206.682Z" fill="black" fill-opacity="0.8"/>
<path d="M466.728 591.241H480.396C480.63 591.236 480.857 591.318 481.034 591.471C481.211 591.624 481.326 591.837 481.354 592.069L482.923 602.89C482.951 603.164 482.922 603.441 482.836 603.703C482.751 603.965 482.611 604.206 482.426 604.41C482.241 604.615 482.015 604.777 481.763 604.888C481.51 604.999 481.238 605.056 480.962 605.055C476.198 604.967 473.903 604.691 467.89 604.691C464.2 604.691 458.797 605.069 453.684 605.069C448.572 605.069 448.31 600.014 450.431 599.564C459.974 597.516 461.47 594.684 464.694 591.982C465.263 591.503 465.984 591.241 466.728 591.241Z" fill="black" fill-opacity="0.8"/>
<path d="M411.839 591.241H425.507C425.741 591.239 425.969 591.321 426.148 591.473C426.327 591.625 426.445 591.837 426.48 592.069L428.034 602.89C428.062 603.163 428.033 603.439 427.949 603.7C427.864 603.961 427.725 604.201 427.542 604.405C427.358 604.609 427.134 604.772 426.884 604.884C426.633 604.996 426.362 605.054 426.088 605.054C421.323 604.967 419.029 604.691 413.015 604.691C409.311 604.691 401.671 605.069 396.559 605.069C391.446 605.069 391.184 600.014 393.305 599.564C402.833 597.516 406.595 594.684 409.805 591.982C410.377 591.507 411.096 591.245 411.839 591.241Z" fill="black" fill-opacity="0.8"/>
<path opacity="0.28" d="M395.861 256.864V257.155C396.006 265.274 397.125 278.942 400.495 301.92L407.379 274.948L395.861 256.864Z" fill="#012C7A"/>
<path d="M405.637 261.033C404.271 267.933 402.732 274.687 400.901 281.47C399.071 288.253 397.212 294.992 394.801 301.805L393.857 304.346L392.826 306.903C392.594 307.508 392.317 308.096 391.998 308.66C391.598 309.412 391.11 310.114 390.545 310.752C389.228 312.201 387.5 313.215 385.592 313.657C383.996 314.021 382.338 314.021 380.741 313.657C379.524 313.406 378.34 313.016 377.211 312.495C375.339 311.617 373.567 310.541 371.924 309.285C368.989 307.025 366.258 304.512 363.761 301.775C362.512 300.468 361.35 299.103 360.217 297.723C359.084 296.343 357.995 294.963 356.92 293.438L361.525 289.357C366.409 293.767 371.683 297.725 377.284 301.18C378.493 301.883 379.768 302.467 381.09 302.923C382.208 303.344 383.21 303.228 382.818 303.155C382.582 303.188 382.358 303.277 382.164 303.417L382.368 302.792L383.138 300.497L383.864 298.13C385.752 291.753 387.364 285.057 388.962 278.492L393.508 258.506L405.637 261.033Z" fill="white"/>
<path d="M357.298 294.048L350.645 284.636L359.694 283.938C359.694 283.938 364.807 289.836 363.006 294.571L357.298 294.048Z" fill="white"/>
<path d="M356.746 282.211L358.663 281.034L359.549 276.575L361.016 278.405L362.105 288.878L356.746 282.211Z" fill="white"/>
<path d="M440.903 200.174C441.891 212.201 442.559 217.27 437.417 224.271C429.675 234.772 414.671 233.349 410.125 221.845C406.014 211.489 405.099 193.551 416.109 187.131C418.526 185.702 421.269 184.915 424.076 184.845C426.883 184.775 429.661 185.425 432.146 186.732C434.631 188.04 436.741 189.961 438.273 192.314C439.806 194.667 440.711 197.373 440.903 200.174Z" fill="white"/>
<path d="M414.017 185.78C411.557 186.815 409.542 188.685 408.327 191.061C407.112 193.437 406.777 196.166 407.379 198.766C407.379 198.766 416.835 194.684 417.212 209.834C417.488 220.771 409.95 235.528 409.95 235.528C409.95 235.528 427.481 239.159 452.711 231.432C463.445 228.15 458.608 163.717 414.017 185.78Z" fill="#2C2A29"/>
<path d="M413.117 192.476C411.403 196.601 411.853 204.764 418.607 203.892C425.361 203.021 423.386 196.208 423.386 196.208L413.117 192.476Z" fill="black" fill-opacity="0.8"/>
<path d="M420.64 208.773C420.711 211.108 419.861 213.378 418.273 215.092C416.152 217.328 413.494 215.818 412.768 212.971C412.1 210.429 412.405 206.173 415.179 204.982C415.791 204.733 416.455 204.64 417.111 204.712C417.768 204.785 418.396 205.02 418.938 205.396C419.481 205.773 419.921 206.279 420.218 206.869C420.515 207.458 420.66 208.113 420.64 208.773Z" fill="white"/>
<path d="M480.527 576.732H461.572L459.553 570.123L481.18 570.631L480.527 576.732Z" fill="#012C7A"/>
<path d="M446.538 321.428H447.846C448.122 321.428 448.325 321.297 448.296 321.123L447.671 315.313C447.671 315.153 447.424 315.008 447.148 315.008H445.812C445.551 315.008 445.347 315.153 445.362 315.313L445.986 321.123C446.044 321.326 446.277 321.428 446.538 321.428Z" fill="#012C7A"/>
<path d="M414.061 321.428H415.397C415.659 321.428 415.862 321.297 415.847 321.123L415.223 315.313C415.223 315.153 414.961 315.008 414.7 315.008H413.364C413.088 315.008 412.884 315.153 412.913 315.313L413.538 321.123C413.552 321.326 413.785 321.428 414.061 321.428Z" fill="#012C7A"/>
<path d="M426.988 576.732H408.019L406.653 571.082L427.7 570.123L426.988 576.732Z" fill="#012C7A"/>
<path d="M453.264 315.864L455.486 320.222C455.66 320.57 455.253 320.919 454.687 320.919H402.819C402.368 320.919 402.005 320.701 401.976 320.425L401.526 316.068C401.526 315.763 401.889 315.501 402.368 315.501H452.407C452.569 315.48 452.734 315.502 452.885 315.566C453.035 315.63 453.166 315.733 453.264 315.864Z" fill="#012C7A"/>
<path opacity="0.1" d="M453.264 315.864L455.486 320.222C455.66 320.57 455.253 320.919 454.687 320.919H402.819C402.368 320.919 402.005 320.701 401.976 320.425L401.526 316.068C401.526 315.763 401.889 315.501 402.368 315.501H452.407C452.569 315.48 452.734 315.502 452.885 315.566C453.035 315.63 453.166 315.733 453.264 315.864Z" fill="#2C2A29"/>
<path opacity="0.6" d="M446.538 321.428H447.846C448.122 321.428 448.325 321.297 448.296 321.123L447.671 315.313C447.671 315.153 447.424 315.008 447.148 315.008H445.812C445.551 315.008 445.347 315.153 445.362 315.313L445.986 321.123C446.044 321.326 446.277 321.428 446.538 321.428Z" fill="#2C2A29"/>
<path opacity="0.6" d="M414.061 321.428H415.397C415.659 321.428 415.862 321.297 415.847 321.123L415.223 315.313C415.223 315.153 414.961 315.008 414.7 315.008H413.364C413.088 315.008 412.884 315.153 412.913 315.313L413.538 321.123C413.552 321.326 413.785 321.428 414.061 321.428Z" fill="#2C2A29"/>
<path d="M397.285 245.332C392.273 246.61 388.773 267.25 388.773 267.25L408.12 280.395C408.12 280.395 415.891 255.819 411.984 250.256C407.96 244.562 404.605 243.473 397.285 245.332Z" fill="#012C7A"/>
<path opacity="0.6" d="M397.285 245.332C392.273 246.61 388.773 267.25 388.773 267.25L408.12 280.395C408.12 280.395 415.891 255.819 411.984 250.256C407.96 244.562 404.605 243.473 397.285 245.332Z" fill="white"/>
<path d="M122.866 511.457C122.873 511.409 122.873 511.36 122.866 511.312C123.272 508.973 123.621 506.62 123.911 504.238C128.022 508.813 131.595 509.975 134.152 509.975C134.422 509.991 134.694 509.991 134.965 509.975C139.976 509.482 144.203 504.572 146.294 496.903C146.336 496.751 146.344 496.592 146.319 496.437C146.294 496.282 146.236 496.134 146.149 496.003C145.969 495.727 145.696 495.526 145.379 495.436C141.829 494.465 138.108 494.293 134.484 494.934C130.859 495.574 127.422 497.011 124.42 499.14C124.594 496.903 124.696 494.666 124.725 492.415C125.535 492.557 126.357 492.63 127.18 492.633C135.459 492.633 140.586 485.269 140.833 484.906C140.926 484.765 140.982 484.604 140.997 484.437C141.012 484.27 140.986 484.102 140.92 483.947C140.853 483.778 140.751 483.624 140.621 483.497C140.491 483.369 140.335 483.27 140.165 483.206C134.994 481.26 130.796 481.086 127.702 482.712C125.734 483.783 124.221 485.533 123.447 487.636C121.259 482.87 117.945 478.706 113.79 475.505C109.635 472.304 104.764 470.162 99.5968 469.262C99.4491 469.227 99.2952 469.228 99.1477 469.264C99.0002 469.3 98.8633 469.37 98.7485 469.47C98.6336 469.569 98.5439 469.694 98.4869 469.835C98.4298 469.976 98.407 470.128 98.4203 470.279C98.9432 477.788 100.338 486.954 106.525 491.34C109.001 493.036 111.95 493.906 114.95 493.824C117.515 493.768 120.061 493.362 122.517 492.618C122.388 497.97 121.903 503.308 121.065 508.596C117.622 504.688 108.864 496.003 96.9097 493.01C96.7768 492.969 96.6365 492.957 96.4985 492.975C96.3605 492.994 96.2282 493.042 96.1107 493.117C95.9932 493.191 95.8934 493.291 95.8182 493.408C95.7429 493.525 95.6941 493.657 95.6751 493.795C94.7891 500.258 96.3287 505.502 100.105 508.959C103.243 511.864 107.745 513.316 113.178 513.316C115.588 513.294 117.991 513.041 120.353 512.561C119.539 516.991 118.537 521.276 117.448 525.459C113.686 522.467 102.807 514.899 92.4361 518.051C92.299 518.096 92.1741 518.172 92.0709 518.273C91.9676 518.373 91.8888 518.496 91.8405 518.632C91.7909 518.778 91.7731 518.932 91.7881 519.085C91.8031 519.238 91.8507 519.385 91.9277 519.518C95.7623 526.665 99.5968 530.63 103.969 532.01C105.107 532.364 106.292 532.545 107.484 532.547C110.568 532.419 113.568 531.504 116.199 529.889C114.557 535.379 112.756 540.492 110.984 545.053C108.021 542.286 104.413 540.305 100.488 539.29C96.5635 538.275 92.447 538.259 88.5144 539.243C88.39 539.27 88.2724 539.322 88.1687 539.396C88.065 539.47 87.9772 539.564 87.9107 539.672C87.8443 539.781 87.8004 539.902 87.7818 540.028C87.7633 540.154 87.7703 540.282 87.8026 540.405C88.411 542.76 89.5602 544.94 91.1587 546.773C92.7573 548.607 94.7612 550.042 97.0114 550.965C98.6555 551.645 100.417 551.996 102.197 551.996C104.551 551.978 106.861 551.358 108.907 550.195C106.591 555.853 103.978 561.385 101.078 566.768C100.955 567.036 100.936 567.341 101.024 567.623C101.113 567.905 101.303 568.143 101.558 568.293C101.748 568.417 101.97 568.482 102.197 568.482C102.366 568.487 102.533 568.446 102.682 568.365C102.83 568.283 102.953 568.163 103.039 568.017C106.555 561.426 109.683 554.637 112.408 547.682C112.464 547.571 112.508 547.454 112.538 547.333C113.081 545.968 113.618 544.559 114.151 543.107C117.651 547.145 121.907 549.381 126.177 549.381C126.642 549.381 127.092 549.381 127.557 549.381C129.924 549.145 132.16 548.18 133.955 546.619C135.75 545.058 137.017 542.978 137.579 540.667C137.62 540.406 137.578 540.139 137.458 539.904C137.338 539.67 137.146 539.479 136.911 539.359C133.709 537.564 130.127 536.553 126.458 536.409C122.79 536.265 119.14 536.993 115.807 538.531C116.954 535.205 118.072 531.676 119.104 528.015C119.196 527.867 119.246 527.696 119.249 527.522C119.525 526.49 119.815 525.459 120.077 524.399C124.275 528.959 128.153 531.196 131.886 531.196C136.417 531.196 140.601 527.841 144.624 521.029C144.733 520.776 144.75 520.492 144.673 520.227C144.597 519.962 144.43 519.732 144.203 519.576C135.764 513.767 125.669 517.732 121.166 520.056C121.805 517.335 122.367 514.565 122.851 511.748L122.866 511.457Z" fill="#012C7A"/>
<path opacity="0.3" d="M122.866 511.457C122.873 511.409 122.873 511.36 122.866 511.312C123.272 508.973 123.621 506.62 123.911 504.238C128.022 508.813 131.595 509.975 134.152 509.975C134.422 509.991 134.694 509.991 134.965 509.975C139.976 509.482 144.203 504.572 146.294 496.903C146.336 496.751 146.344 496.592 146.319 496.437C146.294 496.282 146.236 496.134 146.149 496.003C145.969 495.727 145.696 495.526 145.379 495.436C141.829 494.465 138.108 494.293 134.484 494.934C130.859 495.574 127.422 497.011 124.42 499.14C124.594 496.903 124.696 494.666 124.725 492.415C125.535 492.557 126.357 492.63 127.18 492.633C135.459 492.633 140.586 485.269 140.833 484.906C140.926 484.765 140.982 484.604 140.997 484.437C141.012 484.27 140.986 484.102 140.92 483.947C140.853 483.778 140.751 483.624 140.621 483.497C140.491 483.369 140.335 483.27 140.165 483.206C134.994 481.26 130.796 481.086 127.702 482.712C125.734 483.783 124.221 485.533 123.447 487.636C121.259 482.87 117.945 478.706 113.79 475.505C109.635 472.304 104.764 470.162 99.5968 469.262C99.4491 469.227 99.2952 469.228 99.1477 469.264C99.0002 469.3 98.8633 469.37 98.7485 469.47C98.6336 469.569 98.5439 469.694 98.4869 469.835C98.4298 469.976 98.407 470.128 98.4203 470.279C98.9432 477.788 100.338 486.954 106.525 491.34C109.001 493.036 111.95 493.906 114.95 493.824C117.515 493.768 120.061 493.362 122.517 492.618C122.388 497.97 121.903 503.308 121.065 508.596C117.622 504.688 108.864 496.003 96.9097 493.01C96.7768 492.969 96.6365 492.957 96.4985 492.975C96.3605 492.994 96.2282 493.042 96.1107 493.117C95.9932 493.191 95.8934 493.291 95.8182 493.408C95.7429 493.525 95.6941 493.657 95.6751 493.795C94.7891 500.258 96.3287 505.502 100.105 508.959C103.243 511.864 107.745 513.316 113.178 513.316C115.588 513.294 117.991 513.041 120.353 512.561C119.539 516.991 118.537 521.276 117.448 525.459C113.686 522.467 102.807 514.899 92.4361 518.051C92.299 518.096 92.1741 518.172 92.0709 518.273C91.9676 518.373 91.8888 518.496 91.8405 518.632C91.7909 518.778 91.7731 518.932 91.7881 519.085C91.8031 519.238 91.8507 519.385 91.9277 519.518C95.7623 526.665 99.5968 530.63 103.969 532.01C105.107 532.364 106.292 532.545 107.484 532.547C110.568 532.419 113.568 531.504 116.199 529.889C114.557 535.379 112.756 540.492 110.984 545.053C108.021 542.286 104.413 540.305 100.488 539.29C96.5635 538.275 92.447 538.259 88.5144 539.243C88.39 539.27 88.2724 539.322 88.1687 539.396C88.065 539.47 87.9772 539.564 87.9107 539.672C87.8443 539.781 87.8004 539.902 87.7818 540.028C87.7633 540.154 87.7703 540.282 87.8026 540.405C88.411 542.76 89.5602 544.94 91.1587 546.773C92.7573 548.607 94.7612 550.042 97.0114 550.965C98.6555 551.645 100.417 551.996 102.197 551.996C104.551 551.978 106.861 551.358 108.907 550.195C106.591 555.853 103.978 561.385 101.078 566.768C100.955 567.036 100.936 567.341 101.024 567.623C101.113 567.905 101.303 568.143 101.558 568.293C101.748 568.417 101.97 568.482 102.197 568.482C102.366 568.487 102.533 568.446 102.682 568.365C102.83 568.283 102.953 568.163 103.039 568.017C106.555 561.426 109.683 554.637 112.408 547.682C112.464 547.571 112.508 547.454 112.538 547.333C113.081 545.968 113.618 544.559 114.151 543.107C117.651 547.145 121.907 549.381 126.177 549.381C126.642 549.381 127.092 549.381 127.557 549.381C129.924 549.145 132.16 548.18 133.955 546.619C135.75 545.058 137.017 542.978 137.579 540.667C137.62 540.406 137.578 540.139 137.458 539.904C137.338 539.67 137.146 539.479 136.911 539.359C133.709 537.564 130.127 536.553 126.458 536.409C122.79 536.265 119.14 536.993 115.807 538.531C116.954 535.205 118.072 531.676 119.104 528.015C119.196 527.867 119.246 527.696 119.249 527.522C119.525 526.49 119.815 525.459 120.077 524.399C124.275 528.959 128.153 531.196 131.886 531.196C136.417 531.196 140.601 527.841 144.624 521.029C144.733 520.776 144.75 520.492 144.673 520.227C144.597 519.962 144.43 519.732 144.203 519.576C135.764 513.767 125.669 517.732 121.166 520.056C121.805 517.335 122.367 514.565 122.851 511.748L122.866 511.457Z" fill="#012C7A"/>
<path d="M70.1988 540.899C71.7648 541.39 73.3944 541.65 75.0356 541.669C77.1193 541.659 79.1769 541.204 81.0708 540.335C82.9648 539.467 84.6515 538.203 86.0181 536.631C87.3848 535.058 88.4 533.211 88.9959 531.214C89.5917 529.218 89.7545 527.117 89.4733 525.052C89.4244 524.826 89.2931 524.627 89.1052 524.493C88.9172 524.358 88.686 524.299 88.4566 524.326C84.4417 524.77 80.5758 526.102 77.1391 528.225C73.7025 530.347 70.7811 533.208 68.5866 536.599C66.7564 531.574 65.0425 526.229 63.6045 520.695C65.9518 522.083 68.607 522.866 71.3318 522.975C72.4517 522.979 73.565 522.802 74.6289 522.452C80.2791 520.578 84.1572 513.839 87.5125 506.823C87.5731 506.696 87.6046 506.557 87.6046 506.417C87.6046 506.276 87.5731 506.137 87.5125 506.01C87.463 505.884 87.3848 505.771 87.2839 505.68C87.183 505.589 87.0624 505.523 86.9315 505.487C75.8781 502.335 65.8268 513.142 62.6604 517.005C61.5513 512.32 60.6979 507.578 60.104 502.8C62.4455 503.248 64.8229 503.481 67.2067 503.497C73.0167 503.497 77.6065 501.958 80.7148 498.922C84.4042 495.334 85.6678 489.96 84.3896 483.395C84.365 483.268 84.3138 483.148 84.2393 483.042C84.1649 482.937 84.069 482.848 83.9579 482.782C83.8467 482.716 83.7229 482.675 83.5945 482.66C83.4662 482.646 83.3362 482.658 83.2131 482.698C71.4189 485.835 63.0962 494.608 59.6973 498.762C59.6973 497.905 59.5521 497.048 59.494 496.191C59.4764 495.976 59.3898 495.772 59.2471 495.61C58.9527 494.001 58.3015 492.478 57.3413 491.153C56.3812 489.829 55.1364 488.736 53.6986 487.956C50.474 486.358 46.2183 486.59 41.0765 488.638C40.9243 488.697 40.7869 488.789 40.674 488.907C40.5611 489.025 40.4753 489.166 40.4228 489.321C40.3708 489.471 40.3556 489.63 40.3783 489.787C40.4011 489.944 40.4612 490.093 40.5536 490.222C40.815 490.57 46.3635 497.862 54.6717 497.862C55.5688 497.859 56.4637 497.771 57.3443 497.6C57.5186 499.963 57.7655 502.33 58.0851 504.703C54.9548 502.575 51.3973 501.156 47.6616 500.547C43.9258 499.937 40.102 500.151 36.4575 501.173C36.3139 501.209 36.1791 501.274 36.0616 501.363C35.9442 501.453 35.8466 501.567 35.7749 501.696C35.702 501.82 35.6554 501.957 35.6379 502.1C35.6204 502.242 35.6324 502.386 35.6732 502.524C38.2441 510.338 42.8194 515.262 47.9322 515.684C48.1643 515.699 48.3972 515.699 48.6294 515.684C51.2439 515.684 54.8606 514.493 58.7968 509.67C59.7592 515.105 61.0199 520.482 62.5733 525.778C57.8963 523.483 47.3222 519.533 39.043 525.546C38.926 525.62 38.8249 525.716 38.7454 525.829C38.6659 525.943 38.6097 526.07 38.58 526.206C38.5503 526.341 38.5477 526.48 38.5723 526.616C38.5969 526.753 38.6483 526.882 38.7234 526.998C43.1826 533.869 47.5691 537.166 52.1299 537.166H52.2461C56.0371 537.166 59.8571 534.798 63.866 530.078C65.5073 535.249 67.3084 540.158 69.153 544.719C64.5632 541.712 59.189 542.192 52.5656 546.171C52.4221 546.263 52.2998 546.384 52.2071 546.527C52.1144 546.67 52.0534 546.831 52.0282 546.999C52.0105 547.158 52.0331 547.318 52.0941 547.465C52.155 547.613 52.2523 547.742 52.3768 547.842C52.7109 548.103 58.361 552.359 64.6794 552.359C67.1054 552.382 69.4829 551.679 71.5061 550.34C75.0808 558.649 79.2003 566.714 83.8377 574.48C83.9304 574.626 84.0595 574.746 84.2122 574.828C84.3649 574.909 84.5361 574.949 84.7092 574.945C84.943 574.947 85.1715 574.876 85.3628 574.742C85.6181 574.585 85.802 574.335 85.8752 574.044C85.9485 573.754 85.9054 573.447 85.755 573.188C79.6752 562.879 74.4716 552.078 70.1988 540.899Z" fill="#012C7A"/>
<path opacity="0.5" d="M70.1988 540.899C71.7648 541.39 73.3944 541.65 75.0356 541.669C77.1193 541.659 79.1769 541.204 81.0708 540.335C82.9648 539.467 84.6515 538.203 86.0181 536.631C87.3848 535.058 88.4 533.211 88.9959 531.214C89.5917 529.218 89.7545 527.117 89.4733 525.052C89.4244 524.826 89.2931 524.627 89.1052 524.493C88.9172 524.358 88.686 524.299 88.4566 524.326C84.4417 524.77 80.5758 526.102 77.1391 528.225C73.7025 530.347 70.7811 533.208 68.5866 536.599C66.7564 531.574 65.0425 526.229 63.6045 520.695C65.9518 522.083 68.607 522.866 71.3318 522.975C72.4517 522.979 73.565 522.802 74.6289 522.452C80.2791 520.578 84.1572 513.839 87.5125 506.823C87.5731 506.696 87.6046 506.557 87.6046 506.417C87.6046 506.276 87.5731 506.137 87.5125 506.01C87.463 505.884 87.3848 505.771 87.2839 505.68C87.183 505.589 87.0624 505.523 86.9315 505.487C75.8781 502.335 65.8268 513.142 62.6604 517.005C61.5513 512.32 60.6979 507.578 60.104 502.8C62.4455 503.248 64.8229 503.481 67.2067 503.497C73.0167 503.497 77.6065 501.958 80.7148 498.922C84.4042 495.334 85.6678 489.96 84.3896 483.395C84.365 483.268 84.3138 483.148 84.2393 483.042C84.1649 482.937 84.069 482.848 83.9579 482.782C83.8467 482.716 83.7229 482.675 83.5945 482.66C83.4662 482.646 83.3362 482.658 83.2131 482.698C71.4189 485.835 63.0962 494.608 59.6973 498.762C59.6973 497.905 59.5521 497.048 59.494 496.191C59.4764 495.976 59.3898 495.772 59.2471 495.61C58.9527 494.001 58.3015 492.478 57.3413 491.153C56.3812 489.829 55.1364 488.736 53.6986 487.956C50.474 486.358 46.2183 486.59 41.0765 488.638C40.9243 488.697 40.7869 488.789 40.674 488.907C40.5611 489.025 40.4753 489.166 40.4228 489.321C40.3708 489.471 40.3556 489.63 40.3783 489.787C40.4011 489.944 40.4612 490.093 40.5536 490.222C40.815 490.57 46.3635 497.862 54.6717 497.862C55.5688 497.859 56.4637 497.771 57.3443 497.6C57.5186 499.963 57.7655 502.33 58.0851 504.703C54.9548 502.575 51.3973 501.156 47.6616 500.547C43.9258 499.937 40.102 500.151 36.4575 501.173C36.3139 501.209 36.1791 501.274 36.0616 501.363C35.9442 501.453 35.8466 501.567 35.7749 501.696C35.702 501.82 35.6554 501.957 35.6379 502.1C35.6204 502.242 35.6324 502.386 35.6732 502.524C38.2441 510.338 42.8194 515.262 47.9322 515.684C48.1643 515.699 48.3972 515.699 48.6294 515.684C51.2439 515.684 54.8606 514.493 58.7968 509.67C59.7592 515.105 61.0199 520.482 62.5733 525.778C57.8963 523.483 47.3222 519.533 39.043 525.546C38.926 525.62 38.8249 525.716 38.7454 525.829C38.6659 525.943 38.6097 526.07 38.58 526.206C38.5503 526.341 38.5477 526.48 38.5723 526.616C38.5969 526.753 38.6483 526.882 38.7234 526.998C43.1826 533.869 47.5691 537.166 52.1299 537.166H52.2461C56.0371 537.166 59.8571 534.798 63.866 530.078C65.5073 535.249 67.3084 540.158 69.153 544.719C64.5632 541.712 59.189 542.192 52.5656 546.171C52.4221 546.263 52.2998 546.384 52.2071 546.527C52.1144 546.67 52.0534 546.831 52.0282 546.999C52.0105 547.158 52.0331 547.318 52.0941 547.465C52.155 547.613 52.2523 547.742 52.3768 547.842C52.7109 548.103 58.361 552.359 64.6794 552.359C67.1054 552.382 69.4829 551.679 71.5061 550.34C75.0808 558.649 79.2003 566.714 83.8377 574.48C83.9304 574.626 84.0595 574.746 84.2122 574.828C84.3649 574.909 84.5361 574.949 84.7092 574.945C84.943 574.947 85.1715 574.876 85.3628 574.742C85.6181 574.585 85.802 574.335 85.8752 574.044C85.9485 573.754 85.9054 573.447 85.755 573.188C79.6752 562.879 74.4716 552.078 70.1988 540.899Z" fill="white"/>
<path d="M110.142 599.203H75.5441L72.9297 563.428H112.757L110.142 599.203Z" fill="#2C2A29"/>
<path d="M115.328 561.016H70.3442V567.072H115.328V561.016Z" fill="#2C2A29"/>
<path d="M94.8909 387.617H15.0186C9.41133 387.617 4.86572 392.163 4.86572 397.77V589.048C4.86572 594.655 9.41133 599.201 15.0186 599.201H94.8909C100.498 599.201 105.044 594.655 105.044 589.048V397.77C105.044 392.163 100.498 387.617 94.8909 387.617Z" fill="#2C2A29"/>
<path opacity="0.6" d="M94.8909 387.617H15.0186C9.41133 387.617 4.86572 392.163 4.86572 397.77V589.048C4.86572 594.655 9.41133 599.201 15.0186 599.201H94.8909C100.498 599.201 105.044 594.655 105.044 589.048V397.77C105.044 392.163 100.498 387.617 94.8909 387.617Z" fill="#2C2A29"/>
<path d="M90.0252 387.617H10.1529C4.54561 387.617 0 392.163 0 397.77V589.048C0 594.655 4.54561 599.201 10.1529 599.201H90.0252C95.6324 599.201 100.178 594.655 100.178 589.048V397.77C100.178 392.163 95.6324 387.617 90.0252 387.617Z" fill="#2C2A29"/>
<path opacity="0.3" d="M90.0252 387.617H10.1529C4.54561 387.617 0 392.163 0 397.77V589.048C0 594.655 4.54561 599.201 10.1529 599.201H90.0252C95.6324 599.201 100.178 594.655 100.178 589.048V397.77C100.178 392.163 95.6324 387.617 90.0252 387.617Z" fill="#2C2A29"/>
<path d="M100.178 399.267H0V581.089H100.178V399.267Z" fill="#F8FDF8"/>
<path opacity="0.18" d="M100.236 398.889H0.0578613V580.711H100.236V398.889Z" fill="#2C2A29"/>
<path opacity="0.4" d="M36.3559 399.281L3.86377 581.104H36.0364L68.543 399.281H36.3559Z" fill="white"/>
<path opacity="0.4" d="M76.3864 399.281L43.8943 581.104H59.9878L92.48 399.281H76.3864Z" fill="white"/>
<path d="M54.6136 589.513C54.6136 590.407 54.3486 591.28 53.8523 592.023C53.3559 592.766 52.6504 593.345 51.825 593.687C50.9996 594.029 50.0913 594.118 49.2151 593.944C48.3388 593.769 47.5339 593.339 46.9022 592.708C46.2704 592.076 45.8402 591.271 45.6659 590.395C45.4916 589.518 45.5811 588.61 45.923 587.785C46.2649 586.959 46.8438 586.254 47.5867 585.757C48.3296 585.261 49.2029 584.996 50.0963 584.996C51.2944 584.996 52.4434 585.472 53.2905 586.319C54.1377 587.166 54.6136 588.315 54.6136 589.513Z" fill="#2C2A29"/>
<path opacity="0.5" d="M54.6136 589.513C54.6136 590.407 54.3486 591.28 53.8523 592.023C53.3559 592.766 52.6504 593.345 51.825 593.687C50.9996 594.029 50.0913 594.118 49.2151 593.944C48.3388 593.769 47.5339 593.339 46.9022 592.708C46.2704 592.076 45.8402 591.271 45.6659 590.395C45.4916 589.518 45.5811 588.61 45.923 587.785C46.2649 586.959 46.8438 586.254 47.5867 585.757C48.3296 585.261 49.2029 584.996 50.0963 584.996C51.2944 584.996 52.4434 585.472 53.2905 586.319C54.1377 587.166 54.6136 588.315 54.6136 589.513Z" fill="#2C2A29"/>
<path d="M61.9342 394.575C62.8166 394.575 63.5319 393.86 63.5319 392.978C63.5319 392.095 62.8166 391.38 61.9342 391.38C61.0518 391.38 60.3364 392.095 60.3364 392.978C60.3364 393.86 61.0518 394.575 61.9342 394.575Z" fill="#2C2A29"/>
<path d="M55.4126 394.575H38.2442C37.8205 394.575 37.4141 394.407 37.1144 394.107C36.8148 393.808 36.6465 393.401 36.6465 392.978C36.6503 392.555 36.8198 392.151 37.1186 391.852C37.4175 391.553 37.8216 391.384 38.2442 391.38H55.3981C55.8207 391.384 56.2249 391.553 56.5237 391.852C56.8225 392.151 56.992 392.555 56.9958 392.978C56.9959 393.399 56.8295 393.803 56.533 394.102C56.2365 394.401 55.8338 394.571 55.4126 394.575Z" fill="#2C2A29"/>
<path opacity="0.5" d="M61.9342 394.575C62.8166 394.575 63.5319 393.86 63.5319 392.978C63.5319 392.095 62.8166 391.38 61.9342 391.38C61.0518 391.38 60.3364 392.095 60.3364 392.978C60.3364 393.86 61.0518 394.575 61.9342 394.575Z" fill="#2C2A29"/>
<path opacity="0.5" d="M55.4126 394.575H38.2442C37.8205 394.575 37.4141 394.407 37.1144 394.107C36.8148 393.808 36.6465 393.401 36.6465 392.978C36.6503 392.555 36.8198 392.151 37.1186 391.852C37.4175 391.553 37.8216 391.384 38.2442 391.38H55.3981C55.8207 391.384 56.2249 391.553 56.5237 391.852C56.8225 392.151 56.992 392.555 56.9958 392.978C56.9959 393.399 56.8295 393.803 56.533 394.102C56.2365 394.401 55.8338 394.571 55.4126 394.575Z" fill="#2C2A29"/>
</svg>
