<svg width="620" height="556" viewBox="0 0 620 556" fill="none" xmlns="http://www.w3.org/2000/svg">
<path d="M586.993 279.621C586.993 279.621 586.993 271.829 576.085 261.029C565.176 250.23 558.257 243.965 558.257 243.965C558.257 243.965 552.833 261.793 562.932 272.655C570.345 280.283 578.383 287.279 586.962 293.568L586.993 279.621Z" fill="#012C7A"/>
<path d="M571.254 328.024C571.254 328.024 571.254 320.232 560.345 309.432C549.436 298.633 542.548 292.368 542.548 292.368C542.548 292.368 537.11 310.196 547.223 321.058C554.637 328.687 562.675 335.682 571.254 341.972L571.254 328.024Z" fill="#012C7A"/>
<path d="M586.307 292.821C586.307 292.821 587.133 285.122 599.07 275.476C611.008 265.829 618.597 260.406 618.597 260.406C618.597 260.406 622.103 278.702 610.945 288.457C602.768 295.262 594.037 301.371 584.842 306.721L586.307 292.821Z" fill="#012C7A"/>
<path d="M567.295 349.981C567.295 349.981 568.854 342.408 581.804 334.07C594.754 325.733 602.795 321.136 602.795 321.136C602.795 321.136 604.354 339.712 592.245 348.205C583.398 354.114 574.072 359.275 564.366 363.633L567.295 349.981Z" fill="#012C7A"/>
<path d="M570.864 412.317C570.864 412.317 570.864 404.525 581.772 393.71C592.681 382.895 599.585 376.661 599.585 376.661C599.585 376.661 605.024 394.489 594.91 405.335C587.499 412.972 579.461 419.973 570.879 426.264L570.864 412.317Z" fill="#012C7A"/>
<path d="M570.692 427.527C570.692 427.527 571.783 419.86 562.588 407.58C553.394 395.3 547.363 388.162 547.363 388.162C547.363 388.162 539.462 405.039 547.893 417.21C554.143 425.818 561.102 433.887 568.697 441.334L570.692 427.527Z" fill="#012C7A"/>
<path d="M559.986 472.611C559.986 472.611 559.986 464.819 570.895 454.019C581.804 443.22 588.723 436.955 588.723 436.955C588.723 436.955 594.146 454.783 584.048 465.645C576.632 473.276 568.595 480.277 560.017 486.574L559.986 472.611Z" fill="#012C7A"/>
<path d="M567.233 513.487C567.233 513.487 565.269 505.992 573.015 492.745C580.76 479.499 585.949 471.738 585.949 471.738C585.949 471.738 595.705 487.603 588.708 500.662C583.473 509.92 577.473 518.725 570.771 526.983L567.233 513.487Z" fill="#012C7A"/>
<path d="M587.975 277.643C587.429 285.711 586.441 293.744 585.014 301.704C580.713 323.864 569.991 338.17 565.705 358.18C561.42 378.189 573.731 403.981 570.38 429.694C567.03 455.407 557.088 469.698 559.939 486.856C562.791 504.013 577.814 550.484 577.814 550.484" stroke="black" stroke-opacity="0.8" stroke-linecap="round" stroke-linejoin="round"/>
<path d="M586.214 297.978L597.902 289.002" stroke="black" stroke-opacity="0.8" stroke-linecap="round" stroke-linejoin="round"/>
<path d="M586.759 287.646L581.851 278.935" stroke="black" stroke-opacity="0.8" stroke-linecap="round" stroke-linejoin="round"/>
<path d="M566.36 357.259C566.36 357.259 576.147 349.919 586.214 342.579" stroke="black" stroke-opacity="0.8" stroke-linecap="round" stroke-linejoin="round"/>
<path d="M571.253 341.972C571.253 341.972 563.087 325.983 553.846 315.386" stroke="black" stroke-opacity="0.8" stroke-linecap="round" stroke-linejoin="round"/>
<path d="M571.253 423.351C576.836 413.033 583.892 403.584 592.198 395.3" stroke="black" stroke-opacity="0.8" stroke-linecap="round" stroke-linejoin="round"/>
<path d="M569.352 434.227C566.382 427.232 562.832 420.497 558.74 414.093C553.036 405.662 552.21 404.571 552.21 404.571" stroke="black" stroke-opacity="0.8" stroke-linecap="round" stroke-linejoin="round"/>
<path d="M559.986 486.855C562.471 480.713 565.42 474.768 568.807 469.074C572.196 463.781 576.017 458.777 580.23 454.113" stroke="black" stroke-opacity="0.8" stroke-linecap="round" stroke-linejoin="round"/>
<path d="M570.771 526.983C570.202 521.11 571.214 515.192 573.7 509.841C577.783 501.955 582.396 491.623 584.297 487.54" stroke="black" stroke-opacity="0.8" stroke-linecap="round" stroke-linejoin="round"/>
<path d="M498.446 383.175C498.446 383.175 497.604 378.313 503.23 370.318C508.856 362.324 512.58 357.695 512.58 357.695C512.58 357.695 517.91 368.292 512.768 376.178C508.948 381.771 504.668 387.036 499.973 391.917L498.446 383.175Z" fill="#012C7A"/>
<path d="M513.578 411.818C513.578 411.818 512.736 406.956 518.362 398.962C523.988 390.967 527.712 386.339 527.712 386.339C527.712 386.339 533.042 396.936 527.899 404.837C524.077 410.423 519.798 415.683 515.105 420.561L513.578 411.818Z" fill="#012C7A"/>
<path d="M500.3 391.373C500.3 391.373 498.96 386.697 490.42 381.882C481.88 377.067 476.55 374.542 476.55 374.542C476.55 374.542 476.332 386.401 484.342 391.295C490.207 394.671 496.342 397.553 502.685 399.912L500.3 391.373Z" fill="#012C7A"/>
<path d="M518.44 425.159C518.44 425.159 516.601 420.577 507.625 416.743C498.648 412.91 493.038 410.915 493.038 410.915C493.038 410.915 494.067 422.728 502.607 426.748C508.795 429.49 515.201 431.711 521.759 433.387L518.44 425.159Z" fill="#012C7A"/>
<path d="M522.959 464.633C522.959 464.633 522.133 459.771 514.139 454.145C506.144 448.519 501.111 445.387 501.111 445.387C501.111 445.387 499.646 457.153 507.142 462.856C512.618 466.844 518.42 470.363 524.487 473.375L522.959 464.633Z" fill="#012C7A"/>
<path d="M524.735 474.155C524.735 474.155 523.177 469.479 527.65 460.753C532.122 452.026 535.083 446.93 535.083 446.93C535.083 446.93 541.862 456.654 537.904 465.209C534.922 471.283 531.434 477.096 527.478 482.586L524.735 474.155Z" fill="#012C7A"/>
<path d="M538.356 513.347C538.356 513.347 538.917 508.453 546.568 502.438C554.22 496.422 559.035 492.947 559.035 492.947C559.035 492.947 561.17 504.62 554.017 510.744C548.778 515.031 543.19 518.873 537.312 522.229L538.356 513.347Z" fill="#012C7A"/>
<path d="M536.315 501.255C536.315 501.255 535.473 496.393 527.494 490.767C519.516 485.141 514.498 482.009 514.498 482.009C514.498 482.009 513.033 493.775 520.528 499.494C526.008 503.475 531.81 506.993 537.873 510.013L536.315 501.255Z" fill="#012C7A"/>
<path d="M536.314 527.684C536.314 527.684 536.719 522.76 530.424 515.295C524.128 507.83 520.045 503.529 520.045 503.529C520.045 503.529 515.635 514.532 521.447 521.965C525.708 527.2 530.399 532.069 535.473 536.52L536.314 527.684Z" fill="#012C7A"/>
<path d="M497.62 382.022C498.84 387.025 500.333 391.957 502.093 396.796C507.189 410.229 515.464 418.037 520.326 430.114C525.188 442.192 520.326 459.723 525.126 475.479C529.925 491.234 537.873 499.119 537.873 510.184C537.873 521.248 533.572 552.026 533.572 552.026" stroke="black" stroke-opacity="0.8" stroke-linecap="round" stroke-linejoin="round"/>
<path d="M500.939 394.582L492.633 390.234" stroke="black" stroke-opacity="0.8" stroke-linecap="round" stroke-linejoin="round"/>
<path d="M499.475 388.162L501.594 382.178" stroke="black" stroke-opacity="0.8" stroke-linecap="round" stroke-linejoin="round"/>
<path d="M519.812 429.615C519.812 429.615 512.877 426.078 505.786 422.556" stroke="black" stroke-opacity="0.8" stroke-linecap="round" stroke-linejoin="round"/>
<path d="M515.089 420.561C517.133 414.14 519.822 407.942 523.115 402.062" stroke="black" stroke-opacity="0.8" stroke-linecap="round" stroke-linejoin="round"/>
<path d="M523.925 471.583C519.301 465.731 513.852 460.582 507.749 456.295" stroke="black" stroke-opacity="0.8" stroke-linecap="round" stroke-linejoin="round"/>
<path d="M526.294 478.19C527.403 473.488 528.899 468.885 530.766 464.43C533.431 458.523 533.883 457.744 533.883 457.744" stroke="black" stroke-opacity="0.8" stroke-linecap="round" stroke-linejoin="round"/>
<path d="M537.499 518.583C540.201 515.235 543.195 512.132 546.444 509.311C548.511 507.789 550.45 506.1 552.241 504.262" stroke="black" stroke-opacity="0.8" stroke-linecap="round" stroke-linejoin="round"/>
<path d="M537.873 510.184C535.647 506.593 533.151 503.175 530.408 499.961C527.707 497.012 524.767 494.292 521.619 491.826" stroke="black" stroke-opacity="0.8" stroke-linecap="round" stroke-linejoin="round"/>
<path d="M535.473 536.521C535.194 532.773 533.919 529.168 531.78 526.079C528.367 521.576 524.346 515.591 522.71 513.238" stroke="black" stroke-opacity="0.8" stroke-linecap="round" stroke-linejoin="round"/>
<path d="M55.8169 315.292L48.9912 295.797L55.8169 304.072L50.4561 274.821L58.7467 295.797L61.6765 254.827L66.5542 293.833L71.915 286.042L71.915 295.797L78.2576 282.629L74.8448 305.537L80.6887 301.641L71.4319 314.311L55.8169 315.292Z" fill="#012C7A"/>
<path d="M77.2768 310.415L51.9219 310.415L56.4879 361.608L72.7107 361.608L77.2768 310.415Z" fill="black" fill-opacity="0.8" stroke="black" stroke-opacity="0.8" stroke-linecap="round" stroke-linejoin="round"/>
<path d="M124.838 361.031L38.457 361.031L38.457 543.985L124.838 543.985L124.838 361.031Z" fill="#0F0F0F" stroke="black" stroke-opacity="0.8" stroke-linecap="round" stroke-linejoin="round"/>
<path d="M129.56 361.031L81.6396 361.031L81.6396 543.985L129.56 543.985L129.56 361.031Z" fill="white" stroke="black" stroke-opacity="0.8" stroke-linecap="round" stroke-linejoin="round"/>
<path d="M124.168 361.031L81.6396 361.031L81.6396 543.985L124.168 543.985L124.168 361.031Z" fill="black" fill-opacity="0.8" stroke="black" stroke-opacity="0.8" stroke-linecap="round" stroke-linejoin="round"/>
<path d="M119.384 501.44L81.6396 501.44L81.6396 538.904L119.384 538.904L119.384 501.44Z" fill="#012C7A" stroke="black" stroke-opacity="0.8" stroke-linecap="round" stroke-linejoin="round"/>
<path d="M119.384 503.467L81.6396 503.467L81.6396 508.267L119.384 508.267L119.384 503.467Z" fill="white" stroke="black" stroke-opacity="0.8" stroke-linecap="round" stroke-linejoin="round"/>
<path d="M119.384 531.051L81.6396 531.051L81.6396 535.851L119.384 535.851L119.384 531.051Z" fill="white" stroke="black" stroke-opacity="0.8" stroke-linecap="round" stroke-linejoin="round"/>
<path d="M88.793 502.22L88.793 549.595" stroke="black" stroke-opacity="0.8" stroke-linecap="round" stroke-linejoin="round"/>
<path d="M101.961 502.22L101.961 549.595" stroke="black" stroke-opacity="0.8" stroke-linecap="round" stroke-linejoin="round"/>
<path d="M113.524 502.22L113.524 549.595" stroke="black" stroke-opacity="0.8" stroke-linecap="round" stroke-linejoin="round"/>
<path d="M119.384 367.825L81.6396 367.825L81.6396 422.914L119.384 422.914L119.384 367.825Z" fill="#012C7A" stroke="black" stroke-opacity="0.8" stroke-linecap="round" stroke-linejoin="round"/>
<path d="M119.384 370.132L81.6396 370.132L81.6396 375.586L119.384 375.586L119.384 370.132Z" fill="white" stroke="black" stroke-opacity="0.8" stroke-linecap="round" stroke-linejoin="round"/>
<path d="M119.384 405.444L81.6396 405.444L81.6396 410.899L119.384 410.899L119.384 405.444Z" fill="white" stroke="black" stroke-opacity="0.8" stroke-linecap="round" stroke-linejoin="round"/>
<path d="M88.793 368.698L88.793 422.54" stroke="black" stroke-opacity="0.8" stroke-linecap="round" stroke-linejoin="round"/>
<path d="M101.961 368.698L101.961 422.54" stroke="black" stroke-opacity="0.8" stroke-linecap="round" stroke-linejoin="round"/>
<path d="M113.524 368.698L113.524 422.54" stroke="black" stroke-opacity="0.8" stroke-linecap="round" stroke-linejoin="round"/>
<path d="M119.384 434.213L81.6396 434.213L81.6396 489.302L119.384 489.302L119.384 434.213Z" fill="#012C7A" stroke="black" stroke-opacity="0.8" stroke-linecap="round" stroke-linejoin="round"/>
<path d="M119.384 436.519L81.6396 436.519L81.6396 441.973L119.384 441.973L119.384 436.519Z" fill="white" stroke="black" stroke-opacity="0.8" stroke-linecap="round" stroke-linejoin="round"/>
<path d="M119.384 471.832L81.6396 471.832L81.6396 477.286L119.384 477.286L119.384 471.832Z" fill="white" stroke="black" stroke-opacity="0.8" stroke-linecap="round" stroke-linejoin="round"/>
<path d="M88.793 435.101L88.793 488.927" stroke="black" stroke-opacity="0.8" stroke-linecap="round" stroke-linejoin="round"/>
<path d="M101.961 435.101L101.961 488.927" stroke="black" stroke-opacity="0.8" stroke-linecap="round" stroke-linejoin="round"/>
<path d="M113.524 435.101L113.524 488.927" stroke="black" stroke-opacity="0.8" stroke-linecap="round" stroke-linejoin="round"/>
<path d="M124.822 422.15L81.6396 422.15L81.6396 428.415L124.822 428.415L124.822 422.15Z" fill="white" stroke="black" stroke-opacity="0.8" stroke-linecap="round" stroke-linejoin="round"/>
<path d="M124.822 488.958L81.6396 488.958L81.6396 495.223L124.822 495.223L124.822 488.958Z" fill="white" stroke="black" stroke-opacity="0.8" stroke-linecap="round" stroke-linejoin="round"/>
<path d="M124.822 361.031L124.822 543.97" stroke="black" stroke-opacity="0.8" stroke-linecap="round" stroke-linejoin="round"/>
<path d="M75.5469 361.031L75.5469 543.97L81.6401 543.97L81.6401 367.826L124.075 367.826L124.075 360.953L75.5469 361.031Z" fill="white" stroke="black" stroke-opacity="0.8" stroke-linecap="round" stroke-linejoin="round"/>
<path d="M81.6396 367.826L81.6396 361.031" stroke="black" stroke-opacity="0.8" stroke-linecap="round" stroke-linejoin="round"/>
<path d="M124.496 276.987C119.961 268.245 118.06 261.98 118.06 260.531C118.06 257.663 124.293 255.949 124.293 255.949C134.017 250.806 179.756 258.24 200.342 261.668C211.866 263.677 223.524 264.823 235.219 265.097C235.219 265.097 238.071 262.821 241.452 259.954C244.834 257.087 260.885 238.23 267.181 236.578C273.477 234.926 279.181 238.869 279.181 238.869C279.181 238.869 289.482 245.103 287.752 246.303C286.022 247.502 260.885 269.164 254.59 273.169C248.294 277.174 235.157 275.46 223.718 277.751C213.869 279.714 173.974 282.145 164.827 282.893C157.957 284.523 150.746 283.922 144.24 281.179" fill="white"/>
<path d="M279.29 238.807C279.29 238.807 273.571 234.802 267.291 236.516C261.01 238.231 244.99 257.103 241.562 259.892C238.133 262.682 235.328 265.035 235.328 265.035C223.634 264.761 211.976 263.615 200.452 261.606C179.865 258.178 134.127 250.698 124.402 255.887C124.402 255.887 118.169 257.601 118.169 260.469C118.385 262.072 118.799 263.642 119.4 265.144L120.257 265.456C120.257 265.456 131.68 264.256 156.334 264.848C180.987 265.44 238.009 268.822 241.671 270.146C243.229 270.739 254.278 268.245 266.527 263.913C275.877 256.292 286.864 246.771 287.97 246.101C289.591 245.088 279.29 238.807 279.29 238.807Z" fill="#012C7A"/>
<path opacity="0.5" d="M279.29 238.807C279.29 238.807 273.571 234.802 267.291 236.516C261.01 238.231 244.99 257.103 241.562 259.892C238.133 262.682 235.328 265.035 235.328 265.035C223.634 264.761 211.976 263.615 200.452 261.606C179.865 258.178 134.127 250.698 124.402 255.887C124.402 255.887 118.169 257.601 118.169 260.469C118.385 262.072 118.799 263.642 119.4 265.144L120.257 265.456C120.257 265.456 131.68 264.256 156.334 264.848C180.987 265.44 238.009 268.822 241.671 270.146C243.229 270.739 254.278 268.245 266.527 263.913C275.877 256.292 286.864 246.771 287.97 246.101C289.591 245.088 279.29 238.807 279.29 238.807Z" fill="white"/>
<path d="M124.496 276.987C119.961 268.245 118.06 261.98 118.06 260.531C118.06 257.663 124.293 255.949 124.293 255.949C134.017 250.806 179.756 258.24 200.342 261.668C211.866 263.677 223.524 264.823 235.219 265.097C235.219 265.097 238.071 262.821 241.452 259.954C244.834 257.087 260.885 238.23 267.181 236.578C273.477 234.926 279.181 238.869 279.181 238.869C279.181 238.869 289.482 245.103 287.752 246.303C286.022 247.502 260.885 269.164 254.59 273.169C248.294 277.174 235.156 275.46 223.718 277.751C213.869 279.714 173.974 282.145 164.827 282.893C157.957 284.523 150.746 283.922 144.24 281.179" stroke="#998E89" stroke-linecap="round" stroke-linejoin="round"/>
<path d="M350.322 327.822C351.356 325.858 352.907 324.215 354.808 323.07C356.709 321.924 358.886 321.32 361.106 321.323L465.05 321.323C465.05 321.323 472.561 321.323 470.317 335.598C468.073 349.873 437.248 437.033 429.799 463.385C422.35 489.738 420.776 545.279 420.776 545.279L296.105 545.279C296.105 545.279 305.986 412.457 350.322 327.822Z" fill="white"/>
<path opacity="0.16" d="M397.135 321.323L361.105 321.323C358.886 321.32 356.709 321.924 354.808 323.07C352.907 324.215 351.356 325.858 350.321 327.822C305.985 412.457 295.996 545.232 295.996 545.232L351.911 545.232L365.703 492.855L423.207 504.714C423.612 500.319 424.08 495.847 424.625 491.436L423.363 477.411C423.363 477.411 411.581 465.022 407.872 461.921C404.163 458.819 406.626 453.225 406.002 429.054C405.379 404.884 383.686 387.508 375.614 372.625C367.541 357.743 379.962 348.439 391.12 333.557C395.094 328.18 396.714 324.222 397.135 321.323Z" fill="#998E89"/>
<path d="M350.322 327.822C351.356 325.858 352.907 324.215 354.808 323.07C356.709 321.924 358.886 321.32 361.106 321.323L465.05 321.323C465.05 321.323 472.561 321.323 470.317 335.598C468.073 349.873 437.248 437.033 429.799 463.385C422.35 489.738 420.776 545.278 420.776 545.278L296.105 545.278C296.105 545.278 305.986 412.457 350.322 327.822Z" stroke="#998E89" stroke-linecap="round" stroke-linejoin="round"/>
<path d="M447.019 346.118C436.516 370.631 414.293 467.672 410.678 545.233L420.714 545.233C420.714 545.233 422.272 489.63 429.737 463.34C437.201 437.05 468.057 349.874 470.255 335.552C472.452 321.231 464.987 321.277 464.987 321.277C464.987 321.277 455.45 326.467 447.019 346.118Z" fill="#998E89" stroke="#998E89" stroke-linecap="round" stroke-linejoin="round"/>
<path d="M264.423 297.122C264.423 297.122 247.842 287.397 241.562 270.255C235.281 253.113 290.729 225.654 314.806 223.94C338.883 222.226 345.677 228.506 359.999 253.097C374.32 277.689 384.013 311.412 376.58 327.993C369.146 344.574 356.57 348.579 365.671 362.278C374.772 375.976 400.548 414.873 398.834 433.168C397.119 451.464 379.401 467.453 353.641 469.198C327.88 470.944 293.596 455.469 265.015 430.239C236.435 405.008 243.852 367.903 254.107 355.904C264.361 343.904 279.835 339.323 280.973 327.323C282.111 315.324 264.423 297.122 264.423 297.122Z" fill="black" stroke="#998E89" stroke-linecap="round" stroke-linejoin="round"/>
<path d="M335.096 269.99C343.901 286.384 354.918 308.342 358.362 321.604C364.378 344.824 333.428 359.441 342.015 370.615" stroke="white" stroke-linecap="round" stroke-linejoin="round"/>
<path d="M323.097 248.517C323.097 248.517 326.525 254.361 331.263 262.963" stroke="white" stroke-linecap="round" stroke-linejoin="round"/>
<path d="M369.287 289.766C370.303 292.838 370.962 296.017 371.251 299.241" stroke="white" stroke-linecap="round" stroke-linejoin="round"/>
<path d="M329.05 239.991C329.05 239.991 356.135 260.001 366.95 283.953" stroke="white" stroke-linecap="round" stroke-linejoin="round"/>
<path d="M291.461 254.998C272.122 260.421 244.304 269.226 246.564 274.306" stroke="white" stroke-linecap="round" stroke-linejoin="round"/>
<path d="M309.336 250.229C309.336 250.229 305.206 251.258 299.051 252.91" stroke="white" stroke-linecap="round" stroke-linejoin="round"/>
<path d="M285.415 240.132C296.493 236.641 308.095 235.111 319.699 235.612" stroke="white" stroke-linecap="round" stroke-linejoin="round"/>
<path d="M277.529 243.357C279.281 242.444 281.093 241.653 282.952 240.988" stroke="white" stroke-linecap="round" stroke-linejoin="round"/>
<path d="M118.06 260.531C118.053 260.64 118.053 260.75 118.06 260.859C118.053 260.75 118.053 260.64 118.06 260.531ZM124.496 276.988C121.871 272.181 119.781 267.102 118.263 261.84C119.774 267.104 121.864 272.185 124.496 276.988ZM118.091 260.952C118.091 261.046 118.091 261.155 118.091 261.295C118.122 261.155 118.107 261.046 118.091 260.952ZM118.169 261.388C118.188 261.541 118.22 261.692 118.263 261.84C118.22 261.692 118.188 261.541 118.169 261.388ZM124.496 276.972C130.324 288.012 137.576 298.239 146.064 307.392C166.65 329.692 226.118 388.023 231.775 392.028C237.432 396.033 235.78 407.456 231.775 418.894C227.77 430.333 212.903 446.945 213.48 465.209C214.056 483.474 219.713 511.524 219.199 517.244C218.685 522.963 204.379 542.412 204.379 542.412L351.895 542.412C351.895 542.412 333.506 519.036 333.506 511.041C333.506 503.047 358.752 400.614 359.89 393.181C361.028 385.747 356.461 380.605 347.314 380.028C338.166 379.451 303.289 372.018 301.575 366.299C299.861 360.579 310.723 338.856 310.723 338.856L276.438 340.57C276.438 340.57 274.724 355.437 272.433 358.304C270.143 361.172 266.714 355.437 258.704 351.447C250.694 347.458 235.328 344.014 229.547 339.432C223.765 334.851 168.941 283.33 168.941 283.33" fill="white"/>
<path d="M238.305 343.843C241.157 348.83 244.008 353.333 244.008 353.333C244.008 353.333 253.624 358.741 256.023 358.741C258.423 358.741 272.854 366.533 272.854 366.533C272.854 366.533 284.885 363.525 280.646 353.302C279.309 350.685 277.62 348.263 275.628 346.102C274.911 350.637 273.758 356.575 272.402 358.273C270.111 361.125 266.683 355.406 258.673 351.416C253.483 348.83 245.084 346.461 238.305 343.843Z" fill="#012C7A"/>
<path d="M208.945 320.7C191.288 304.353 168.941 283.393 168.941 283.393L155.944 281.522L154.386 282.395C154.386 282.395 191.07 314.856 198.878 318.472C202.036 319.924 205.469 320.683 208.945 320.7Z" fill="#012C7A"/>
<path d="M227.443 337.624L226.04 336.377C226.757 337.561 227.162 338.309 227.162 338.309L227.443 337.624Z" fill="#012C7A"/>
<g opacity="0.5">
<path d="M238.305 343.843C241.157 348.83 244.008 353.333 244.008 353.333C244.008 353.333 253.624 358.741 256.023 358.741C258.423 358.741 272.854 366.533 272.854 366.533C272.854 366.533 284.885 363.525 280.646 353.302C279.309 350.685 277.62 348.263 275.628 346.102C274.911 350.637 273.758 356.575 272.402 358.273C270.111 361.125 266.683 355.406 258.673 351.416C253.483 348.83 245.084 346.461 238.305 343.843Z" fill="white"/>
<path d="M208.945 320.7C191.288 304.353 168.941 283.393 168.941 283.393L155.944 281.522L154.386 282.395C154.386 282.395 191.07 314.856 198.878 318.472C202.036 319.924 205.469 320.683 208.945 320.7Z" fill="white"/>
<path d="M227.443 337.624L226.04 336.377C226.757 337.561 227.162 338.309 227.162 338.309L227.443 337.624Z" fill="white"/>
</g>
<path d="M124.496 276.972C130.324 288.012 137.576 298.239 146.064 307.392C166.65 329.692 226.118 388.023 231.775 392.028C237.432 396.033 235.78 407.456 231.775 418.894C227.77 430.333 212.903 446.945 213.48 465.209C214.056 483.474 219.713 511.524 219.199 517.244C218.685 522.963 204.379 542.412 204.379 542.412L351.895 542.412C351.895 542.412 333.506 519.036 333.506 511.041C333.506 503.047 358.752 400.614 359.89 393.181C361.028 385.747 356.461 380.605 347.314 380.028C338.166 379.451 303.289 372.018 301.575 366.299C299.861 360.579 310.723 338.856 310.723 338.856L276.438 340.57C276.438 340.57 274.724 355.437 272.433 358.304C270.143 361.172 266.714 355.437 258.704 351.447C250.694 347.458 235.328 344.014 229.547 339.432C223.765 334.851 168.941 283.33 168.941 283.33M118.06 260.531C118.053 260.64 118.053 260.75 118.06 260.859C118.053 260.75 118.053 260.64 118.06 260.531V260.531ZM124.496 276.988C121.871 272.181 119.781 267.102 118.263 261.84C119.774 267.104 121.864 272.185 124.496 276.988V276.988ZM118.091 260.952C118.091 261.046 118.091 261.155 118.091 261.295C118.122 261.155 118.107 261.046 118.091 260.952V260.952ZM118.169 261.388C118.188 261.541 118.22 261.692 118.263 261.84C118.22 261.692 118.188 261.541 118.169 261.388Z" stroke="#998E89" stroke-linecap="round" stroke-linejoin="round"/>
<path d="M168.941 283.393C168.941 283.393 150.677 283.736 140.485 275.336" stroke="#998E89" stroke-linecap="round" stroke-linejoin="round"/>
<path d="M301.591 366.298C299.877 360.594 310.739 338.854 310.739 338.854L276.454 340.569C276.454 340.569 274.74 355.436 272.449 358.303C270.158 361.171 266.73 355.436 258.72 351.446C258.112 351.135 257.442 350.838 256.756 350.542L254.684 383.128C254.684 383.128 257.691 414.685 293.752 408.686C308.354 406.255 323.938 393.226 337.387 378.578C323.549 376.038 302.9 370.677 301.591 366.298Z" fill="white"/>
<path d="M300.625 343.172C300.625 343.172 298.552 354.798 296.885 367.654C295.217 380.511 293.986 390.08 293.986 390.08L301.591 366.299L310.162 341.1C310.162 341.1 301.872 341.1 300.625 343.172Z" fill="#012C7A"/>
<path opacity="0.5" d="M300.625 343.172C300.625 343.172 298.552 354.798 296.885 367.654C295.217 380.511 293.986 390.08 293.986 390.08L301.591 366.299L310.162 341.1C310.162 341.1 301.872 341.1 300.625 343.172Z" fill="white"/>
<path d="M301.591 366.298C299.877 360.594 310.739 338.854 310.739 338.854L276.454 340.569C276.454 340.569 274.74 355.436 272.449 358.303C270.158 361.171 266.73 355.436 258.72 351.446C258.112 351.135 257.442 350.838 256.756 350.542L254.684 383.128C254.684 383.128 257.691 414.685 293.752 408.686C308.354 406.255 323.938 393.226 337.387 378.578C323.549 376.038 302.9 370.677 301.591 366.298Z" stroke="#998E89" stroke-linecap="round" stroke-linejoin="round"/>
<path d="M272.433 358.304C270.143 361.156 266.714 355.436 258.704 351.447C253.655 348.907 245.614 346.6 238.959 344.107C237.074 339.634 234.58 333.806 232.975 330.284C230.123 324.051 225.542 327.993 225.542 327.993C223.151 325.275 221.22 322.185 219.822 318.846C216.971 312.612 212.389 313.126 206.109 311.989C199.828 310.851 186.66 298.836 186.66 298.836C186.66 298.836 180.504 294.161 177.964 291.839C175.003 297.667 167.913 307.921 152.578 314.326C177.029 339.868 226.632 388.396 231.837 392.043C237.557 396.032 235.843 407.471 231.837 418.909C227.832 430.348 212.965 446.96 213.542 465.225C214.119 483.489 219.776 511.54 219.261 517.259C218.747 522.355 207.34 538.328 204.862 541.757L210.675 542.411L240.938 542.411C240.767 527.077 240.783 464.492 251.271 439.558C263.286 410.899 272.433 358.304 272.433 358.304Z" fill="#012C7A"/>
<path opacity="0.16" d="M258.704 351.447C253.654 348.907 245.613 346.6 238.959 344.107C237.073 339.634 234.58 333.806 232.975 330.284C230.123 324.051 225.541 327.993 225.541 327.993C223.151 325.275 221.219 322.185 219.822 318.846C216.97 312.612 212.388 313.126 206.108 311.989C199.828 310.851 186.659 298.836 186.659 298.836C186.659 298.836 180.504 294.161 177.964 291.839C176.696 294.314 175.188 296.657 173.46 298.836C183.683 307.485 194.966 316.648 198.908 318.472C206.7 322.071 208.524 319.064 214.492 322.679C220.461 326.295 227.115 338.263 227.115 338.263C227.115 338.263 230.731 328.632 233.738 335.255C236.746 341.879 243.961 353.286 243.961 353.286C243.961 353.286 253.576 358.694 255.976 358.694C257.862 358.694 267.103 363.493 271.03 365.566C271.903 361 272.386 358.257 272.386 358.257C270.142 361.156 266.714 355.436 258.704 351.447Z" fill="#998E89"/>
<path d="M272.433 358.304C270.143 361.156 266.714 355.436 258.704 351.447C253.655 348.907 245.614 346.6 238.959 344.107C237.074 339.634 234.58 333.806 232.975 330.284C230.123 324.051 225.542 327.993 225.542 327.993C223.151 325.275 221.22 322.185 219.822 318.846C216.971 312.612 212.389 313.126 206.109 311.989C199.828 310.851 186.66 298.836 186.66 298.836C186.66 298.836 180.504 294.161 177.964 291.839C175.003 297.667 167.913 307.921 152.578 314.326C177.029 339.868 226.632 388.396 231.837 392.043C237.557 396.032 235.843 407.471 231.837 418.909C227.832 430.348 212.965 446.96 213.542 465.225C214.119 483.489 219.776 511.54 219.261 517.259C218.747 522.355 207.34 538.328 204.862 541.757L210.675 542.411L240.938 542.411C240.767 527.077 240.783 464.492 251.271 439.558C263.286 410.899 272.433 358.304 272.433 358.304Z" stroke="#998E89" stroke-linecap="round" stroke-linejoin="round"/>
<path d="M272.838 356.31C272.838 356.31 265.732 354.128 261.353 357.962C256.974 361.795 250.444 381.462 246.595 402.796C244.223 415.216 245.86 428.068 251.27 439.496C251.27 439.496 260.262 415.918 262.989 404.432C265.716 392.947 272.838 356.31 272.838 356.31Z" fill="#012C7A"/>
<path opacity="0.16" d="M259.203 359.784C259.203 359.784 264.346 358.537 266.465 359.254C268.25 360.019 269.918 361.032 271.421 362.261L272.839 356.308C270.712 355.221 268.299 354.824 265.935 355.171C262.398 355.888 259.203 359.784 259.203 359.784Z" fill="#998E89"/>
<path d="M272.838 356.31C272.838 356.31 265.732 354.128 261.353 357.962C256.974 361.795 250.444 381.462 246.595 402.796C244.223 415.216 245.86 428.068 251.27 439.496C251.27 439.496 260.262 415.918 262.989 404.432C265.716 392.947 272.838 356.31 272.838 356.31Z" stroke="#998E89" stroke-linecap="round" stroke-linejoin="round"/>
<path d="M224.981 358.179L234.128 395.347L213.542 348.455" stroke="#998E89" stroke-linecap="round" stroke-linejoin="round"/>
<path d="M285.244 542.411L351.911 542.411C351.911 542.411 333.522 519.035 333.522 511.04C333.522 503.046 358.768 400.613 359.906 393.18C361.043 385.746 356.477 380.604 347.33 380.027C338.182 379.451 303.305 372.017 301.591 366.298C301.591 366.298 288.438 412.613 283.872 444.061C279.945 471.037 284.013 527.014 285.244 542.411Z" fill="#012C7A"/>
<path opacity="0.16" d="M347.329 380.028C339.833 379.56 315.07 374.48 305.424 369.524L308.93 377.628C315.283 380.998 322.116 383.374 329.189 384.672C340.799 386.745 351.599 386.339 358.658 396.718L359.001 397.232C359.437 395.238 359.733 393.835 359.827 393.181C361.058 385.747 356.476 380.605 347.329 380.028Z" fill="#998E89"/>
<path d="M285.244 542.411L351.911 542.411C351.911 542.411 333.522 519.035 333.522 511.041C333.522 503.046 358.768 400.613 359.906 393.18C361.043 385.746 356.477 380.604 347.33 380.027C338.182 379.451 303.305 372.017 301.591 366.298C301.591 366.298 288.438 412.613 283.872 444.061C279.945 471.037 284.012 527.014 285.244 542.411Z" stroke="#998E89" stroke-linecap="round" stroke-linejoin="round"/>
<path d="M301.591 366.298C301.591 366.298 283.95 422.4 283.872 444.061C283.872 444.061 308.931 413.719 312.203 392.401C315.476 371.082 301.591 366.298 301.591 366.298Z" fill="#012C7A"/>
<path opacity="0.16" d="M298.552 373.466C301.202 373.378 303.835 373.936 306.222 375.092C308.608 376.249 310.677 377.97 312.25 380.105C312.25 380.105 308.79 369.929 301.591 366.298L298.552 373.466Z" fill="#998E89"/>
<path d="M301.591 366.298C301.591 366.298 283.95 422.4 283.872 444.061C283.872 444.061 308.931 413.719 312.203 392.401C315.476 371.082 301.591 366.298 301.591 366.298Z" stroke="#998E89" stroke-linecap="round" stroke-linejoin="round"/>
<path d="M489.921 531.861C489.921 531.861 502.84 532.391 511.302 533.607C516.946 534.372 522.627 534.824 528.32 534.963C528.32 534.963 523.645 525.519 518.658 522.854C513.671 520.189 504.632 515.42 497.059 516.48C489.485 517.54 478.654 525.176 479.558 527.607C480.462 530.038 484.498 531.129 489.921 531.861Z" fill="white"/>
<path d="M489.921 531.861C489.921 531.861 502.84 532.391 511.302 533.607C516.946 534.372 522.627 534.824 528.32 534.963C528.32 534.963 523.645 525.519 518.658 522.854C513.671 520.189 504.632 515.42 497.059 516.48C489.485 517.54 478.654 525.176 479.558 527.607C480.462 530.038 484.498 531.129 489.921 531.861Z" fill="#012C7A"/>
<path opacity="0.5" d="M489.921 531.861C489.921 531.861 502.84 532.391 511.302 533.607C516.946 534.372 522.627 534.824 528.32 534.963C528.32 534.963 523.645 525.519 518.658 522.854C513.671 520.189 504.632 515.42 497.059 516.48C489.485 517.54 478.654 525.176 479.558 527.607C480.462 530.038 484.498 531.129 489.921 531.861Z" fill="white"/>
<path d="M489.921 531.861C489.921 531.861 502.84 532.391 511.302 533.607C516.946 534.372 522.627 534.824 528.32 534.963C528.32 534.963 523.645 525.519 518.658 522.854C513.671 520.189 504.632 515.42 497.059 516.48C489.485 517.54 478.654 525.176 479.558 527.607C480.462 530.038 484.498 531.129 489.921 531.861Z" stroke="#998E89" stroke-linecap="round" stroke-linejoin="round"/>
<path d="M511.381 527.996C511.381 527.996 521.619 522.682 524.175 522.76C526.731 522.838 543.717 534.323 542.876 536.162C542.304 537.014 541.479 537.666 540.517 538.024C539.555 538.382 538.505 538.428 537.515 538.156C535.629 537.268 524.191 532.406 524.191 532.406L516.711 534.167L511.381 527.996Z" fill="white"/>
<path d="M511.381 527.996C511.381 527.996 521.619 522.682 524.175 522.76C526.731 522.838 543.717 534.323 542.876 536.162C542.034 538.001 538.014 539.497 537.515 538.156C537.016 536.816 524.191 532.406 524.191 532.406L516.711 534.167L511.381 527.996Z" fill="#012C7A"/>
<path opacity="0.5" d="M511.381 527.996C511.381 527.996 521.619 522.682 524.175 522.76C526.731 522.838 543.717 534.323 542.876 536.162C542.034 538.001 538.014 539.497 537.515 538.156C537.016 536.816 524.191 532.406 524.191 532.406L516.711 534.167L511.381 527.996Z" fill="white"/>
<path d="M511.381 527.996C511.381 527.996 521.619 522.682 524.175 522.76C526.731 522.838 543.717 534.323 542.876 536.162C542.304 537.014 541.479 537.666 540.517 538.024C539.555 538.382 538.505 538.428 537.515 538.156C535.629 537.268 524.191 532.406 524.191 532.406L516.711 534.167L511.381 527.996Z" stroke="#998E89" stroke-linecap="round" stroke-linejoin="round"/>
<path d="M504.071 519.254C504.071 519.254 517.723 518.818 520.434 520.189C523.146 521.561 535.395 542.568 533.556 544.095C531.717 545.622 526.637 545.17 526.793 543.472C526.948 541.773 515.51 530.522 515.51 530.522L506.611 528.574L504.071 519.254Z" fill="white"/>
<path d="M504.071 519.254C504.071 519.254 517.723 518.818 520.434 520.189C523.146 521.561 535.395 542.568 533.556 544.095C531.717 545.622 526.637 545.17 526.793 543.472C526.948 541.773 515.51 530.522 515.51 530.522L506.611 528.574L504.071 519.254Z" fill="#012C7A"/>
<path opacity="0.5" d="M504.071 519.254C504.071 519.254 517.723 518.818 520.434 520.189C523.146 521.561 535.395 542.568 533.556 544.095C531.717 545.622 526.637 545.17 526.793 543.472C526.948 541.773 515.51 530.522 515.51 530.522L506.611 528.574L504.071 519.254Z" fill="white"/>
<path d="M504.071 519.254C504.071 519.254 517.723 518.818 520.434 520.189C523.146 521.561 535.395 542.568 533.556 544.095C531.717 545.622 526.637 545.17 526.793 543.472C526.948 541.773 515.51 530.522 515.51 530.522L506.611 528.574L504.071 519.254Z" stroke="#998E89" stroke-linecap="round" stroke-linejoin="round"/>
<path d="M495.983 516.433C495.983 516.433 509.806 515.981 512.549 517.383C515.292 518.786 527.696 540.027 525.826 541.585C523.956 543.143 518.845 542.66 519.001 540.946C519.157 539.232 507.578 527.84 507.578 527.84L498.57 525.861L495.983 516.433Z" fill="white"/>
<path d="M495.983 516.433C495.983 516.433 509.806 515.981 512.549 517.383C515.292 518.786 527.696 540.027 525.826 541.585C523.956 543.143 518.845 542.66 519.001 540.946C519.157 539.232 507.578 527.84 507.578 527.84L498.57 525.861L495.983 516.433Z" fill="#012C7A"/>
<path opacity="0.5" d="M495.983 516.433C495.983 516.433 509.806 515.981 512.549 517.383C515.292 518.786 527.696 540.027 525.826 541.585C523.956 543.143 518.845 542.66 519.001 540.946C519.157 539.232 507.578 527.84 507.578 527.84L498.57 525.861L495.983 516.433Z" fill="white"/>
<path d="M495.983 516.433C495.983 516.433 509.806 515.981 512.549 517.383C515.292 518.786 527.696 540.027 525.826 541.585C523.956 543.143 518.845 542.66 519.001 540.946C519.157 539.232 507.578 527.84 507.578 527.84L498.57 525.861L495.983 516.433Z" stroke="#998E89" stroke-linecap="round" stroke-linejoin="round"/>
<path d="M338.821 437.236C348.826 452.649 368.913 491.702 374.773 496.096C383.92 502.953 445.071 519.597 450.962 524.147C456.853 528.698 456.448 533.264 462.027 534.931C467.606 536.599 488.519 541.383 496.498 542.131C504.477 542.879 500.908 537.939 500.908 537.939L487.304 528.589L499.163 525.659C499.163 525.659 511.053 539.965 513.282 540.744C515.51 541.523 519.438 540.744 519.188 538.983C518.752 536.162 506.067 513.083 501.563 512.101C497.059 511.119 469.725 514.906 469.725 514.906C469.725 514.906 412.392 476.242 411.364 474.871C411.364 474.871 407.935 465.147 405.13 461.142C402.325 457.137 400.548 458.29 400.548 458.29C400.548 458.29 401.702 453.132 399.987 451.417L390.84 442.27L390.512 442.706C388.954 439.589 387.396 436.036 385.681 431.984C380.897 420.717 363.958 389.098 361.106 384.532C358.971 381.119 341.081 378.672 332.011 377.644" fill="#012C7A"/>
<path opacity="0.16" d="M378.653 438.217C386.133 444.856 383.64 444.856 381.972 450.684C380.305 456.513 383.219 448.612 390.279 449.032C397.338 449.453 395.265 458.57 394.424 460.237C393.582 461.905 403.151 463.977 401.483 467.702C399.816 471.426 390.279 476.834 384.887 482.242C379.495 487.649 398.99 473.515 405.629 473.109C407.655 472.969 409.322 473.234 410.725 473.203C409.253 469.033 407.363 465.023 405.083 461.234C402.216 457.229 400.502 458.383 400.502 458.383C400.502 458.383 401.655 453.224 399.941 451.51L390.793 442.362L390.466 442.799C388.907 439.682 387.349 436.129 385.635 432.077C380.85 420.81 363.911 389.19 361.059 384.624C358.924 381.211 341.034 378.765 331.964 377.736L332.79 384.952L332.992 385.107C332.992 385.107 344.197 387.18 347.937 387.601C351.677 388.022 356.243 391.325 355.823 393.834C355.402 396.343 344.618 407.533 347.937 408.374C351.257 409.216 354.997 400.068 358.737 401.315C362.477 402.561 371.126 431.578 378.653 438.217Z" fill="#998E89"/>
<path d="M338.821 437.236C348.826 452.649 368.913 491.702 374.773 496.096C383.92 502.953 445.071 519.597 450.962 524.147C456.853 528.698 456.448 533.264 462.027 534.931C467.606 536.599 488.519 541.383 496.498 542.131C504.477 542.879 500.908 537.939 500.908 537.939L487.304 528.589L499.163 525.659C499.163 525.659 511.053 539.965 513.282 540.744C515.51 541.523 519.438 540.744 519.188 538.983C518.752 536.162 506.067 513.083 501.563 512.101C497.059 511.119 469.725 514.906 469.725 514.906C469.725 514.906 412.392 476.242 411.364 474.871C411.364 474.871 407.935 465.147 405.13 461.142C402.325 457.137 400.548 458.29 400.548 458.29C400.548 458.29 401.702 453.132 399.987 451.417L390.84 442.27L390.512 442.706C388.954 439.589 387.396 436.036 385.681 431.984C380.897 420.717 363.958 389.098 361.106 384.532C358.971 381.119 341.081 378.672 332.011 377.644" stroke="#998E89" stroke-linecap="round" stroke-linejoin="round"/>
<path d="M338.977 416.089C338.556 417.491 338.198 418.894 337.917 420.328" stroke="#998E89" stroke-linecap="round" stroke-linejoin="round"/>
<path d="M354.124 390.298C349.227 395.88 345.097 402.09 341.844 408.765" stroke="#998E89" stroke-linecap="round" stroke-linejoin="round"/>
<path d="M377.017 478.783C381.224 472.549 387.925 464.648 395.312 462.389" stroke="#998E89" stroke-linecap="round" stroke-linejoin="round"/>
<path d="M372.357 486.449C372.357 486.449 373.105 484.984 374.446 482.771" stroke="#998E89" stroke-linecap="round" stroke-linejoin="round"/>
<path d="M372.357 476.6C372.357 476.6 380.009 457.464 387.661 452.539C395.312 447.615 390.933 457.463 390.933 457.463" stroke="#998E89" stroke-linecap="round" stroke-linejoin="round"/>
<path d="M450.961 524.163C456.868 528.729 456.447 533.279 462.026 534.947C467.605 536.614 488.518 541.398 496.497 542.146C504.476 542.894 500.908 537.954 500.908 537.954L487.303 528.604L499.162 525.674C499.162 525.674 511.053 539.98 513.281 540.759C515.51 541.539 519.748 541.819 519.187 538.998C518.097 533.544 506.066 513.098 501.562 512.116C497.058 511.135 469.724 514.921 469.724 514.921C469.724 514.921 417.503 479.079 411.784 475.198C389.608 477.333 379.058 488.943 374.616 495.909L374.772 496.034C383.92 502.953 445.071 519.597 450.961 524.163Z" fill="white"/>
<path d="M519.173 539.06C516.336 532.125 506.051 513.16 501.547 512.178C497.043 511.196 469.709 514.983 469.709 514.983C469.709 514.983 417.488 479.14 411.769 475.26C405.948 475.766 400.237 477.148 394.829 479.358C403.073 484.033 458.022 515.201 464.956 516.588C472.312 518.146 496.856 514.11 501.173 517.009C503.916 518.848 512.082 531.798 517.599 540.992C519.173 540.759 519.749 540.463 519.173 539.06Z" fill="#012C7A"/>
<path opacity="0.5" d="M519.173 539.06C514.747 529.133 506.051 513.16 501.547 512.178C497.043 511.196 469.709 514.983 469.709 514.983C469.709 514.983 417.488 479.14 411.769 475.26C405.948 475.766 400.237 477.148 394.829 479.358C403.073 484.033 458.022 515.201 464.956 516.588C472.312 518.146 496.856 514.11 501.173 517.009C503.916 518.848 512.082 531.798 517.599 540.992C519.173 540.759 519.796 540.447 519.173 539.06Z" fill="white"/>
<path d="M450.961 524.163C456.868 528.729 456.447 533.279 462.026 534.947C467.605 536.614 488.518 541.398 496.497 542.146C504.476 542.894 500.908 537.954 500.908 537.954L487.303 528.604L499.162 525.674C499.162 525.674 511.053 539.98 513.281 540.759C515.51 541.539 519.748 541.819 519.187 538.998C518.097 533.544 506.066 513.098 501.562 512.116C497.058 511.135 469.724 514.921 469.724 514.921C469.724 514.921 417.503 479.079 411.784 475.198C389.608 477.333 379.058 488.943 374.616 495.909L374.772 496.034C383.92 502.953 445.071 519.597 450.961 524.163Z" stroke="#998E89" stroke-linecap="round" stroke-linejoin="round"/>
<path d="M313.232 252.037L266.294 271.626C265.725 279.875 263.682 287.956 260.263 295.485C254.715 307.219 257.957 329.426 263.286 341.41C268.616 353.394 292.101 348.704 300.687 347.208C306.511 346.1 312.215 344.435 317.721 342.236C320.227 343.202 322.939 343.515 325.6 343.144C328.26 342.773 330.783 341.732 332.93 340.117C332.93 340.117 307.809 269.6 313.232 252.037Z" fill="white"/>
<path d="M313.232 252.037L266.294 271.626C265.725 279.875 263.682 287.956 260.263 295.485C254.715 307.219 257.957 329.426 263.286 341.41C264.178 343.338 265.614 344.962 267.416 346.086L267.416 345.182C267.416 345.182 258.705 323.598 260.356 311.147C262.008 298.695 269.083 292.446 269.909 284.576C270.735 276.706 270.315 272.966 286.101 267.153C301.887 261.341 308.511 255.949 310.162 261.746C311.814 267.543 318.469 305.755 323.035 314.887C327.601 324.019 327.18 333.587 320.136 337.717C313.017 341.991 305.388 345.352 297.43 347.722L300.75 347.145C306.574 346.037 312.277 344.373 317.783 342.174C320.29 343.14 323.001 343.453 325.662 343.082C328.323 342.711 330.846 341.669 332.993 340.055C332.993 340.055 307.809 269.6 313.232 252.037Z" fill="#012C7A"/>
<path opacity="0.5" d="M313.232 252.037L266.294 271.626C265.725 279.875 263.682 287.956 260.263 295.485C254.715 307.219 257.957 329.426 263.286 341.41C264.178 343.338 265.614 344.962 267.416 346.086L267.416 345.182C267.416 345.182 258.705 323.598 260.356 311.147C262.008 298.695 269.083 292.446 269.909 284.576C270.735 276.706 270.315 272.966 286.101 267.153C301.887 261.341 308.511 255.949 310.162 261.746C311.814 267.543 318.469 305.755 323.035 314.887C327.601 324.019 327.18 333.587 320.136 337.717C313.017 341.991 305.388 345.352 297.43 347.722L300.75 347.145C306.574 346.037 312.277 344.373 317.783 342.174C320.29 343.14 323.001 343.453 325.662 343.082C328.323 342.711 330.846 341.669 332.993 340.055C332.993 340.055 307.809 269.6 313.232 252.037Z" fill="white"/>
<path d="M313.232 252.037L266.294 271.626C265.725 279.875 263.682 287.956 260.263 295.485C254.715 307.219 257.957 329.426 263.286 341.41C268.616 353.394 292.101 348.704 300.687 347.208C306.511 346.1 312.215 344.435 317.721 342.236C320.227 343.202 322.939 343.515 325.6 343.144C328.26 342.773 330.783 341.732 332.93 340.117C332.93 340.117 307.809 269.6 313.232 252.037Z" stroke="#998E89" stroke-linecap="round" stroke-linejoin="round"/>
<path d="M289.513 282.754C289.64 285.514 289.298 288.275 288.5 290.92C287.253 294.037 275.487 306.286 275.846 307.61C276.204 308.935 277.264 313.189 279.352 313.594" stroke="black" stroke-linecap="round" stroke-linejoin="round"/>
<path d="M302.557 293.709C304.193 290.436 309.569 293.631 309.491 301.002" stroke="black" stroke-linecap="round" stroke-linejoin="round"/>
<path d="M275.908 284.077C275.908 284.077 280.49 282.067 284.588 289.485" stroke="black" stroke-linecap="round" stroke-linejoin="round"/>
<path d="M296.043 304.509C301.337 304.775 306.371 306.887 310.271 310.477" stroke="black" stroke-width="0.5" stroke-linecap="round" stroke-linejoin="round"/>
<path d="M270.376 294.769C273.113 295.134 275.787 295.873 278.324 296.966" stroke="black" stroke-width="0.5" stroke-linecap="round" stroke-linejoin="round"/>
<path d="M288.999 275.835C287.788 275.195 286.446 274.845 285.078 274.813C283.709 274.78 282.352 275.066 281.113 275.648C276.921 277.658 274.35 279.871 274.63 277.3C274.911 274.729 279.835 271.892 281.316 271.518C282.796 271.144 289.419 270.116 288.999 275.835Z" fill="black"/>
<path d="M300.749 270.022C305.118 273.557 308.589 278.074 310.879 283.206C313.995 290.998 316.458 282.489 313.995 277.393C311.533 272.297 304.411 266.874 300.749 270.022Z" fill="black"/>
<path d="M333.615 353.442C333.615 357.073 331.558 360.018 329.034 360.018C326.509 360.018 324.468 357.073 324.468 353.442C324.468 349.811 326.509 340.569 329.034 340.569C331.558 340.569 333.615 349.811 333.615 353.442Z" fill="#012C7A" stroke="#998E89" stroke-linecap="round" stroke-linejoin="round"/>
<path d="M302.962 292.291C302.783 292.767 302.642 293.257 302.541 293.756C302.089 296.062 301.638 300.878 302.541 301.08C303.445 301.283 305.658 296.779 306.048 294.473C306.135 294.02 306.188 293.562 306.204 293.101C305.14 292.768 304.058 292.497 302.962 292.291Z" fill="black"/>
<path d="M276.376 283.626C276.238 284.033 276.129 284.449 276.049 284.872C275.582 287.179 275.597 292.243 276.579 292.43C277.561 292.617 279.166 287.88 279.618 285.574C279.731 285.014 279.793 284.446 279.805 283.875C278.689 283.568 277.525 283.483 276.376 283.626Z" fill="black"/>
<path d="M302.557 293.786L304.115 290.888C306.586 291.369 308.824 292.664 310.473 294.565" stroke="black" stroke-width="0.75" stroke-linecap="round" stroke-linejoin="round"/>
<path d="M276.376 283.626L277.934 281.802C277.934 281.802 278.604 281.475 282.282 283.143" stroke="black" stroke-width="0.75" stroke-linecap="round" stroke-linejoin="round"/>
<path d="M270.47 325.89C270.47 325.89 273.088 321.074 276.594 321.074C280.101 321.074 282.719 328.944 282.719 328.944" stroke="black" stroke-linecap="round" stroke-linejoin="round"/>
<path d="M157.627 533.559C154.238 533.391 150.91 532.598 147.809 531.222C147.376 531.062 146.981 530.816 146.647 530.498C146.313 530.18 146.047 529.798 145.865 529.375C145.683 528.951 145.589 528.495 145.59 528.034C145.59 527.573 145.684 527.117 145.866 526.693C146.048 526.27 146.314 525.888 146.649 525.57C146.983 525.253 147.379 525.007 147.811 524.848C148.244 524.688 148.704 524.618 149.165 524.643C149.625 524.667 150.076 524.784 150.489 524.988C153.606 526.313 157.642 527.139 158.717 526.671C160.697 524.458 163.735 511.087 159.808 504.636C158.92 503.202 158.094 502.937 157.549 502.875C155.32 502.563 152.016 504.854 150.848 505.991C150.522 506.298 150.139 506.538 149.721 506.697C149.303 506.856 148.858 506.932 148.411 506.919C147.964 506.906 147.523 506.805 147.115 506.621C146.707 506.438 146.339 506.177 146.032 505.851C145.725 505.526 145.485 505.143 145.326 504.725C145.167 504.307 145.092 503.862 145.105 503.414C145.118 502.967 145.219 502.527 145.402 502.119C145.585 501.711 145.847 501.343 146.172 501.036C146.78 500.444 152.406 495.379 158.406 496.189C159.894 496.406 161.312 496.964 162.55 497.818C163.787 498.672 164.812 499.8 165.543 501.114C171.325 510.542 167.366 528.479 162.925 532.032C161.382 533.124 159.514 533.662 157.627 533.559Z" fill="white"/>
<path d="M162.193 503.607C161.784 502.639 161.144 501.786 160.329 501.123C159.514 500.46 158.549 500.007 157.518 499.804C153.622 499.181 149.96 503.093 149.555 503.529C149.182 503.978 148.952 504.527 148.894 505.107C148.835 505.688 148.951 506.272 149.227 506.786C149.84 506.663 150.407 506.372 150.864 505.944C152.032 504.854 155.336 502.563 157.565 502.828C158.11 502.828 158.936 503.155 159.824 504.589C163.751 510.978 160.713 524.411 158.733 526.624C157.658 527.092 153.637 526.266 150.505 524.941C150.12 524.779 149.708 524.689 149.29 524.676C149.318 525.103 149.453 525.517 149.681 525.879C149.91 526.241 150.225 526.54 150.599 526.749C152.569 527.801 154.743 528.418 156.972 528.557C158.245 528.618 159.491 528.182 160.448 527.341C163.377 524.645 165.964 510.853 162.193 503.607Z" fill="#A8CF45"/>
<path opacity="0.5" d="M162.193 503.607C161.784 502.639 161.144 501.786 160.329 501.123C159.514 500.46 158.549 500.007 157.518 499.804C153.622 499.181 149.96 503.093 149.555 503.529C149.182 503.978 148.952 504.527 148.894 505.107C148.835 505.688 148.951 506.272 149.227 506.786C149.84 506.663 150.407 506.372 150.864 505.944C152.032 504.854 155.336 502.563 157.565 502.828C158.11 502.828 158.936 503.155 159.824 504.589C163.751 510.978 160.713 524.411 158.733 526.624C157.658 527.092 153.637 526.266 150.505 524.941C150.12 524.779 149.708 524.689 149.29 524.676C149.318 525.103 149.453 525.517 149.681 525.879C149.91 526.241 150.225 526.54 150.599 526.749C152.569 527.801 154.743 528.418 156.972 528.557C158.245 528.618 159.491 528.182 160.448 527.341C163.377 524.645 165.964 510.853 162.193 503.607Z" fill="white"/>
<path d="M157.627 533.559C154.238 533.391 150.91 532.598 147.809 531.222C147.376 531.062 146.981 530.816 146.647 530.498C146.313 530.18 146.047 529.798 145.865 529.375C145.683 528.951 145.589 528.495 145.59 528.034C145.59 527.573 145.684 527.117 145.866 526.693C146.048 526.27 146.314 525.888 146.649 525.57C146.983 525.253 147.379 525.007 147.811 524.848C148.244 524.688 148.704 524.618 149.165 524.643C149.625 524.667 150.076 524.784 150.489 524.988C153.606 526.313 157.642 527.139 158.717 526.671C160.697 524.458 163.735 511.087 159.808 504.636C158.92 503.202 158.094 502.937 157.549 502.875C155.32 502.563 152.016 504.854 150.848 505.991C150.522 506.298 150.139 506.538 149.721 506.697C149.303 506.856 148.858 506.932 148.411 506.919C147.964 506.906 147.523 506.805 147.115 506.621C146.707 506.438 146.339 506.177 146.032 505.851C145.725 505.526 145.485 505.143 145.326 504.725C145.167 504.307 145.092 503.862 145.105 503.414C145.118 502.967 145.219 502.527 145.402 502.119C145.585 501.711 145.847 501.343 146.172 501.036C146.78 500.444 152.406 495.379 158.406 496.189C159.894 496.406 161.312 496.964 162.55 497.818C163.787 498.672 164.812 499.8 165.543 501.114C171.325 510.542 167.366 528.479 162.925 532.032C161.382 533.124 159.514 533.662 157.627 533.559V533.559Z" stroke="black" stroke-opacity="0.8" stroke-linecap="round" stroke-linejoin="round"/>
<path d="M151.673 493.353L114.194 493.353L114.194 543.096L151.673 543.096L151.673 493.353Z" fill="white"/>
<path d="M129.544 493.353L114.194 493.353L114.194 543.096L129.544 543.096L129.544 493.353Z" fill="#A8CF45"/>
<path opacity="0.5" d="M129.544 493.353L114.194 493.353L114.194 543.096L129.544 543.096L129.544 493.353Z" fill="white"/>
<path d="M151.673 493.353L114.194 493.353L114.194 543.096L151.673 543.096L151.673 493.353Z" stroke="black" stroke-opacity="0.8" stroke-linecap="round" stroke-linejoin="round"/>
<path d="M357.134 541.999L197.026 541.999L191.805 453.982C191.661 453.128 191.704 452.254 191.93 451.418C192.157 450.583 192.562 449.807 193.117 449.143C193.673 448.479 194.366 447.944 195.148 447.574C195.93 447.204 196.784 447.008 197.649 447L356.449 447C357.319 446.999 358.18 447.188 358.97 447.554C359.76 447.92 360.461 448.454 361.023 449.119C361.585 449.784 361.996 450.563 362.226 451.403C362.456 452.243 362.5 453.123 362.355 453.982L357.134 541.999Z" fill="#0F0F0F" stroke="#0F0F0F" stroke-linecap="round" stroke-linejoin="round"/>
<path d="M204.911 449.104L355.295 449.104C356.145 449.095 356.986 449.272 357.76 449.623C358.534 449.973 359.221 450.489 359.775 451.133C360.329 451.777 360.735 452.535 360.965 453.353C361.196 454.17 361.244 455.029 361.108 455.867" stroke="white" stroke-linecap="round" stroke-linejoin="round"/>
<path d="M192.974 454.481C193.099 453.008 193.775 451.637 194.867 450.64C195.959 449.644 197.386 449.095 198.864 449.105" stroke="white" stroke-linecap="round" stroke-linejoin="round"/>
<path d="M357.804 533.428L196.355 533.428L196.355 541.999L357.804 541.999L357.804 533.428Z" fill="white" stroke="#0F0F0F" stroke-linecap="round" stroke-linejoin="round"/>
<path d="M276.504 501.7C282.821 501.7 287.943 498.63 287.943 494.843C287.943 491.056 282.821 487.986 276.504 487.986C270.187 487.986 265.065 491.056 265.065 494.843C265.065 498.63 270.187 501.7 276.504 501.7Z" fill="white" stroke="#0F0F0F" stroke-linecap="round" stroke-linejoin="round"/>
<path d="M601.318 540.986L0 540.986L-6.31121e-10 555.588L601.318 555.588L601.318 540.986Z" fill="#0F0F0F"/>
<path d="M445.897 -1.8537e-08L156.614 -1.06633e-09C146.863 -4.77411e-10 138.958 7.90508 138.958 17.6565L138.958 183.64C138.958 193.391 146.863 201.296 156.614 201.296L445.897 201.296C455.649 201.296 463.554 193.391 463.554 183.64L463.554 17.6565C463.554 7.90508 455.649 -1.91259e-08 445.897 -1.8537e-08Z" fill="#012C7A"/>
<path d="M308.889 115.68C335.129 111.462 352.983 86.7713 348.766 60.5305C344.549 34.2896 319.858 16.436 293.617 20.6532C267.376 24.8704 249.522 49.5614 253.739 75.8023C257.957 102.043 282.648 119.897 308.889 115.68Z" fill="black" fill-opacity="0.8"/>
<path d="M300.889 77.0617L284.854 97.6479C284.308 98.5049 283.559 99.2128 282.672 99.7079C281.785 100.203 280.789 100.47 279.773 100.484C278.38 100.503 277.036 99.9711 276.033 99.0037C275.523 98.5361 275.12 97.9642 274.851 97.3269C274.583 96.6896 274.454 96.0018 274.475 95.3103C274.525 93.7619 275.071 92.2705 276.033 91.0559L294.313 68.4438L277.171 45.8161C276.374 44.7542 275.937 43.4657 275.924 42.1383C275.92 41.3466 276.08 40.5627 276.394 39.8359C276.708 39.109 277.168 38.455 277.747 37.9151C278.291 37.3474 278.944 36.8958 279.668 36.5878C280.391 36.2798 281.169 36.1216 281.955 36.1229C282.962 36.1393 283.948 36.4074 284.825 36.9028C285.701 37.3982 286.44 38.1052 286.973 38.9592L302.463 59.3584L318.047 39.302C318.604 38.3663 319.384 37.5825 320.316 37.0198C321.248 36.4571 322.305 36.133 323.392 36.0762C324.067 36.0745 324.735 36.212 325.355 36.4802C325.974 36.7483 326.532 37.1413 326.992 37.6346C327.483 38.097 327.875 38.6547 328.143 39.2737C328.411 39.8927 328.55 40.5599 328.551 41.2344C328.534 42.4415 328.118 43.6089 327.366 44.5538L309.024 68.023L326.743 91.3988C327.581 92.4437 328.047 93.7376 328.068 95.0766C328.073 95.8508 327.909 96.617 327.589 97.3219C327.269 98.0269 326.8 98.6539 326.213 99.1596C325.07 100.259 323.545 100.873 321.959 100.874C320.947 100.861 319.955 100.595 319.073 100.099C318.19 99.6039 317.447 98.895 316.91 98.0375L300.889 77.0617Z" fill="white"/>
<path d="M392.943 166.436L209.506 166.436C205.786 166.436 202.219 164.958 199.588 162.328C196.958 159.697 195.48 156.13 195.48 152.41C195.48 148.69 196.958 145.123 199.588 142.493C202.219 139.862 205.786 138.385 209.506 138.385L392.943 138.385C396.663 138.385 400.23 139.862 402.861 142.493C405.491 145.123 406.969 148.69 406.969 152.41C406.969 156.13 405.491 159.697 402.861 162.328C400.23 164.958 396.663 166.436 392.943 166.436Z" fill="white"/>
<path d="M234.642 156.93C234.519 156.93 234.398 156.905 234.286 156.857C234.173 156.808 234.072 156.738 233.987 156.649C233.895 156.558 233.823 156.448 233.774 156.328C233.726 156.207 233.703 156.078 233.707 155.948C233.707 155.728 233.766 155.513 233.878 155.324L235.281 153.143L232.413 153.143C232.281 153.15 232.148 153.128 232.025 153.08C231.901 153.031 231.789 152.957 231.696 152.862C231.536 152.676 231.448 152.438 231.448 152.192C231.448 151.946 231.536 151.709 231.696 151.522C231.789 151.427 231.901 151.353 232.025 151.305C232.148 151.256 232.281 151.235 232.413 151.242L235.234 151.319L233.987 149.294C233.862 149.086 233.793 148.85 233.785 148.608C233.781 148.478 233.804 148.349 233.852 148.228C233.901 148.108 233.973 147.998 234.065 147.907C234.153 147.817 234.257 147.747 234.372 147.699C234.487 147.65 234.611 147.626 234.735 147.626C234.91 147.623 235.081 147.672 235.228 147.767C235.375 147.861 235.491 147.996 235.561 148.156L236.933 150.603L238.242 148.265C238.324 148.083 238.455 147.927 238.62 147.815C238.785 147.702 238.977 147.637 239.177 147.626C239.299 147.626 239.42 147.651 239.533 147.699C239.645 147.747 239.747 147.818 239.831 147.907C239.923 147.992 239.995 148.096 240.043 148.212C240.091 148.327 240.115 148.452 240.112 148.577C240.11 148.798 240.045 149.014 239.925 149.2L238.553 151.397L241.405 151.319C241.538 151.312 241.671 151.333 241.794 151.381C241.918 151.429 242.03 151.504 242.122 151.6C242.282 151.786 242.37 152.024 242.37 152.27C242.37 152.516 242.282 152.754 242.122 152.94C242.03 153.036 241.918 153.111 241.794 153.159C241.671 153.207 241.538 153.229 241.405 153.221L238.522 153.221L239.8 155.215C239.944 155.456 240.025 155.73 240.034 156.01C240.038 156.136 240.017 156.262 239.972 156.38C239.926 156.498 239.857 156.605 239.769 156.696C239.687 156.783 239.588 156.853 239.478 156.901C239.368 156.95 239.25 156.975 239.13 156.976C238.937 156.972 238.75 156.912 238.589 156.804C238.429 156.697 238.303 156.545 238.226 156.369L236.933 154.078L235.639 156.369C235.546 156.549 235.401 156.698 235.224 156.798C235.047 156.898 234.845 156.943 234.642 156.93Z" fill="black"/>
<path d="M248.948 156.928C248.826 156.928 248.705 156.904 248.592 156.855C248.48 156.807 248.378 156.737 248.294 156.648C248.202 156.556 248.129 156.447 248.081 156.326C248.033 156.206 248.01 156.077 248.013 155.947C248.013 155.727 248.073 155.512 248.185 155.323L249.587 153.142L246.72 153.142C246.587 153.148 246.455 153.127 246.331 153.079C246.208 153.03 246.096 152.956 246.003 152.861C245.843 152.675 245.755 152.437 245.755 152.191C245.755 151.945 245.843 151.707 246.003 151.521C246.096 151.426 246.208 151.352 246.331 151.303C246.455 151.255 246.587 151.234 246.72 151.24L249.541 151.318L248.216 149.214C248.091 149.007 248.021 148.771 248.013 148.529C248.01 148.399 248.033 148.27 248.081 148.149C248.129 148.028 248.202 147.919 248.294 147.827C248.381 147.738 248.486 147.668 248.601 147.619C248.716 147.571 248.839 147.547 248.964 147.547C249.139 147.544 249.31 147.593 249.457 147.688C249.604 147.782 249.72 147.917 249.79 148.077L251.161 150.523L252.47 148.186C252.553 148.004 252.684 147.848 252.849 147.736C253.013 147.623 253.206 147.558 253.405 147.547C253.528 147.547 253.649 147.572 253.762 147.62C253.874 147.668 253.976 147.739 254.06 147.827C254.151 147.913 254.224 148.017 254.272 148.133C254.32 148.248 254.344 148.372 254.34 148.498C254.338 148.719 254.274 148.935 254.153 149.121L252.782 151.318L255.634 151.24C255.767 151.233 255.899 151.254 256.023 151.302C256.147 151.35 256.259 151.425 256.351 151.521C256.511 151.707 256.599 151.945 256.599 152.191C256.599 152.437 256.511 152.675 256.351 152.861C256.259 152.957 256.147 153.032 256.023 153.08C255.899 153.128 255.767 153.149 255.634 153.142L252.751 153.142L254.029 155.136C254.173 155.377 254.253 155.651 254.263 155.931C254.267 156.057 254.246 156.183 254.2 156.301C254.155 156.419 254.086 156.526 253.998 156.617C253.916 156.704 253.817 156.774 253.707 156.822C253.597 156.871 253.479 156.896 253.359 156.897C253.165 156.894 252.977 156.836 252.816 156.728C252.656 156.62 252.53 156.468 252.455 156.29L251.161 153.999L249.868 156.29C249.791 156.472 249.664 156.629 249.501 156.743C249.338 156.856 249.147 156.92 248.948 156.928Z" fill="black"/>
<path d="M263.254 156.928C263.132 156.928 263.011 156.904 262.898 156.855C262.786 156.807 262.684 156.737 262.6 156.648C262.507 156.556 262.435 156.447 262.387 156.326C262.338 156.206 262.315 156.077 262.319 155.947C262.319 155.727 262.378 155.512 262.491 155.323L263.893 153.142L261.026 153.142C260.893 153.148 260.761 153.127 260.637 153.079C260.513 153.03 260.402 152.956 260.309 152.861C260.149 152.675 260.061 152.437 260.061 152.191C260.061 151.945 260.149 151.707 260.309 151.521C260.402 151.426 260.513 151.352 260.637 151.303C260.761 151.255 260.893 151.234 261.026 151.24L263.846 151.318L262.522 149.214C262.397 149.007 262.327 148.771 262.319 148.529C262.315 148.399 262.338 148.27 262.387 148.149C262.435 148.028 262.507 147.919 262.6 147.827C262.687 147.738 262.791 147.668 262.906 147.619C263.021 147.571 263.145 147.547 263.27 147.547C263.444 147.544 263.616 147.593 263.763 147.688C263.909 147.782 264.025 147.917 264.096 148.077L265.467 150.523L266.776 148.186C266.859 148.004 266.989 147.848 267.154 147.736C267.319 147.623 267.512 147.558 267.711 147.547C267.834 147.547 267.955 147.572 268.067 147.62C268.18 147.668 268.281 147.739 268.366 147.827C268.457 147.913 268.529 148.017 268.578 148.133C268.626 148.248 268.649 148.372 268.646 148.498C268.644 148.719 268.579 148.935 268.459 149.121L267.088 151.318L269.94 151.24C270.072 151.233 270.205 151.254 270.329 151.302C270.453 151.35 270.564 151.425 270.656 151.521C270.817 151.707 270.905 151.945 270.905 152.191C270.905 152.437 270.817 152.675 270.656 152.861C270.564 152.957 270.453 153.032 270.329 153.08C270.205 153.128 270.072 153.149 269.94 153.142L267.057 153.142L268.334 155.136C268.479 155.377 268.559 155.651 268.568 155.931C268.573 156.057 268.552 156.183 268.506 156.301C268.46 156.419 268.392 156.526 268.303 156.617C268.221 156.704 268.122 156.774 268.013 156.822C267.903 156.871 267.784 156.896 267.664 156.897C267.471 156.894 267.283 156.836 267.122 156.728C266.962 156.62 266.836 156.468 266.761 156.29L265.467 153.999L264.174 156.29C264.097 156.472 263.97 156.629 263.807 156.743C263.644 156.856 263.452 156.92 263.254 156.928Z" fill="black"/>
<path d="M277.622 156.928C277.5 156.928 277.379 156.904 277.266 156.855C277.154 156.807 277.052 156.737 276.968 156.648C276.876 156.556 276.803 156.447 276.755 156.326C276.707 156.206 276.684 156.077 276.687 155.947C276.687 155.727 276.746 155.512 276.859 155.323L278.261 153.142L275.394 153.142C275.261 153.148 275.129 153.127 275.005 153.079C274.882 153.03 274.77 152.956 274.677 152.861C274.517 152.675 274.429 152.437 274.429 152.191C274.429 151.945 274.517 151.707 274.677 151.521C274.77 151.426 274.882 151.352 275.005 151.303C275.129 151.255 275.261 151.234 275.394 151.24L278.215 151.318L276.89 149.214C276.765 149.007 276.695 148.771 276.687 148.529C276.684 148.399 276.707 148.27 276.755 148.149C276.803 148.028 276.876 147.919 276.968 147.827C277.055 147.738 277.159 147.668 277.274 147.619C277.39 147.571 277.513 147.547 277.638 147.547C277.812 147.544 277.984 147.593 278.131 147.688C278.278 147.782 278.393 147.917 278.464 148.077L279.835 150.523L281.144 148.186C281.227 148.004 281.357 147.848 281.522 147.736C281.687 147.623 281.88 147.558 282.079 147.547C282.202 147.547 282.323 147.572 282.435 147.62C282.548 147.668 282.649 147.739 282.734 147.827C282.825 147.913 282.897 148.017 282.946 148.133C282.994 148.248 283.017 148.372 283.014 148.498C283.012 148.719 282.947 148.935 282.827 149.121L281.456 151.318L284.308 151.24C284.44 151.233 284.573 151.254 284.697 151.302C284.821 151.35 284.933 151.425 285.025 151.521C285.185 151.707 285.273 151.945 285.273 152.191C285.273 152.437 285.185 152.675 285.025 152.861C284.933 152.957 284.821 153.032 284.697 153.08C284.573 153.128 284.44 153.149 284.308 153.142L281.425 153.142L282.703 155.136C282.847 155.377 282.927 155.651 282.936 155.931C282.941 156.057 282.92 156.183 282.874 156.301C282.829 156.419 282.76 156.526 282.671 156.617C282.589 156.704 282.491 156.774 282.381 156.822C282.271 156.871 282.152 156.896 282.033 156.897C281.84 156.893 281.652 156.833 281.492 156.725C281.332 156.618 281.206 156.466 281.129 156.29L279.835 153.999L278.542 156.29C278.465 156.472 278.338 156.629 278.175 156.743C278.012 156.856 277.82 156.92 277.622 156.928Z" fill="black"/>
<path d="M291.865 156.928C291.743 156.928 291.622 156.904 291.509 156.855C291.397 156.807 291.295 156.737 291.211 156.648C291.119 156.556 291.046 156.447 290.998 156.326C290.95 156.206 290.927 156.077 290.93 155.947C290.938 155.728 290.996 155.515 291.102 155.323L292.504 153.142L289.637 153.142C289.504 153.148 289.372 153.127 289.248 153.079C289.125 153.03 289.013 152.956 288.92 152.861C288.76 152.675 288.672 152.437 288.672 152.191C288.672 151.945 288.76 151.707 288.92 151.521C289.013 151.426 289.125 151.352 289.248 151.303C289.372 151.255 289.504 151.234 289.637 151.24L292.458 151.318L291.133 149.214C291.008 149.007 290.938 148.771 290.93 148.529C290.927 148.399 290.95 148.27 290.998 148.149C291.046 148.028 291.119 147.919 291.211 147.827C291.298 147.738 291.403 147.668 291.518 147.62C291.633 147.571 291.756 147.547 291.881 147.547C292.056 147.544 292.227 147.593 292.374 147.688C292.521 147.782 292.637 147.917 292.707 148.077L294.078 150.523L295.387 148.186C295.47 148.004 295.601 147.848 295.766 147.736C295.93 147.623 296.123 147.558 296.322 147.547C296.445 147.545 296.567 147.569 296.68 147.617C296.792 147.666 296.894 147.737 296.977 147.827C297.068 147.913 297.141 148.017 297.189 148.133C297.237 148.248 297.261 148.372 297.257 148.498C297.255 148.719 297.191 148.935 297.07 149.121L295.699 151.318L298.551 151.24C298.684 151.233 298.816 151.254 298.94 151.302C299.064 151.35 299.176 151.425 299.268 151.521C299.428 151.707 299.516 151.945 299.516 152.191C299.516 152.437 299.428 152.675 299.268 152.861C299.176 152.957 299.064 153.032 298.94 153.08C298.816 153.128 298.684 153.149 298.551 153.142L295.668 153.142L296.946 155.136C297.09 155.377 297.17 155.651 297.18 155.931C297.184 156.057 297.163 156.183 297.117 156.301C297.072 156.419 297.003 156.526 296.915 156.617C296.833 156.704 296.734 156.774 296.624 156.822C296.514 156.871 296.396 156.896 296.276 156.897C296.083 156.893 295.895 156.833 295.735 156.725C295.575 156.618 295.449 156.466 295.372 156.29L294.078 153.999L292.785 156.29C292.708 156.472 292.581 156.629 292.418 156.743C292.255 156.856 292.064 156.92 291.865 156.928Z" fill="black"/>
<path d="M306.172 156.928C306.05 156.928 305.929 156.904 305.816 156.855C305.704 156.807 305.602 156.737 305.518 156.648C305.425 156.556 305.353 156.447 305.305 156.326C305.256 156.206 305.233 156.077 305.237 155.947C305.244 155.728 305.303 155.515 305.408 155.323L306.811 153.142L303.959 153.142C303.824 153.15 303.689 153.129 303.563 153.08C303.436 153.032 303.322 152.957 303.227 152.861C303.067 152.675 302.979 152.437 302.979 152.191C302.979 151.945 303.067 151.707 303.227 151.521C303.322 151.425 303.436 151.35 303.563 151.302C303.689 151.253 303.824 151.232 303.959 151.24L306.764 151.318L305.44 149.214C305.315 149.007 305.245 148.771 305.237 148.529C305.233 148.399 305.256 148.27 305.305 148.149C305.353 148.028 305.425 147.919 305.518 147.827C305.605 147.738 305.709 147.668 305.824 147.62C305.939 147.571 306.063 147.547 306.188 147.547C306.362 147.544 306.534 147.593 306.68 147.688C306.827 147.782 306.943 147.917 307.014 148.077L308.385 150.523L309.694 148.186C309.776 148.004 309.907 147.848 310.072 147.736C310.237 147.623 310.43 147.558 310.629 147.547C310.752 147.545 310.873 147.569 310.986 147.617C311.099 147.666 311.2 147.737 311.284 147.827C311.375 147.913 311.447 148.017 311.495 148.133C311.544 148.248 311.567 148.372 311.564 148.498C311.562 148.719 311.497 148.935 311.377 149.121L310.006 151.318L312.858 151.24C312.99 151.233 313.123 151.254 313.247 151.302C313.371 151.35 313.482 151.425 313.574 151.521C313.735 151.707 313.823 151.945 313.823 152.191C313.823 152.437 313.735 152.675 313.574 152.861C313.482 152.957 313.371 153.032 313.247 153.08C313.123 153.128 312.99 153.149 312.858 153.142L309.975 153.142L311.252 155.136C311.397 155.377 311.477 155.651 311.486 155.931C311.491 156.057 311.469 156.183 311.424 156.301C311.378 156.419 311.309 156.526 311.221 156.617C311.139 156.704 311.04 156.774 310.93 156.822C310.821 156.871 310.702 156.896 310.582 156.897C310.389 156.893 310.202 156.833 310.042 156.725C309.882 156.618 309.756 156.466 309.678 156.29L308.385 153.999L307.092 156.29C307.015 156.472 306.888 156.629 306.725 156.743C306.562 156.856 306.37 156.92 306.172 156.928Z" fill="black"/>
<path d="M320.478 156.93C320.355 156.93 320.234 156.905 320.122 156.857C320.009 156.808 319.908 156.738 319.823 156.649C319.731 156.558 319.659 156.448 319.61 156.328C319.562 156.207 319.539 156.078 319.543 155.948C319.543 155.728 319.602 155.513 319.714 155.324L321.117 153.143L318.249 153.143C318.117 153.15 317.984 153.128 317.861 153.08C317.737 153.031 317.625 152.957 317.532 152.862C317.372 152.676 317.284 152.438 317.284 152.192C317.284 151.946 317.372 151.709 317.532 151.522C317.625 151.427 317.737 151.353 317.861 151.305C317.984 151.256 318.117 151.235 318.249 151.242L321.07 151.319L319.699 149.294C319.574 149.086 319.504 148.85 319.496 148.608C319.492 148.478 319.515 148.349 319.564 148.228C319.612 148.108 319.684 147.998 319.776 147.907C319.864 147.818 319.968 147.747 320.083 147.699C320.198 147.65 320.322 147.626 320.447 147.626C320.621 147.623 320.792 147.672 320.939 147.767C321.086 147.861 321.202 147.996 321.273 148.156L322.644 150.603L323.953 148.265C324.035 148.083 324.166 147.927 324.331 147.815C324.496 147.702 324.689 147.637 324.888 147.626C325.011 147.624 325.132 147.648 325.245 147.697C325.358 147.745 325.459 147.816 325.542 147.907C325.634 147.992 325.706 148.096 325.754 148.212C325.803 148.327 325.826 148.452 325.823 148.577C325.821 148.798 325.756 149.014 325.636 149.2L324.265 151.397L327.116 151.319C327.249 151.312 327.382 151.333 327.506 151.381C327.629 151.43 327.741 151.504 327.833 151.6C327.994 151.786 328.082 152.024 328.082 152.27C328.082 152.516 327.994 152.754 327.833 152.94C327.741 153.036 327.629 153.111 327.506 153.159C327.382 153.207 327.249 153.229 327.116 153.221L324.233 153.221L325.511 155.215C325.656 155.456 325.736 155.73 325.745 156.01C325.75 156.136 325.728 156.262 325.683 156.38C325.637 156.498 325.568 156.605 325.48 156.696C325.398 156.783 325.299 156.853 325.189 156.901C325.08 156.95 324.961 156.975 324.841 156.976C324.648 156.972 324.461 156.912 324.301 156.804C324.141 156.697 324.014 156.545 323.937 156.369L322.644 154.078L321.35 156.369C321.266 156.53 321.142 156.667 320.989 156.765C320.836 156.864 320.659 156.92 320.478 156.93Z" fill="black"/>
<path d="M334.784 156.929C334.661 156.929 334.54 156.904 334.428 156.856C334.315 156.807 334.214 156.737 334.129 156.648C334.037 156.557 333.965 156.447 333.916 156.327C333.868 156.206 333.845 156.077 333.849 155.947C333.856 155.729 333.915 155.515 334.02 155.324L335.423 153.142L332.571 153.142C332.438 153.152 332.305 153.132 332.181 153.083C332.056 153.035 331.945 152.959 331.854 152.861C331.684 152.68 331.59 152.44 331.59 152.191C331.59 151.943 331.684 151.703 331.854 151.521C331.945 151.424 332.056 151.348 332.181 151.299C332.305 151.251 332.438 151.231 332.571 151.241L335.376 151.319L334.051 149.215C333.926 149.007 333.857 148.771 333.849 148.529C333.845 148.402 333.866 148.275 333.912 148.156C333.958 148.037 334.027 147.928 334.116 147.837C334.205 147.745 334.311 147.672 334.428 147.623C334.546 147.573 334.672 147.547 334.799 147.547C334.974 147.545 335.145 147.594 335.292 147.688C335.439 147.782 335.555 147.917 335.625 148.077L336.997 150.524L338.306 148.186C338.388 148.004 338.519 147.849 338.684 147.736C338.849 147.623 339.041 147.558 339.241 147.547C339.364 147.543 339.486 147.566 339.599 147.615C339.712 147.663 339.813 147.736 339.895 147.828C339.987 147.913 340.059 148.017 340.107 148.133C340.156 148.248 340.179 148.373 340.176 148.498C340.174 148.719 340.109 148.935 339.989 149.121L338.618 151.319L341.469 151.241C341.602 151.233 341.735 151.254 341.859 151.302C341.982 151.351 342.094 151.425 342.186 151.521C342.346 151.708 342.434 151.945 342.434 152.191C342.434 152.437 342.346 152.675 342.186 152.861C342.094 152.957 341.982 153.032 341.859 153.08C341.735 153.129 341.602 153.15 341.469 153.142L338.586 153.142L339.864 155.137C340.008 155.377 340.089 155.651 340.098 155.931C340.102 156.054 340.082 156.177 340.039 156.292C339.996 156.407 339.93 156.512 339.846 156.602C339.762 156.692 339.662 156.764 339.55 156.815C339.438 156.865 339.317 156.894 339.194 156.898C339.001 156.893 338.814 156.833 338.654 156.726C338.493 156.618 338.367 156.467 338.29 156.29L336.997 153.999L335.703 156.29C335.627 156.473 335.499 156.63 335.336 156.743C335.174 156.856 334.982 156.921 334.784 156.929Z" fill="black"/>
<path d="M349.09 156.929C348.967 156.929 348.846 156.904 348.733 156.856C348.621 156.807 348.519 156.737 348.435 156.648C348.343 156.557 348.27 156.447 348.222 156.327C348.174 156.206 348.151 156.077 348.155 155.947C348.162 155.729 348.22 155.515 348.326 155.324L349.728 153.142L346.861 153.142C346.731 153.15 346.6 153.128 346.479 153.08C346.358 153.031 346.249 152.957 346.16 152.861C345.99 152.68 345.896 152.44 345.896 152.191C345.896 151.943 345.99 151.703 346.16 151.521C346.249 151.426 346.358 151.351 346.479 151.303C346.6 151.254 346.731 151.233 346.861 151.241L349.682 151.319L348.357 149.215C348.232 149.007 348.162 148.771 348.155 148.529C348.15 148.402 348.172 148.275 348.218 148.156C348.264 148.037 348.333 147.928 348.422 147.837C348.51 147.745 348.617 147.672 348.734 147.623C348.851 147.573 348.978 147.547 349.105 147.547C349.28 147.545 349.451 147.594 349.598 147.688C349.745 147.782 349.861 147.917 349.931 148.077L351.302 150.524L352.611 148.186C352.694 148.004 352.825 147.849 352.99 147.736C353.154 147.623 353.347 147.558 353.547 147.547C353.669 147.543 353.792 147.566 353.905 147.615C354.018 147.663 354.119 147.736 354.201 147.828C354.292 147.913 354.365 148.017 354.413 148.133C354.461 148.248 354.485 148.373 354.482 148.498C354.479 148.719 354.415 148.935 354.295 149.121L352.923 151.319L355.775 151.241C355.908 151.233 356.04 151.254 356.164 151.302C356.288 151.351 356.4 151.425 356.492 151.521C356.652 151.708 356.74 151.945 356.74 152.191C356.74 152.437 356.652 152.675 356.492 152.861C356.4 152.957 356.288 153.032 356.164 153.08C356.04 153.129 355.908 153.15 355.775 153.142L352.892 153.142L354.17 155.137C354.314 155.377 354.394 155.651 354.404 155.931C354.408 156.054 354.388 156.177 354.345 156.292C354.301 156.407 354.236 156.512 354.152 156.602C354.068 156.692 353.967 156.764 353.855 156.815C353.743 156.865 353.623 156.894 353.5 156.898C353.307 156.893 353.119 156.833 352.959 156.726C352.799 156.618 352.673 156.467 352.596 156.29L351.302 153.999L350.009 156.29C349.932 156.473 349.805 156.63 349.642 156.743C349.479 156.856 349.288 156.921 349.09 156.929Z" fill="black"/>
<path d="M363.334 156.929C363.211 156.929 363.09 156.904 362.978 156.856C362.865 156.807 362.764 156.737 362.679 156.648C362.587 156.557 362.514 156.447 362.466 156.327C362.418 156.206 362.395 156.077 362.399 155.947C362.406 155.729 362.465 155.515 362.57 155.324L363.973 153.142L361.105 153.142C360.975 153.15 360.844 153.128 360.723 153.08C360.602 153.031 360.493 152.957 360.404 152.861C360.234 152.68 360.14 152.44 360.14 152.191C360.14 151.943 360.234 151.703 360.404 151.521C360.493 151.426 360.602 151.351 360.723 151.303C360.844 151.254 360.975 151.233 361.105 151.241L363.926 151.319L362.601 149.215C362.476 149.007 362.406 148.771 362.399 148.529C362.395 148.399 362.418 148.27 362.466 148.149C362.514 148.029 362.587 147.919 362.679 147.828C362.766 147.739 362.871 147.668 362.986 147.62C363.101 147.572 363.224 147.547 363.349 147.547C363.524 147.545 363.695 147.594 363.842 147.688C363.989 147.782 364.105 147.917 364.175 148.077L365.547 150.524L366.856 148.186C366.938 148.004 367.069 147.849 367.234 147.736C367.399 147.623 367.591 147.558 367.791 147.547C367.914 147.543 368.036 147.566 368.149 147.615C368.262 147.663 368.363 147.736 368.445 147.828C368.536 147.913 368.609 148.017 368.657 148.133C368.705 148.248 368.729 148.373 368.726 148.498C368.724 148.719 368.659 148.935 368.539 149.121L367.167 151.319L370.019 151.241C370.152 151.233 370.285 151.254 370.408 151.302C370.532 151.351 370.644 151.425 370.736 151.521C370.896 151.708 370.984 151.945 370.984 152.191C370.984 152.437 370.896 152.675 370.736 152.861C370.644 152.957 370.532 153.032 370.408 153.08C370.285 153.129 370.152 153.15 370.019 153.142L367.136 153.142L368.414 155.137C368.558 155.377 368.639 155.651 368.648 155.931C368.652 156.058 368.631 156.184 368.585 156.301C368.54 156.419 368.471 156.527 368.383 156.617C368.301 156.705 368.202 156.775 368.092 156.823C367.982 156.871 367.864 156.896 367.744 156.898C367.551 156.893 367.363 156.833 367.203 156.726C367.043 156.618 366.917 156.467 366.84 156.29L365.547 153.999L364.253 156.29C364.176 156.473 364.049 156.63 363.886 156.743C363.723 156.856 363.532 156.921 363.334 156.929Z" fill="black"/>
<path d="M412.36 191.4L431.419 191.4" stroke="white" stroke-width="3" stroke-linecap="round" stroke-linejoin="round"/>
<path d="M148.012 51.0684L148.012 177.656C148.012 181.322 149.468 184.838 152.06 187.43C154.653 190.022 158.169 191.479 161.835 191.479L394.267 191.479" stroke="white" stroke-width="3" stroke-linecap="round" stroke-linejoin="round"/>
<path d="M148.012 17.501L148.012 36.4821" stroke="white" stroke-width="3" stroke-linecap="round" stroke-linejoin="round"/>
</svg>
