<svg width="488" height="423" viewBox="0 0 488 423" fill="none" xmlns="http://www.w3.org/2000/svg">
<path d="M61.4211 89.493C140.6 -0.601864 276.539 -15.597 337.141 13.3423C360.689 24.5004 382.47 39.0556 401.788 56.5422C404.32 58.8022 406.779 61.1263 409.167 63.5143C416.624 70.8589 423.617 78.6596 430.106 86.8714C437.884 96.6949 444.899 107.099 451.09 117.992C459.962 133.493 466.989 149.978 472.029 167.113C475.364 178.355 477.552 189.906 478.561 201.589C480.289 223.522 478.787 245.659 475.837 267.412C475.566 269.491 475.272 271.57 474.956 273.649C474.877 274.225 474.798 274.779 474.707 275.378C471.464 297.04 466.876 318.894 456.627 337.788C445.44 358.433 406.41 415.713 364.08 417.193C342.124 417.973 322.734 403.633 302.834 393.463C271.194 377.327 235.385 374.163 200.468 373.225C165.551 372.287 130.204 373.293 96.1799 364.637C62.1556 355.981 28.798 336.104 11.4073 303.063C5.4974 291.831 1.0113 275.649 1 262.699C1 224.494 7.2376 191.08 18.1308 162.05C21.5899 152.794 25.6243 143.763 30.2105 135.009C36.928 122.175 44.843 110.003 53.8501 98.6573L61.4211 89.493Z" fill="#1A3F74"/>
<g opacity="0.7">
<path d="M61.4211 89.493C140.6 -0.601864 276.539 -15.597 337.141 13.3423C360.689 24.5004 382.47 39.0556 401.788 56.5422C404.32 58.8022 406.779 61.1263 409.167 63.5143C416.624 70.8589 423.617 78.6596 430.106 86.8714C437.884 96.6949 444.899 107.099 451.09 117.992C459.962 133.493 466.989 149.978 472.029 167.113C475.364 178.355 477.552 189.906 478.561 201.589C480.289 223.522 478.787 245.659 475.837 267.412C475.566 269.491 475.272 271.57 474.956 273.649C474.877 274.225 474.798 274.779 474.707 275.378C471.464 297.04 466.876 318.894 456.627 337.788C445.44 358.433 406.41 415.713 364.08 417.193C342.124 417.973 322.734 403.633 302.834 393.463C271.194 377.327 235.385 374.163 200.468 373.225C165.551 372.287 130.204 373.293 96.1799 364.637C62.1556 355.981 28.798 336.104 11.4073 303.063C5.4974 291.831 1.0113 275.649 1 262.699C1 224.494 7.2376 191.08 18.1308 162.05C21.5899 152.794 25.6243 143.763 30.2105 135.009C36.928 122.175 44.843 110.003 53.8501 98.6573L61.4211 89.493Z" fill="#F8FDF8"/>
</g>
<path d="M1 415.883H486.956" stroke="black" stroke-linecap="round" stroke-linejoin="round"/>
<path d="M374.985 251.953V252.077C374.985 252.281 375.03 252.496 375.121 252.722C375.626 255.198 376.003 257.698 376.251 260.213C376.465 262.372 376.635 264.835 376.68 267.581C376.787 273.927 376.353 280.27 375.381 286.542C375.132 288.192 374.838 289.932 374.488 291.673C373.934 294.543 373.256 297.549 372.42 300.656C372.047 302.103 371.618 303.583 371.166 305.074L370.635 306.894C370.431 307.628 370.228 308.363 370.036 309.154C368.737 314.174 367.7 319.258 366.928 324.386C365.968 330.771 365.369 337.11 365.041 343.11C364.6 351.111 364.623 358.501 364.815 364.58C364.81 364.682 364.81 364.784 364.815 364.885C365.019 371.066 365.403 375.914 365.663 378.671C365.81 380.287 365.911 381.203 365.923 381.259" stroke="black" stroke-linecap="round" stroke-linejoin="round"/>
<path d="M375.018 252.112C373.327 250.609 371.288 249.549 369.086 249.027L375.018 252.112Z" fill="#F8FDF8"/>
<path d="M375.018 252.112C373.327 250.609 371.288 249.549 369.086 249.027" stroke="black" stroke-linecap="round" stroke-linejoin="round"/>
<path d="M376.284 260.249L379.29 257.525" stroke="black" stroke-linecap="round" stroke-linejoin="round"/>
<path d="M372.454 300.668C372.296 299.875 372.061 299.099 371.753 298.351C371.308 297.255 370.702 296.231 369.956 295.312C369.4 294.621 368.767 293.996 368.069 293.447" stroke="black" stroke-linecap="round" stroke-linejoin="round"/>
<path d="M370.047 309.144C370.473 308.089 371.111 307.132 371.921 306.333C372.732 305.535 373.697 304.911 374.759 304.5" stroke="black" stroke-linecap="round" stroke-linejoin="round"/>
<path d="M364.826 351.18C365.832 349.96 366.589 345.338 366.996 342.852C367.097 342.265 367.177 341.722 367.256 341.395" fill="#F8FDF8"/>
<path d="M364.826 351.18C365.832 349.96 366.589 345.338 366.996 342.852C367.097 342.265 367.177 341.722 367.256 341.395" stroke="black" stroke-linecap="round" stroke-linejoin="round"/>
<path d="M357.086 359.564C357.42 359.531 357.757 359.531 358.092 359.564C359.572 359.708 360.985 360.252 362.179 361.138C363.374 362.024 364.304 363.218 364.872 364.593" fill="#F8FDF8"/>
<path d="M357.086 359.564C357.42 359.531 357.757 359.531 358.092 359.564C359.572 359.708 360.985 360.252 362.179 361.138C363.374 362.024 364.304 363.218 364.872 364.593" stroke="black" stroke-linecap="round" stroke-linejoin="round"/>
<path d="M374.522 291.763C374.522 291.763 375.053 273.423 364.984 266.768" stroke="black" stroke-linecap="round" stroke-linejoin="round"/>
<path d="M375.381 331.077C376.703 335.36 367.471 343.507 367.471 343.507C367.471 343.507 355.278 341.981 353.911 337.71C352.544 333.439 355.674 326.41 361.595 324.602C367.516 322.794 374.104 326.794 375.381 331.077Z" fill="#1A3F74"/>
<path d="M385.652 279.176C384.522 283.696 375.753 286.939 375.753 286.939C375.753 286.939 369.73 279.899 370.86 275.356C371.99 270.814 376.86 265.819 380.951 266.87C385.041 267.921 386.827 274.633 385.652 279.176Z" fill="#1A3F74"/>
<path d="M350.634 347.055C356.114 349.18 359.47 358.875 359.47 358.875C359.47 358.875 350.43 363.745 344.961 361.61C339.492 359.474 333.661 353.462 335.243 349.451C336.825 345.439 345.153 344.874 350.634 347.055Z" fill="#1A3F74"/>
<path d="M362.645 293.72C363.755 294.653 365.026 295.373 366.397 295.844C367.085 296.067 367.821 296.096 368.524 295.929C369.228 295.761 369.872 295.404 370.386 294.895C371.516 293.55 371.245 291.505 370.51 289.821C369.041 286.601 363.64 281.12 359.493 282.691C353.504 284.985 359.978 291.765 362.645 293.72Z" fill="#1A3F74"/>
<path d="M374.906 301.934C374.115 302.905 373.279 304.137 373.72 305.324C373.965 305.822 374.369 306.225 374.868 306.47C375.366 306.716 375.932 306.789 376.477 306.68C377.561 306.422 378.573 305.924 379.437 305.222C381.551 303.753 385.89 300.702 383.121 297.798C380.353 294.894 376.511 299.888 374.906 301.934Z" fill="#1A3F74"/>
<path d="M357.221 260.949C356.765 260.975 356.329 261.144 355.974 261.432C355.619 261.72 355.364 262.112 355.244 262.553C355.063 263.604 355.933 264.519 356.769 265.164C358.871 266.791 365.188 271.153 366.589 266.938C367.922 262.96 360.001 260.644 357.221 260.949Z" fill="#1A3F74"/>
<path d="M368.849 247.095C367.549 247.219 366.25 246.744 364.939 246.823C363.628 246.903 362.193 247.953 362.475 249.242C362.758 250.53 364.216 250.812 365.413 250.88C367.476 251.012 369.546 250.872 371.572 250.462C372.052 250.416 372.496 250.19 372.815 249.829C373.346 249.05 372.51 248.01 371.606 247.739C370.678 247.615 369.765 247.396 368.883 247.083L368.849 247.095Z" fill="#1A3F74"/>
<path d="M381.573 256.057C382.873 256.057 384.138 255.537 385.449 255.525C386.76 255.514 388.274 256.475 388.059 257.785C387.845 259.096 386.443 259.469 385.246 259.616C383.198 259.887 381.123 259.887 379.076 259.616C378.591 259.605 378.129 259.407 377.788 259.062C377.211 258.328 377.98 257.232 378.85 256.893C379.771 256.721 380.67 256.444 381.528 256.068L381.573 256.057Z" fill="#1A3F74"/>
<path d="M380.285 352.354C380.584 352.042 380.984 351.846 381.415 351.801C381.705 351.828 381.977 351.956 382.183 352.163C382.389 352.369 382.517 352.64 382.545 352.931C382.607 353.489 382.537 354.054 382.341 354.581C381.448 357.552 371.504 379.011 369.211 375.158C367.866 372.898 371.188 365.338 372.171 363.202C374.047 359.035 376.817 355.332 380.285 352.354Z" fill="#1A3F74"/>
<path d="M375.437 253.343C375.437 253.343 374.838 248.134 376.092 247.693" stroke="black" stroke-linecap="round" stroke-linejoin="round"/>
<path d="M374.329 247.909C374.97 246.07 376.075 244.427 377.538 243.141C379.109 242.011 381.629 241.92 382.77 243.491C384.047 245.243 382.77 247.898 380.815 248.836C378.86 249.774 376.555 249.491 374.408 249.186C374.408 248.87 374.408 248.553 374.408 248.237L374.329 247.909Z" fill="#1A3F74"/>
<path d="M379.685 415.623C369.033 417.42 358.155 417.42 347.503 415.623L334.982 378.684H392.206L379.685 415.623Z" fill="#F8FDF8" stroke="black" stroke-linecap="round" stroke-linejoin="round"/>
<path d="M161.302 148.74V148.865C161.347 149.068 161.392 149.283 161.438 149.509C161.949 151.984 162.327 154.485 162.568 157.001C162.782 159.159 162.94 161.622 162.997 164.368C163.113 170.698 162.689 177.026 161.731 183.284C161.483 184.934 161.189 186.674 160.839 188.415C160.285 191.285 159.596 194.291 158.771 197.398C158.387 198.844 157.968 200.325 157.516 201.816C157.336 202.427 157.155 203.025 156.985 203.636C156.816 204.246 156.567 205.105 156.375 205.896" stroke="black" stroke-linecap="round" stroke-linejoin="round"/>
<path d="M161.325 148.897C160.514 148.188 159.627 147.57 158.68 147.056C157.637 146.505 156.528 146.088 155.381 145.812" fill="#F8FDF8"/>
<path d="M161.325 148.897C160.514 148.188 159.627 147.57 158.68 147.056C157.637 146.505 156.528 146.088 155.381 145.812" stroke="black" stroke-linecap="round" stroke-linejoin="round"/>
<path d="M162.59 157.034L165.607 154.311" stroke="black" stroke-linecap="round" stroke-linejoin="round"/>
<path d="M158.771 197.455C158.609 196.662 158.371 195.886 158.059 195.139C157.613 194.042 157.008 193.018 156.262 192.099C155.705 191.408 155.072 190.783 154.375 190.234" stroke="black" stroke-linecap="round" stroke-linejoin="round"/>
<path d="M156.364 205.885C156.786 204.829 157.421 203.871 158.23 203.072C159.039 202.273 160.004 201.649 161.065 201.24" stroke="black" stroke-linecap="round" stroke-linejoin="round"/>
<path d="M151.132 247.965C152.138 246.745 152.906 242.123 153.313 239.637C153.403 239.05 153.494 238.507 153.561 238.18" fill="#F8FDF8"/>
<path d="M151.132 247.965C152.138 246.745 152.906 242.123 153.313 239.637C153.403 239.05 153.494 238.507 153.561 238.18" stroke="black" stroke-linecap="round" stroke-linejoin="round"/>
<path d="M143.391 256.305C143.73 256.271 144.07 256.271 144.408 256.305C145.887 256.452 147.299 256.998 148.492 257.883C149.686 258.768 150.618 259.961 151.188 261.333" fill="#F8FDF8"/>
<path d="M143.391 256.305C143.73 256.271 144.07 256.271 144.408 256.305C145.887 256.452 147.299 256.998 148.492 257.883C149.686 258.768 150.618 259.961 151.188 261.333" stroke="black" stroke-linecap="round" stroke-linejoin="round"/>
<path d="M160.827 188.505C160.827 188.505 161.37 170.165 151.29 163.51" stroke="black" stroke-linecap="round" stroke-linejoin="round"/>
<path d="M161.743 227.863C163.053 232.146 153.833 240.293 153.833 240.293C153.833 240.293 141.629 238.768 140.273 234.496C138.917 230.225 142.047 223.196 147.957 221.388C153.866 219.58 160.42 223.592 161.743 227.863Z" fill="#1A3F74"/>
<path d="M171.98 175.961C170.85 180.481 162.082 183.724 162.082 183.724C162.082 183.724 155.991 176.684 157.166 172.142C158.341 167.599 163.155 162.604 167.246 163.655C171.336 164.706 173.11 171.418 171.98 175.961Z" fill="#1A3F74"/>
<path d="M136.95 243.84C142.431 245.976 145.798 255.66 145.798 255.66C145.798 255.66 136.758 260.53 131.278 258.394C125.797 256.259 119.978 250.247 121.571 246.236C123.164 242.224 131.459 241.704 136.95 243.84Z" fill="#1A3F74"/>
<path d="M148.962 190.505C150.067 191.437 151.335 192.158 152.702 192.629C153.39 192.852 154.126 192.881 154.83 192.714C155.533 192.547 156.177 192.189 156.691 191.68C157.821 190.335 157.55 188.29 156.815 186.606C155.346 183.386 149.956 177.905 145.798 179.476C139.82 181.747 146.284 188.527 148.962 190.505Z" fill="#1A3F74"/>
<path d="M161.211 198.732C160.432 199.703 159.596 200.992 160.025 202.122C160.271 202.62 160.674 203.023 161.173 203.268C161.672 203.514 162.237 203.587 162.782 203.478C163.867 203.223 164.879 202.724 165.743 202.02C167.856 200.562 172.195 197.5 169.427 194.596C166.658 191.692 162.873 196.675 161.211 198.732Z" fill="#1A3F74"/>
<path d="M143.527 157.734C143.071 157.762 142.636 157.932 142.281 158.22C141.927 158.507 141.671 158.898 141.549 159.338C141.369 160.389 142.239 161.305 143.086 161.949C145.188 163.576 151.493 167.938 152.906 163.723C154.228 159.745 146.318 157.429 143.527 157.734Z" fill="#1A3F74"/>
<path d="M155.155 143.882C153.855 144.006 152.556 143.531 151.256 143.611C149.957 143.69 148.499 144.741 148.793 146.029C149.087 147.317 150.522 147.599 151.731 147.667C153.79 147.8 155.857 147.659 157.878 147.249C158.361 147.204 158.809 146.978 159.133 146.616C159.652 145.837 158.816 144.797 157.923 144.526C156.992 144.403 156.075 144.183 155.189 143.87L155.155 143.882Z" fill="#1A3F74"/>
<path d="M167.879 152.842C169.189 152.842 170.455 152.322 171.754 152.311C173.054 152.299 174.579 153.26 174.376 154.571C174.173 155.881 172.749 156.254 171.551 156.401C169.503 156.672 167.429 156.672 165.381 156.401C164.896 156.39 164.435 156.192 164.093 155.848C163.517 155.113 164.285 154.017 165.167 153.678C166.087 153.503 166.985 153.226 167.845 152.853L167.879 152.842Z" fill="#1A3F74"/>
<path d="M166.59 249.14C166.891 248.829 167.29 248.633 167.72 248.586C168.008 248.62 168.276 248.749 168.481 248.955C168.686 249.16 168.816 249.428 168.85 249.716C168.908 250.275 168.835 250.84 168.635 251.366C167.754 254.338 157.799 275.796 155.516 271.943C154.16 269.683 157.482 262.123 158.465 259.988C160.345 255.819 163.118 252.116 166.59 249.14Z" fill="#1A3F74"/>
<path d="M161.742 150.152C161.742 150.152 161.143 144.943 162.409 144.502" stroke="black" stroke-linecap="round" stroke-linejoin="round"/>
<path d="M160.681 144.695C161.313 142.851 162.42 141.206 163.89 139.926C165.461 138.796 167.969 138.706 169.11 140.276C170.387 142.028 169.11 144.683 167.156 145.621C165.201 146.559 162.907 146.276 160.76 145.971C160.76 145.655 160.76 145.339 160.76 145.022L160.681 144.695Z" fill="#1A3F74"/>
<path d="M18.1309 273.649V161.994" stroke="black" stroke-linecap="round" stroke-linejoin="round"/>
<path d="M366.736 273.648H352.939" stroke="black" stroke-linecap="round" stroke-linejoin="round"/>
<path d="M474.933 273.648H446.83" stroke="black" stroke-linecap="round" stroke-linejoin="round"/>
<path d="M351.673 104.023H401.472V56.5859" stroke="black" stroke-linecap="round" stroke-linejoin="round"/>
<path d="M61.4209 89.5371H114.327V128.127H172.319" stroke="black" stroke-linecap="round" stroke-linejoin="round"/>
<path d="M30.2109 220.223V134.953" stroke="black" stroke-linecap="round" stroke-linejoin="round"/>
<path d="M53.8506 97.9453V164.774" stroke="black" stroke-linecap="round" stroke-linejoin="round"/>
<path d="M77.4785 97.9453V157.022" stroke="black" stroke-linecap="round" stroke-linejoin="round"/>
<path d="M101.106 97.9453V201.284" stroke="black" stroke-linecap="round" stroke-linejoin="round"/>
<path d="M214.299 83.2887V15.3418H310.496V83.2887" stroke="black" stroke-linecap="round" stroke-linejoin="round"/>
<path d="M221.35 49.0951V23.4102H239.136" stroke="black" stroke-linecap="round" stroke-linejoin="round"/>
<path d="M243.046 49.0951V23.4102H260.832" stroke="black" stroke-linecap="round" stroke-linejoin="round"/>
<path d="M264.742 49.0951V23.4102H282.528" stroke="black" stroke-linecap="round" stroke-linejoin="round"/>
<path d="M286.438 49.0951V23.4102H304.225" stroke="black" stroke-linecap="round" stroke-linejoin="round"/>
<path d="M221.35 83.2884V57.6035H239.136" stroke="black" stroke-linecap="round" stroke-linejoin="round"/>
<path d="M243.046 83.2884V57.6035H260.832" stroke="black" stroke-linecap="round" stroke-linejoin="round"/>
<path d="M264.742 83.2884V57.6035H282.528" stroke="black" stroke-linecap="round" stroke-linejoin="round"/>
<path d="M286.438 83.2884V57.6035H304.225" stroke="black" stroke-linecap="round" stroke-linejoin="round"/>
<path d="M409.179 62.4629V147.608" stroke="black" stroke-linecap="round" stroke-linejoin="round"/>
<path d="M444.107 267.41H446.831" stroke="black" stroke-linecap="round" stroke-linejoin="round"/>
<path d="M430.117 86.916V182.243" stroke="black" stroke-linecap="round" stroke-linejoin="round"/>
<path d="M451.067 243.07V267.411H467.78" stroke="black" stroke-linecap="round" stroke-linejoin="round"/>
<path d="M451.067 117.99V182.728" stroke="black" stroke-linecap="round" stroke-linejoin="round"/>
<path d="M472.007 167.111V267.41H475.815" stroke="black" stroke-linecap="round" stroke-linejoin="round"/>
<path d="M216.83 275.695H1V415.883H216.83V275.695Z" fill="#F8FDF8" stroke="black" stroke-linecap="round" stroke-linejoin="round"/>
<path d="M1 275.695L108.915 345.789L216.83 275.695H1Z" fill="#F8FDF8" stroke="black" stroke-linecap="round" stroke-linejoin="round"/>
<path d="M76.4727 324.715L1 415.883" stroke="black" stroke-linecap="round" stroke-linejoin="round"/>
<path d="M141.945 324.715L217.418 415.883" stroke="black" stroke-linecap="round" stroke-linejoin="round"/>
<path d="M332.327 96.8152H282.155C280.71 96.8169 279.292 97.2056 278.048 97.9409C276.804 98.6761 275.779 99.7311 275.081 100.996C273.848 103.221 272.042 105.076 269.85 106.367C267.659 107.658 265.161 108.339 262.617 108.339C260.073 108.339 257.576 107.658 255.384 106.367C253.192 105.076 251.386 103.221 250.153 100.996C249.461 99.7147 248.434 98.6444 247.183 97.8984C245.932 97.1525 244.502 96.7587 243.046 96.7587H192.93C191.554 96.7408 190.189 96.994 188.911 97.504C187.633 98.0139 186.468 98.7705 185.483 99.7307C184.498 100.691 183.711 101.836 183.168 103.1C182.626 104.364 182.337 105.723 182.319 107.098V390.073C182.358 392.85 183.497 395.499 185.486 397.437C187.476 399.375 190.153 400.445 192.93 400.412H332.327C335.105 400.446 337.784 399.376 339.775 397.438C341.766 395.5 342.907 392.851 342.949 390.073V107.155C342.91 104.375 341.77 101.725 339.778 99.7865C337.786 97.8477 335.106 96.779 332.327 96.8152Z" fill="#1A3F74"/>
<path d="M347.842 104.024C347.848 102.118 347.478 100.229 346.752 98.4663C346.027 96.7035 344.961 95.1012 343.615 93.7512C342.269 92.4012 340.67 91.3301 338.91 90.5992C337.149 89.8684 335.262 89.4922 333.355 89.4922H191.913C190.011 89.4907 188.128 89.864 186.37 90.5908C184.613 91.3176 183.016 92.3836 181.67 93.7279C180.325 95.0722 179.258 96.6685 178.53 98.4254C177.802 100.182 177.427 102.066 177.427 103.967V401.372C177.427 405.211 178.952 408.893 181.666 411.608C184.381 414.322 188.063 415.847 191.902 415.847H333.355C337.196 415.847 340.879 414.323 343.595 411.608C346.311 408.894 347.839 405.212 347.842 401.372V104.024ZM342.949 390.072C342.907 392.85 341.766 395.499 339.775 397.437C337.784 399.375 335.106 400.445 332.327 400.412H192.93C190.153 400.445 187.476 399.375 185.487 397.436C183.497 395.498 182.358 392.849 182.32 390.072V107.154C182.337 105.778 182.626 104.42 183.169 103.156C183.712 101.891 184.498 100.747 185.483 99.7865C186.469 98.8264 187.633 98.0698 188.911 97.5598C190.189 97.0499 191.555 96.7967 192.93 96.8146H243.068C244.524 96.8142 245.952 97.2079 247.201 97.954C248.451 98.7001 249.475 99.7707 250.165 101.052C251.398 103.277 253.204 105.132 255.396 106.423C257.587 107.714 260.085 108.395 262.629 108.395C265.173 108.395 267.67 107.714 269.862 106.423C272.054 105.132 273.86 103.277 275.093 101.052C275.789 99.7854 276.813 98.7291 278.057 97.9936C279.302 97.2581 280.721 96.8704 282.166 96.8711H332.338C333.714 96.8532 335.08 97.1064 336.358 97.6163C337.635 98.1263 338.8 98.8829 339.785 99.843C340.771 100.803 341.557 101.948 342.1 103.212C342.643 104.476 342.931 105.835 342.949 107.211V390.072Z" fill="black"/>
<path opacity="0.2" d="M299.783 89.5371L205.823 415.87L243.136 415.836L333.615 89.5371H299.783Z" fill="#F8FDF8"/>
<path opacity="0.2" d="M285.771 89.5371L186.433 415.881L191.868 415.847L289.342 89.5371H285.771Z" fill="#F8FDF8"/>
<path d="M287.975 332.137C288.044 335.372 287.465 338.588 286.273 341.595C285.08 344.603 283.298 347.342 281.031 349.65C278.764 351.958 276.058 353.789 273.072 355.036C270.086 356.282 266.881 356.918 263.646 356.907C257.044 356.882 250.714 354.278 246.006 349.65C241.298 345.022 238.585 338.737 238.447 332.137C238.379 328.904 238.959 325.689 240.152 322.683C241.345 319.676 243.128 316.939 245.395 314.632C247.662 312.325 250.367 310.495 253.352 309.249C256.337 308.004 259.541 307.368 262.776 307.379C269.376 307.401 275.706 310.003 280.415 314.629C285.123 319.255 287.836 325.538 287.975 332.137Z" fill="#F8FDF8" stroke="black" stroke-linecap="round" stroke-linejoin="round"/>
<path d="M255.092 350.623C252.792 349.773 250.683 348.475 248.888 346.804C247.078 345.065 245.677 342.946 244.786 340.6C243.77 337.97 243.268 335.17 243.306 332.351C243.291 329.948 243.717 327.562 244.56 325.311C245.327 323.233 246.476 321.316 247.95 319.661C250.855 316.484 254.607 314.202 258.764 313.085C260.805 312.535 262.91 312.257 265.024 312.26C266.78 312.252 268.529 312.461 270.234 312.881C271.878 313.285 273.452 313.937 274.9 314.814C276.335 315.675 277.621 316.763 278.709 318.034C279.842 319.405 280.709 320.977 281.262 322.667C281.896 324.596 282.209 326.615 282.189 328.645C282.165 332.568 280.752 336.355 278.2 339.335C277.103 340.579 275.804 341.629 274.358 342.442C273.112 343.157 271.704 343.546 270.268 343.572C269.275 343.585 268.306 343.272 267.51 342.68C267.111 342.384 266.785 341.999 266.56 341.556C266.334 341.113 266.215 340.623 266.211 340.126C265.469 341.253 264.452 342.172 263.255 342.795C262.059 343.418 260.723 343.724 259.374 343.685C258.313 343.733 257.256 343.542 256.278 343.128C255.3 342.713 254.428 342.085 253.724 341.29C252.314 339.65 251.568 337.542 251.634 335.38C251.643 333.6 251.953 331.836 252.549 330.159C253.143 328.47 253.985 326.878 255.046 325.436C256.105 324.019 257.453 322.844 259.001 321.989C260.549 321.116 262.298 320.66 264.075 320.667C265.311 320.655 266.53 320.95 267.623 321.526C268.685 322.092 269.545 322.972 270.087 324.046L270.313 323.289C270.493 322.758 270.876 322.321 271.378 322.074C271.88 321.826 272.46 321.787 272.991 321.967C273.196 322.036 273.39 322.135 273.567 322.26C273.736 322.395 273.87 322.567 273.958 322.764C274.046 322.96 274.087 323.175 274.076 323.39C274.076 323.602 274.042 323.812 273.974 324.012L270.313 336.193C269.99 337.121 269.781 338.085 269.691 339.064C269.657 339.246 269.669 339.434 269.726 339.611C269.782 339.788 269.881 339.948 270.014 340.078C270.147 340.208 270.309 340.302 270.488 340.354C270.666 340.406 270.854 340.413 271.036 340.374C272.332 340.291 273.546 339.713 274.426 338.758C275.647 337.552 276.585 336.089 277.172 334.476C277.873 332.714 278.233 330.835 278.234 328.939C278.249 327.269 278.005 325.607 277.511 324.012C277.095 322.637 276.437 321.347 275.567 320.204C274.743 319.163 273.745 318.272 272.618 317.571C271.494 316.862 270.266 316.332 268.979 316C267.659 315.653 266.299 315.478 264.934 315.48C263.202 315.483 261.48 315.726 259.815 316.204C258.101 316.689 256.468 317.424 254.967 318.385C253.455 319.339 252.085 320.503 250.899 321.842C249.678 323.253 248.728 324.877 248.097 326.634C247.387 328.546 247.031 330.571 247.046 332.611C247.009 335.027 247.447 337.427 248.334 339.674C249.1 341.619 250.307 343.36 251.86 344.759C253.361 346.061 255.093 347.07 256.967 347.731C258.945 348.43 261.028 348.782 263.126 348.77C265.368 348.77 267.596 348.431 269.736 347.765C269.95 347.688 270.176 347.65 270.403 347.652C270.615 347.648 270.825 347.69 271.02 347.774C271.215 347.857 271.39 347.981 271.533 348.137C271.677 348.288 271.79 348.465 271.866 348.659C271.942 348.852 271.978 349.059 271.974 349.267C272.001 349.596 271.908 349.924 271.713 350.189C271.518 350.455 271.233 350.641 270.912 350.714C268.245 351.529 265.474 351.956 262.685 351.979C260.094 351.976 257.524 351.517 255.092 350.623ZM264.425 338.905C265.543 338.103 266.371 336.962 266.787 335.651L269.149 327.345L268.991 327.006C268.844 326.734 268.665 326.48 268.459 326.249C268.176 325.923 267.866 325.62 267.533 325.345C267.11 325.007 266.632 324.744 266.12 324.566C264.783 324.099 263.319 324.151 262.018 324.713C261.306 325.014 260.652 325.439 260.086 325.967C259.498 326.515 258.975 327.13 258.527 327.797C258.078 328.493 257.7 329.231 257.397 330.001C257.079 330.771 256.833 331.57 256.662 332.385C256.492 333.161 256.404 333.953 256.402 334.747C256.392 335.257 256.423 335.767 256.493 336.272C256.545 336.722 256.643 337.165 256.787 337.595C256.91 337.994 257.089 338.374 257.318 338.725C257.522 339.04 257.783 339.316 258.086 339.538C258.409 339.773 258.773 339.945 259.16 340.047C259.611 340.179 260.08 340.24 260.549 340.227C261.963 340.245 263.343 339.792 264.471 338.939L264.425 338.905Z" fill="#1A3F74" stroke="black" stroke-linecap="round" stroke-linejoin="round"/>
<path d="M287.421 247.241C287.489 250.474 286.91 253.689 285.716 256.695C284.523 259.701 282.74 262.439 280.473 264.746C278.206 267.053 275.501 268.883 272.516 270.129C269.531 271.374 266.327 272.01 263.093 271.999C256.492 271.977 250.162 269.375 245.453 264.749C240.745 260.123 238.032 253.84 237.894 247.241C237.823 244.005 238.4 240.789 239.592 237.781C240.784 234.772 242.566 232.033 244.834 229.725C247.101 227.416 249.808 225.585 252.795 224.339C255.781 223.093 258.987 222.458 262.222 222.471C268.824 222.496 275.154 225.1 279.862 229.728C284.57 234.356 287.283 240.64 287.421 247.241Z" fill="#F8FDF8" stroke="black" stroke-linecap="round" stroke-linejoin="round"/>
<path d="M278.2 244.98C270.437 239.895 255.216 239.895 247.814 244.98C246.461 245.234 245.244 245.966 244.385 247.042C243.526 248.119 243.083 249.468 243.136 250.844C243.249 254.133 256.911 254.133 256.798 250.844C256.731 249.47 256.206 248.157 255.306 247.115C260.43 246.008 265.731 246.008 270.855 247.115C270.021 248.176 269.589 249.496 269.635 250.844C269.748 254.133 283.409 254.133 283.285 250.844C283.221 249.437 282.684 248.093 281.761 247.029C280.839 245.965 279.584 245.243 278.2 244.98Z" fill="#1A3F74" stroke="black" stroke-linecap="round" stroke-linejoin="round"/>
<path d="M287.421 164.773C287.557 170.864 284.235 176.31 278.901 179.938V194.729L268.29 184.107C266.575 184.414 264.835 184.565 263.092 184.559C249.419 184.559 238.131 175.7 237.893 164.773C237.656 153.846 248.538 144.998 262.222 144.998C275.907 144.998 287.241 153.902 287.421 164.773Z" fill="#F8FDF8" stroke="black" stroke-linecap="round" stroke-linejoin="round"/>
<path d="M252.109 164.772C252.111 165.407 251.925 166.029 251.573 166.558C251.222 167.087 250.722 167.5 250.136 167.745C249.549 167.99 248.904 168.055 248.28 167.932C247.657 167.81 247.084 167.505 246.634 167.057C246.184 166.608 245.878 166.037 245.753 165.414C245.628 164.791 245.691 164.145 245.934 163.558C246.176 162.971 246.588 162.469 247.116 162.116C247.644 161.763 248.264 161.574 248.9 161.574C249.749 161.574 250.563 161.911 251.165 162.51C251.766 163.11 252.106 163.923 252.109 164.772Z" fill="#1A3F74" stroke="black" stroke-linecap="round" stroke-linejoin="round"/>
<path d="M265.838 164.772C265.841 165.407 265.654 166.029 265.303 166.558C264.952 167.087 264.451 167.5 263.865 167.745C263.279 167.99 262.633 168.055 262.01 167.932C261.387 167.81 260.814 167.505 260.364 167.057C259.914 166.608 259.607 166.037 259.482 165.414C259.358 164.791 259.421 164.145 259.663 163.558C259.906 162.971 260.317 162.469 260.845 162.116C261.373 161.763 261.994 161.574 262.629 161.574C263.478 161.574 264.293 161.911 264.894 162.51C265.496 163.11 265.835 163.923 265.838 164.772Z" fill="#1A3F74" stroke="black" stroke-linecap="round" stroke-linejoin="round"/>
<path d="M279.568 164.772C279.57 165.407 279.384 166.029 279.032 166.558C278.681 167.087 278.181 167.5 277.595 167.745C277.008 167.99 276.363 168.055 275.739 167.932C275.116 167.81 274.543 167.505 274.093 167.057C273.643 166.608 273.337 166.037 273.212 165.414C273.087 164.791 273.15 164.145 273.393 163.558C273.635 162.971 274.046 162.469 274.574 162.116C275.102 161.763 275.723 161.574 276.359 161.574C277.208 161.574 278.022 161.911 278.624 162.51C279.225 163.11 279.565 163.923 279.568 164.772Z" fill="#1A3F74" stroke="black" stroke-linecap="round" stroke-linejoin="round"/>
<path d="M124.294 209.872C123.893 210.618 123.315 211.254 122.61 211.725C117.397 215.883 112.063 219.872 106.609 223.692C104.609 225.093 102.53 226.539 100.598 228.11C88.9813 235.884 96.0777 237.783 88.9813 254.236C87.3089 258.168 87.614 277.434 87.614 277.434H87.0377C85.6775 276.092 84.2318 274.839 82.7098 273.683C82.4996 273.541 82.2807 273.413 82.0544 273.299C81.8422 273.189 81.6129 273.117 81.3764 273.084C80.2464 273.016 75.9411 273.536 71.5906 273.253L70.4606 273.163C69.8278 273.095 69.2063 273.016 68.5848 272.903C67.9633 272.79 67.3644 272.666 66.7881 272.508C62.6595 271.184 58.6111 269.622 54.6632 267.829L52.697 266.982L51.7252 266.564L50.8438 266.18L50.211 265.908L49.6008 265.649C48.5725 265.219 47.612 264.824 46.7306 264.519C46.3266 264.374 45.9155 264.249 45.4989 264.146C45.4989 265.072 45.352 266.021 45.2277 266.948C44.6853 271.366 43.4762 275.446 41.3179 275.988C41.2734 276 41.2268 276 41.1823 275.988C40.9922 276.024 40.7994 276.043 40.606 276.045H40.4365C39.9584 276.035 39.4851 275.947 39.0353 275.785C37.0765 274.949 35.4758 273.448 34.5153 271.547C34.0861 270.746 33.8464 269.857 33.8147 268.948C33.8147 265.66 32.8994 246.258 32.8994 240.608C32.8994 234.958 34.0294 225.07 36.8431 221.398C37.9427 219.841 39.3315 218.509 40.9337 217.477C42.9954 215.758 45.36 214.44 47.9058 213.589C50.9116 212.606 57.6351 210.098 62.3246 208.324L55.2395 211.058C57.0362 214.132 60.8895 218.968 67.839 219.59C74.3704 220.143 78.4158 214.234 80.4837 209.917C80.6645 209.985 92.0323 207.826 94.6652 207.951C103.242 208.324 110.237 203.679 113.401 201.837C114.355 201.267 115.426 200.92 116.533 200.822C117.641 200.724 118.756 200.877 119.796 201.27C120.836 201.664 121.773 202.287 122.538 203.093C123.304 203.9 123.877 204.869 124.215 205.928V206.03C124.709 207.258 124.737 208.624 124.294 209.872Z" fill="#1A3F74" stroke="black" stroke-linecap="round" stroke-linejoin="round"/>
<path d="M80.3594 209.985L79.8396 209.805L80.3594 209.985Z" fill="#F8FDF8" stroke="black" stroke-linecap="round" stroke-linejoin="round"/>
<path d="M89.9987 282.408C90.0042 282.453 90.0042 282.499 89.9987 282.544C89.9529 282.653 89.883 282.75 89.7944 282.829C89.7058 282.908 89.6007 282.965 89.4868 282.998C89.3729 283.03 89.2532 283.037 89.1364 283.017C89.0197 282.997 88.9089 282.951 88.8123 282.883C88.2925 282.589 87.4902 280.702 87.4902 280.702L86.5975 279.775L86.0098 279.154C86.1003 279.38 86.8122 281.109 86.4393 281.911C86.4203 281.966 86.3894 282.016 86.3489 282.058C86.0992 282.392 85.7751 282.662 85.4024 282.849C85.0296 283.035 84.6186 283.132 84.2019 283.131C83.716 283.131 82.2922 283.301 81.0492 283.38H80.9136C80.5372 283.401 80.1599 283.401 79.7836 283.38C78.7803 283.251 77.8124 282.925 76.936 282.42C74.9481 282.127 72.9895 281.662 71.0826 281.03L70.7436 280.849L70.4384 280.668C70.2378 280.547 70.052 280.403 69.8848 280.239C69.1961 279.665 68.6113 278.977 68.1559 278.205C68.1559 278.205 63.5681 278.013 57.4096 277.538C55.1496 277.368 52.7088 277.154 50.1776 276.905C46.2904 276.51 43.0811 276.532 40.5612 276.182H40.3805C39.8833 276.114 39.42 276.024 38.9793 275.922C37.9038 275.712 36.9093 275.203 36.1099 274.453C35.3104 273.704 34.7383 272.744 34.4593 271.685C34.3113 271.183 34.1906 270.674 34.0977 270.159L36.0639 266.769C37.0887 265.947 38.2315 265.284 39.4539 264.803C41.3503 264.009 43.4445 263.816 45.4542 264.249C45.8707 264.353 46.2818 264.477 46.6859 264.622C47.5673 264.961 48.5278 265.357 49.5561 265.752L50.1776 266.012L50.8103 266.283L51.6918 266.667C56.7203 268.747 62.7206 271.425 66.7321 272.555C67.9369 272.87 69.1649 273.089 70.4046 273.21L71.5346 273.3C75.8851 273.583 80.179 273.063 81.3203 273.131C82.4616 273.199 85.2528 275.854 87.0382 277.493C87.5241 277.945 87.9535 278.318 88.2473 278.544L88.3828 278.657L88.4846 278.747C89.1317 279.411 89.585 280.239 89.7953 281.143C89.8843 281.445 89.9448 281.755 89.9762 282.069C89.9967 282.181 90.0042 282.295 89.9987 282.408Z" fill="#F8FDF8" stroke="black" stroke-linecap="round" stroke-linejoin="round"/>
<path d="M89.9979 282.406C90.0033 282.451 90.0033 282.497 89.9979 282.542C89.9508 282.65 89.8802 282.747 89.7911 282.824C89.702 282.901 89.5967 282.958 89.4829 282.989C89.3691 283.021 89.2498 283.026 89.1336 283.006C89.0174 282.985 88.9073 282.938 88.8114 282.87C88.2526 282.221 87.8058 281.484 87.4893 280.689L86.5966 279.773L86.009 279.163C86.0881 279.344 86.8226 281.107 86.4497 281.92C86.4307 281.975 86.3998 282.026 86.3593 282.067C86.234 282.234 86.0899 282.386 85.9299 282.519C85.4426 282.911 84.8373 283.126 84.2123 283.13C83.7151 283.13 82.3026 283.288 81.0709 283.378H80.9127C80.5363 283.399 80.159 283.399 79.7827 283.378C78.7855 283.245 77.8228 282.923 76.9464 282.429C74.9585 282.131 73.0001 281.662 71.093 281.028L70.7653 280.87L70.4602 280.689C70.2648 280.56 70.0796 280.417 69.9065 280.259C69.2077 279.681 68.6151 278.985 68.155 278.203C68.155 278.203 63.7028 278.011 57.6686 277.547C55.4086 277.378 52.7983 277.152 50.1767 276.892C46.6059 276.542 43.6566 276.44 41.2723 276.067L40.5378 275.931L39.6903 275.739C39.4949 274.355 39.6383 272.943 40.1084 271.626C40.5464 270.515 41.2257 269.515 42.0972 268.698C42.9688 267.881 44.0108 267.268 45.1482 266.903C46.5596 266.384 48.0058 265.965 49.4761 265.648L50.0863 265.908L50.7191 266.18L51.6005 266.564C56.7194 268.767 62.6519 271.434 66.6747 272.53C67.8786 272.847 69.1071 273.063 70.3472 273.174L71.4772 273.265C75.8277 273.558 80.1217 273.039 81.263 273.106C82.4043 273.174 85.1841 275.818 86.913 277.457C87.3052 277.832 87.7163 278.186 88.1447 278.519L88.2803 278.621L88.382 278.711C89.0415 279.366 89.4968 280.198 89.6928 281.107C89.7817 281.409 89.8422 281.72 89.8736 282.033C89.9314 282.152 89.9732 282.277 89.9979 282.406Z" fill="#F8FDF8" stroke="black" stroke-linecap="round" stroke-linejoin="round"/>
<path d="M76.4727 279.402C76.4727 279.402 79.0378 280.736 80.0548 281.199C81.0718 281.662 80.9814 283.527 80.9814 283.527" fill="#F8FDF8"/>
<path d="M76.4727 279.402C76.4727 279.402 79.0378 280.736 80.0548 281.199C81.0718 281.662 80.9814 283.527 80.9814 283.527" stroke="black" stroke-linecap="round" stroke-linejoin="round"/>
<path d="M79.2178 277.594C80.8315 278.745 82.3854 279.979 83.8734 281.289C84.0908 281.544 84.2324 281.855 84.2823 282.186C84.3323 282.518 84.2885 282.857 84.1559 283.165" fill="#F8FDF8"/>
<path d="M79.2178 277.594C80.8315 278.745 82.3854 279.979 83.8734 281.289C84.0908 281.544 84.2324 281.855 84.2823 282.186C84.3323 282.518 84.2885 282.857 84.1559 283.165" stroke="black" stroke-linecap="round" stroke-linejoin="round"/>
<path d="M85.9758 279.142C84.6388 277.71 83.2242 276.352 81.7383 275.074L85.9758 279.142Z" fill="#F8FDF8"/>
<path d="M85.9758 279.142C84.6388 277.71 83.2242 276.352 81.7383 275.074" stroke="black" stroke-linecap="round" stroke-linejoin="round"/>
<path d="M80.3481 210.007C78.3028 214.313 74.2461 220.177 67.7147 219.669C60.7991 219.081 56.9119 214.211 55.1152 211.126C57.6012 210.177 60.1211 209.205 62.189 208.391C62.189 206.29 62.1212 203.77 61.8952 201.272C61.8952 200.73 61.7822 200.142 61.7257 199.634C61.6692 199.125 61.6014 198.764 61.5336 198.346H74.6755C74.6755 198.346 74.5964 198.865 74.4947 199.736C74.4156 200.515 74.3139 201.555 74.2348 202.73C74.1331 204.29 74.0653 206.12 74.1105 207.849C74.7433 208.064 75.3874 208.301 76.0315 208.55L77.2745 208.979C77.7717 209.16 78.2576 209.318 78.7774 209.488L79.9074 209.827C80.058 209.877 80.2052 209.938 80.3481 210.007Z" fill="#F8FDF8" stroke="black" stroke-linecap="round" stroke-linejoin="round"/>
<path d="M61.7257 199.59C61.7257 199.59 64.1778 205.963 67.7373 207.048C71.2968 208.133 74.5173 199.737 74.5173 199.737C74.5173 199.737 69.5001 205.093 67.6356 204.257C65.7711 203.421 61.7483 199.635 61.7483 199.635" fill="black"/>
<path d="M59.6127 164.39C56.2918 167.379 53.6587 171.053 51.8948 175.158C50.2789 178.548 48.9116 182.447 50.1546 185.995C50.8984 187.757 51.9507 189.372 53.2621 190.764C55.7029 193.69 59.1268 201.86 61.5676 204.787C61.7258 199.578 57.364 191.159 57.8273 186.786C58.3884 183.408 59.4992 180.144 61.1156 177.125C62.7594 173.165 64.9092 169.435 67.5114 166.028C68.9917 164.243 73.749 161.067 68.9465 160.683C65.7599 160.423 62.0196 162.412 59.6127 164.39Z" fill="black" stroke="black" stroke-linecap="round" stroke-linejoin="round"/>
<path d="M56.5386 182.153C56.5386 182.153 54.8549 178.888 53.0808 181.984C51.8039 184.244 53.6458 187.803 54.4368 189.125C54.6993 189.502 55.0548 189.804 55.4687 190.002C55.8826 190.2 56.3408 190.287 56.7985 190.255L56.5386 182.153Z" fill="#F8FDF8" stroke="black" stroke-linecap="round" stroke-linejoin="round"/>
<path d="M78.6644 193.951C77.5846 196.085 76.1777 198.037 74.4947 199.736L73.4777 200.787C71.3759 202.867 69.1046 204.516 67.613 204.177C66.3135 203.917 64.6185 202.584 62.9574 200.878C62.5393 200.46 62.1325 200.008 61.7257 199.556C59.9171 197.577 58.3643 195.379 57.104 193.013C56.7538 192.126 56.5294 191.194 56.4373 190.244C56.1521 187.414 56.054 184.568 56.1435 181.724C56.1435 180.719 56.1435 179.916 56.1435 179.464C56.1435 177.498 63.5111 170.662 63.5111 170.662C63.7096 170.589 63.923 170.565 64.1326 170.594C65.3997 170.824 66.621 171.259 67.7486 171.882C72.2121 174.052 78.4384 178.357 78.8904 179.995C79.5797 182.38 79.3198 191.826 78.6644 193.951Z" fill="#F8FDF8" stroke="black" stroke-linecap="round" stroke-linejoin="round"/>
<path d="M64.0309 184.887C64.0309 185.678 63.7371 186.322 63.4094 186.322C63.0817 186.322 62.754 185.701 62.754 184.887C62.754 184.074 63.0478 183.43 63.4094 183.43C63.771 183.43 64.0309 184.096 64.0309 184.887Z" fill="black"/>
<path d="M72.4495 183.441C72.8111 183.441 73.1049 184.086 73.1049 184.888C73.1049 185.69 72.8111 186.323 72.4495 186.323C72.0879 186.323 71.7941 185.679 71.7941 184.888C71.7941 184.097 72.0879 183.441 72.4495 183.441Z" fill="black"/>
<path d="M59.8273 181.328C59.8273 181.328 60.9573 179.068 64.9575 179.758" stroke="black" stroke-linecap="round" stroke-linejoin="round"/>
<path d="M76.1671 181.328C76.1671 181.328 75.0371 179.068 71.0369 179.758" stroke="black" stroke-linecap="round" stroke-linejoin="round"/>
<path d="M68.7656 190.414C69.172 190.389 69.5595 190.233 69.8708 189.971C70.1821 189.708 70.4008 189.353 70.4945 188.956C70.4945 188.956 68.3023 185.566 68.969 182.244" stroke="black" stroke-linecap="round" stroke-linejoin="round"/>
<path d="M55.1152 174.244C54.2048 175.479 53.5165 176.863 53.0812 178.335" stroke="#F8FDF8" stroke-linecap="round" stroke-linejoin="round"/>
<path d="M64.5617 165.203C64.5617 165.203 63.3073 167.282 57.7817 171.52C57.4255 171.777 57.0859 172.056 56.7646 172.356" stroke="#F8FDF8" stroke-linecap="round" stroke-linejoin="round"/>
<path d="M46.844 231.455C46.0907 242.198 45.3373 252.948 44.584 263.705V262.88" fill="black"/>
<path d="M46.844 231.455C46.0907 242.198 45.3373 252.948 44.584 263.705V262.88" stroke="black" stroke-linecap="round" stroke-linejoin="round"/>
<path d="M118.226 195.984C119.248 195.585 120.352 195.442 121.441 195.568C122.53 195.694 123.572 196.085 124.475 196.707C126.277 197.983 127.589 199.837 128.193 201.961C128.913 204.077 128.841 206.382 127.99 208.448C127.549 209.466 126.84 210.346 125.939 210.993C125.037 211.639 123.977 212.029 122.871 212.12C121.222 212.099 119.63 211.522 118.351 210.482C114.125 207.318 112.011 198.662 118.226 195.984Z" fill="#F8FDF8" stroke="black" stroke-linecap="round" stroke-linejoin="round"/>
<path d="M127.582 159.904C127.582 160.039 127.582 160.932 127.661 161.09C128.057 162.831 128.893 167.181 126.78 168.062C127.582 170.921 129.548 189.6 129.288 199.126C129.221 201.974 128.723 205.352 126.17 206.573C121.864 208.618 117.774 203.635 118.26 199.736C119.017 194.414 118.757 188.99 119.39 183.611C120.079 178.029 121.345 172.311 119.955 166.853C119.616 166.48 117.446 162.175 116.734 160.989C116.415 160.482 116.164 159.934 115.988 159.361C115.71 157.411 115.574 155.444 115.582 153.474C116.226 152.254 117.062 153.384 117.503 154.186C117.862 155.164 117.986 156.213 117.864 157.248C117.822 157.502 117.858 157.761 117.966 157.994C118.061 158.127 118.189 158.233 118.338 158.3C118.487 158.368 118.651 158.395 118.813 158.378C120.203 158.175 120.147 157.011 120.124 156.118C120.124 153.124 120.124 150.129 120.124 147.157C120.124 146.66 120.282 145.316 120.757 145.27C121.232 145.225 121.943 145.609 122.011 147.203C122.09 148.999 122.09 154.536 122.09 154.536C122.135 154.582 122.191 154.615 122.252 154.633C122.314 154.651 122.378 154.653 122.441 154.638C122.554 154.638 122.599 154.435 122.644 154.322C123.311 151.542 123.989 148.762 124.655 145.982C124.735 145.655 125.22 144.977 125.571 144.977C126.407 144.977 126.43 145.948 126.475 146.231C126.769 147.722 124.678 153.87 124.328 155.271C124.328 155.519 124.328 155.892 124.588 155.825L127.865 149.214C128.017 148.828 128.256 148.482 128.564 148.204C128.871 147.925 129.239 147.722 129.639 147.609C129.694 147.592 129.753 147.592 129.808 147.609C129.867 147.644 129.914 147.695 129.944 147.756C130.26 148.321 129.944 149.101 129.763 149.723C129.582 150.344 127.13 154.909 126.26 156.751C126.136 157.011 125.932 157.599 126.181 157.881C126.43 158.164 126.882 157.621 127.062 157.248C127.616 156.118 128.136 155.056 128.644 153.949C128.803 153.621 129.04 153.158 129.413 153.237C131.616 153.711 128.486 158.333 127.582 159.904Z" fill="#F8FDF8" stroke="black" stroke-linecap="round" stroke-linejoin="round"/>
<path d="M121.503 158.932C122.64 159.833 123.628 160.908 124.429 162.118C124.824 162.727 125.089 163.41 125.205 164.126C125.322 164.842 125.289 165.574 125.107 166.277C125.053 166.46 124.981 166.638 124.893 166.808" fill="#F8FDF8"/>
<path d="M121.503 158.932C122.64 159.833 123.628 160.908 124.429 162.118C124.824 162.727 125.089 163.41 125.205 164.126C125.322 164.842 125.289 165.574 125.107 166.277C125.053 166.46 124.981 166.638 124.893 166.808" stroke="black" stroke-linecap="round" stroke-linejoin="round"/>
<path d="M89.6709 229.523C90.8667 231.935 91.6715 234.521 92.0552 237.185C92.3829 239.852 92.4846 241.942 90.6653 249.434" stroke="black" stroke-linecap="round" stroke-linejoin="round"/>
<path d="M64.1666 168.967C64.0119 169.429 63.9731 169.922 64.0536 170.402C64.268 171.007 64.6623 171.531 65.1836 171.905C68.7953 175.07 72.8353 177.71 77.1842 179.748C77.7296 179.889 78.2024 180.23 78.5097 180.702C78.817 181.175 78.9367 181.745 78.8453 182.301V191.036C78.9008 191.937 78.8131 192.841 78.5854 193.714C77.9526 195.748 76.5514 197.387 75.5344 199.263C74.5005 201.041 73.9766 203.07 74.0202 205.127C73.7377 202.969 81.2861 198.788 83.3314 190.29C83.6139 189.093 89.4899 181.962 85.9643 173.589C82.5743 165.555 77.2407 162.097 75.444 161.679C74.2244 161.322 72.9374 161.261 71.6896 161.501C70.4419 161.741 69.2691 162.274 68.2685 163.057C66.2939 164.528 64.8535 166.603 64.1666 168.967Z" fill="black" stroke="black" stroke-linecap="round" stroke-linejoin="round"/>
<path d="M71.5685 193.453C70.9244 193.588 70.269 193.713 69.6136 193.792C67.3536 194.074 64.9354 193.724 63.4551 192.074C63.5681 193.555 64.5851 199.148 67.6248 199.306C70.6645 199.464 71.5685 193.453 71.5685 193.453Z" stroke="black" stroke-linecap="round" stroke-linejoin="round"/>
<path d="M68.63 165.555C69.9334 168.514 72.01 171.066 74.6416 172.945C76.5513 174.312 78.7322 175.295 80.4837 176.855C82.7437 178.923 84.224 182.2 83.3539 185.171" stroke="#F8FDF8" stroke-linecap="round" stroke-linejoin="round"/>
<path d="M92.2473 211.205C90.0702 212.952 88.6367 215.46 88.2358 218.222C87.8461 220.609 88.1399 223.058 89.0833 225.285" stroke="black" stroke-linecap="round" stroke-linejoin="round"/>
<path d="M50.1548 229.852C49.974 232.812 48.1321 235.377 46.3467 237.762L50.1548 229.852Z" fill="black"/>
<path d="M50.1548 229.852C49.974 232.812 48.1321 235.377 46.3467 237.762" stroke="black" stroke-linecap="round" stroke-linejoin="round"/>
<path d="M45.7471 252.484C46.6446 253.987 47.8459 255.286 49.2741 256.298C50.7023 257.309 52.326 258.012 54.0413 258.36" stroke="black" stroke-linecap="round" stroke-linejoin="round"/>
<path d="M88.9813 254.248C88.9813 254.248 85.9416 258.768 75.6134 259.717" stroke="black" stroke-linecap="round" stroke-linejoin="round"/>
<path d="M391.539 214.64C391.539 214.64 352.159 226.844 344.746 217.205L345.752 168.039H351.729L358.758 202.674L391.031 196.764C391.031 196.764 395.167 209.578 391.539 214.64Z" fill="#F8FDF8"/>
<path d="M374.951 216.358C372.693 217.255 370.538 218.392 368.521 219.748C371.188 220.595 374.036 219.522 376.702 218.674C380.224 217.593 383.814 216.747 387.449 216.143C387.618 215.137 386.319 212.844 385.81 211.951C384.884 210.391 384.68 210.256 383.121 211.024C380.285 212.448 377.866 214.923 374.951 216.358Z" fill="#1A3F74"/>
<path d="M391.539 214.64C391.539 214.64 352.159 226.844 344.746 217.205L345.752 168.039H351.729L358.758 202.674L391.031 196.764C391.031 196.764 395.167 209.578 391.539 214.64Z" stroke="black" stroke-linecap="round" stroke-linejoin="round"/>
<path d="M387.675 215.929L394.59 258.507C394.41 286.102 407.574 281.954 416.716 281.875C427.281 281.785 443.316 271.31 435.451 255.004L438.479 195.984L420.072 194.583C414.004 194.108 389.144 194.888 387.166 198.063C382.036 206.301 387.675 215.929 387.675 215.929Z" fill="#F8FDF8"/>
<path d="M388.76 219.443C392.867 234.981 402.717 248.38 416.32 256.937C414.847 256.704 413.409 256.29 412.038 255.705C410.658 255.111 409.112 255.027 407.676 255.468C407.329 255.593 407.01 255.785 406.738 256.033C406.465 256.282 406.245 256.581 406.088 256.915C405.932 257.249 405.843 257.61 405.826 257.979C405.81 258.347 405.866 258.715 405.992 259.061C406.322 259.591 406.771 260.036 407.303 260.361C409.546 261.938 412 263.193 414.591 264.09C412.318 263.856 410.022 264.032 407.811 264.609C407.405 266.576 409.597 267.999 411.326 268.96C414.084 270.586 416.446 272.806 418.241 275.457C412.174 275.471 406.112 275.818 400.082 276.497C399.287 276.675 398.456 276.596 397.709 276.271C396.927 275.689 396.4 274.826 396.24 273.864C394.897 269.163 394.115 264.319 393.912 259.434C393.799 256.688 393.912 253.92 393.551 251.196C393.26 249.049 392.86 246.918 392.353 244.812C390.598 236.661 389.253 228.446 388.319 220.167C387.901 220.2 388.76 219.443 388.76 219.443Z" fill="#1A3F74"/>
<path d="M435.439 216.053C433.915 215.564 432.494 214.798 431.247 213.793C431.597 215.488 434.129 218.415 435.609 219.319C435.914 219.511 436.355 219.669 436.626 219.409C436.897 219.149 437.078 218.482 437.349 218.279L435.439 216.053Z" fill="#1A3F74"/>
<path d="M387.675 215.929L394.59 258.507C394.41 286.102 407.574 281.954 416.716 281.875C427.281 281.785 443.316 271.31 435.451 255.004L438.479 195.984L420.072 194.583C414.004 194.108 389.144 194.888 387.166 198.063C382.036 206.301 387.675 215.929 387.675 215.929Z" stroke="black" stroke-linecap="round" stroke-linejoin="round"/>
<path d="M401.133 193.714C399.153 197.34 398.199 201.439 398.376 205.567C398.374 205.928 398.443 206.285 398.58 206.618C399.088 207.624 400.478 207.624 401.597 207.748C405.947 208.302 408.648 212.89 412.75 214.426C412.894 214.515 413.054 214.574 413.221 214.599C413.388 214.624 413.558 214.616 413.722 214.573C413.885 214.531 414.039 214.456 414.173 214.353C414.307 214.251 414.418 214.122 414.501 213.974C416.287 211.714 416.92 208.539 419.36 207.081C420.423 206.449 421.767 206.189 422.502 205.194C423.338 204.064 422.965 202.437 422.558 201.059C421.892 198.799 421.146 196.448 419.417 194.877C417.575 193.44 415.312 192.646 412.976 192.617C409.556 192.338 406.114 192.659 402.806 193.567C402.851 193.996 401.133 193.714 401.133 193.714Z" fill="#1A3F74" stroke="black" stroke-linecap="round" stroke-linejoin="round"/>
<path d="M455.826 222.607C453.064 218.586 451.029 214.111 449.814 209.386C449.371 207.019 448.682 204.705 447.757 202.482C446.885 200.765 445.626 199.274 444.078 198.126C442.531 196.979 440.738 196.207 438.842 195.872C438.032 195.693 437.19 195.732 436.401 195.985C434.762 196.606 434.039 198.493 433.711 200.211C433.002 203.9 433.212 207.707 434.322 211.296C435.079 213.737 444.175 231.433 450.142 238.292C449.622 234.834 453.599 223.274 455.826 222.607Z" fill="#F8FDF8"/>
<path d="M437.982 219.137L443.565 229.657C444.367 231.16 445.271 232.765 446.83 233.42C445.849 229.944 445.291 226.362 445.169 222.753C445.23 220.939 445.021 219.126 444.548 217.374C444.322 217.566 444.084 216.753 444.084 216.753C443.836 217.216 443.18 217.227 442.672 217.125C439.022 216.357 436.513 213.103 434.344 210.074C434.062 211.089 434.017 212.155 434.213 213.189C434.409 214.224 434.84 215.2 435.474 216.041C435.474 216.041 437.802 218.787 437.982 219.137Z" fill="#1A3F74"/>
<path d="M455.826 222.607C453.064 218.586 451.029 214.111 449.814 209.386C449.371 207.019 448.682 204.705 447.757 202.482C446.885 200.765 445.626 199.274 444.078 198.126C442.531 196.979 440.738 196.207 438.842 195.872C438.032 195.693 437.19 195.732 436.401 195.985C434.762 196.606 434.039 198.493 433.711 200.211C433.002 203.9 433.212 207.707 434.322 211.296C435.079 213.737 444.175 231.433 450.142 238.292C449.622 234.834 453.599 223.274 455.826 222.607Z" stroke="black" stroke-linecap="round" stroke-linejoin="round"/>
<path d="M447.983 235.263C441.903 223.612 444.841 196.764 444.661 192.447L452.684 192.018C453.486 192.018 457.204 214.911 459.735 224.415C461.995 233.07 459.825 241.828 455.825 241.828C452.503 241.828 449.26 237.715 447.983 235.263Z" fill="#F8FDF8" stroke="black" stroke-linecap="round" stroke-linejoin="round"/>
<path d="M375.539 205.014C381.189 196.765 392.274 196.109 392.274 196.109" stroke="black" stroke-linecap="round" stroke-linejoin="round"/>
<path d="M353.741 209.634C355.45 208.064 356.789 206.135 357.662 203.984L353.741 209.634Z" fill="#F8FDF8"/>
<path d="M353.741 209.634C355.45 208.064 356.789 206.135 357.662 203.984" stroke="black" stroke-linecap="round" stroke-linejoin="round"/>
<path d="M395.721 248.619C398.941 253.896 419.801 259.535 428.118 258.326" stroke="black" stroke-linecap="round" stroke-linejoin="round"/>
<path d="M401.619 263.514C407.628 264.547 413.786 264.312 419.699 262.824" stroke="black" stroke-linecap="round" stroke-linejoin="round"/>
<path d="M429.293 212.312L433.271 217.703C433.813 218.437 434.57 219.262 435.463 219.059" stroke="black" stroke-linecap="round" stroke-linejoin="round"/>
<path d="M458.853 416.774C458.503 418.209 458.39 419.916 459.418 420.989C460.447 422.063 461.938 422.04 463.328 422.017L468.108 421.927C469.951 422.019 471.794 421.731 473.521 421.08C474.385 420.744 475.124 420.151 475.64 419.381C476.155 418.611 476.421 417.701 476.402 416.774C476.285 416.058 476.056 415.364 475.724 414.718C475.295 413.791 474.866 412.853 474.447 411.927C469.17 400.299 461.113 407.373 458.853 416.774Z" fill="#F8FDF8" stroke="black" stroke-linecap="round" stroke-linejoin="round"/>
<path d="M452.119 403.067C452.286 408.404 451.838 413.743 450.785 418.978C450.537 420.164 450.785 421.961 451.915 421.848C452.358 421.78 452.761 421.55 453.045 421.204C457.198 417.107 460.169 411.966 461.645 406.322C461.866 405.735 461.97 405.111 461.948 404.484C461.927 403.858 461.782 403.242 461.52 402.672C461.211 402.214 460.829 401.81 460.39 401.474C456.56 398.412 451.768 395.372 452.119 403.067Z" fill="#F8FDF8" stroke="black" stroke-linecap="round" stroke-linejoin="round"/>
<path d="M439 266.484C439 266.484 444.955 276.835 446.232 279.242C447.509 281.649 474.482 317.097 479.657 342.906C480.629 347.81 460.73 402.661 460.73 402.661L456.21 400.107C456.21 400.107 459.351 350.082 458.583 345.923C457.814 341.765 437.96 311.074 437.96 311.074C437.96 311.074 426.875 302.927 422.31 293.457L439 266.484Z" fill="black"/>
<path d="M439.643 292.418C439.643 292.418 436.253 299.966 436.253 301.051C436.253 302.136 454.898 361.054 460.379 374.682C463.844 383.458 466.899 392.438 469.543 401.621C469.543 401.621 471.668 404.412 470.063 407.271C468.458 410.13 462.074 412.006 460.763 409.452C459.452 406.898 446.536 393.632 441.09 380.433C435.643 367.235 427.982 345.177 423.62 336.962C417.907 326.465 412.835 315.631 408.433 304.52C402.952 290.497 397.348 275.377 397.348 275.377C399.624 275.582 401.911 275.647 404.195 275.569C409.574 275.386 414.901 274.443 420.015 272.767C431.926 268.767 437.078 261.105 437.078 261.105C437.078 261.105 440.028 269.095 440.796 270.643L439.643 292.418Z" fill="black"/>
<path d="M477.668 347.957C476.501 349.957 474.931 351.692 473.058 353.053" stroke="#F8FDF8" stroke-linecap="round" stroke-linejoin="round"/>
<path d="M479.126 344.67C478.956 345.221 478.752 345.76 478.516 346.286" stroke="#F8FDF8" stroke-linecap="round" stroke-linejoin="round"/>
<path d="M428.875 274.812C431.881 279.988 434.694 287.435 434.242 293.401C434 294.485 433.621 295.533 433.112 296.52" stroke="#F8FDF8" stroke-linecap="round" stroke-linejoin="round"/>
<path d="M410.682 280.564C411.01 283.446 411.45 288.237 410.817 291.062C410.283 293.952 408.625 296.511 406.207 298.181" stroke="#F8FDF8" stroke-linecap="round" stroke-linejoin="round"/>
<path d="M436.31 269.66C436.966 270.478 437.499 271.388 437.892 272.361C438.657 273.758 439.709 274.978 440.978 275.94C442.248 276.902 443.707 277.584 445.259 277.943" stroke="#F8FDF8" stroke-linecap="round" stroke-linejoin="round"/>
<path d="M426.716 281.209C430.705 289.933 433.756 298.679 439.948 313.504" stroke="#F8FDF8" stroke-linecap="round" stroke-linejoin="round"/>
<path d="M424.592 276.746C424.931 277.424 425.259 278.102 425.586 278.78" stroke="#F8FDF8" stroke-linecap="round" stroke-linejoin="round"/>
<path d="M457.791 343.482C459.619 347.006 461.945 350.248 464.695 353.11" stroke="#F8FDF8" stroke-linecap="round" stroke-linejoin="round"/>
<path d="M459.679 346.738C460.876 352.267 463.062 357.535 466.131 362.287" stroke="#F8FDF8" stroke-linecap="round" stroke-linejoin="round"/>
<path d="M431.586 347.02C422.784 328.24 413.394 309.606 401.856 281.209" stroke="#F8FDF8" stroke-linecap="round" stroke-linejoin="round"/>
<path d="M433.575 352.477C433.361 351.822 433.135 351.167 432.897 350.5" stroke="#F8FDF8" stroke-linecap="round" stroke-linejoin="round"/>
<path d="M464.006 410.22C461.746 407.271 445.271 384.23 441.18 373.789C438.457 366.828 436.4 361.913 434.4 354.975" stroke="#F8FDF8" stroke-linecap="round" stroke-linejoin="round"/>
<path d="M457.791 365.879L465.622 388.897" stroke="#F8FDF8" stroke-linecap="round" stroke-linejoin="round"/>
<path d="M452.514 192.029L450.141 192.221C447.135 192.755 444.046 192.612 441.101 191.803C439.214 191.34 434.841 189.984 434.321 189.893C433.022 189.615 431.71 189.404 430.389 189.26C426.4 189.023 428.423 187.531 430.084 187.599C432.276 187.701 433.011 187.656 434.694 187.78C434.491 187.667 433.869 187.543 433.858 187.057C433.858 185.87 435.418 185.927 435.418 185.927C435.418 185.927 433.711 185.204 433.949 184.311C434.186 183.418 435.327 183.181 436.05 183.249C436.05 183.249 435.09 182.785 435.135 182.288C435.338 180.367 439.282 180.232 439.282 180.232C438.328 179.805 437.435 179.255 436.627 178.593C436.331 178.275 436.125 177.886 436.028 177.463C436.007 177.262 436.04 177.058 436.124 176.874C436.208 176.69 436.341 176.532 436.507 176.417C436.673 176.301 436.868 176.233 437.07 176.218C437.272 176.203 437.474 176.243 437.655 176.333C438.675 177.013 439.66 177.744 440.604 178.525C441.825 179.395 443.237 179.949 444.525 180.729C445.781 181.803 446.794 183.132 447.497 184.627C447.701 184.944 452.514 192.029 452.514 192.029Z" fill="#F8FDF8" stroke="black" stroke-linecap="round" stroke-linejoin="round"/>
<path d="M345.751 168.039V161.813C345.737 158.689 346.194 155.58 347.107 152.592C347.627 150.942 348.237 149.507 348.791 149.292C349.819 148.92 350.271 153.089 350.271 153.089C349.498 149.746 349.003 146.344 348.791 142.919C348.791 139.292 353.673 154.355 353.673 154.355L351.729 168.039H345.751Z" fill="#F8FDF8" stroke="black" stroke-linecap="round" stroke-linejoin="round"/>
<path d="M351.65 157.914C352.241 157.459 352.682 156.837 352.916 156.129L351.65 157.914Z" fill="#F8FDF8"/>
<path d="M351.65 157.914C352.241 157.459 352.682 156.837 352.916 156.129" stroke="black" stroke-linecap="round" stroke-linejoin="round"/>
<path d="M398.975 181.022C401.085 184.575 402.252 188.609 402.365 192.74C402.568 199.611 410.523 209.227 412.795 209.69C415.066 210.154 417.168 198.842 417.066 195.419C416.964 191.995 415.699 182.536 415.699 182.536C415.699 182.536 404.817 174.31 398.975 181.022Z" fill="#F8FDF8" stroke="black" stroke-linecap="round" stroke-linejoin="round"/>
<path d="M402.173 190.118C402.173 190.118 412.603 204.345 416.693 189.881C420.784 175.417 405.224 193.836 402.173 190.118Z" fill="black"/>
<path d="M419.778 179.893C419.225 188.334 415.371 193.08 410.93 193.916C406.874 194.662 400.941 190.526 397.981 184.391C397.755 184.244 394.15 181.746 393.291 181.136C392.843 180.822 392.477 180.404 392.225 179.918C391.973 179.432 391.843 178.892 391.845 178.345C391.873 177.82 392.059 177.315 392.377 176.896C392.695 176.477 393.132 176.163 393.63 175.995H393.732C394.241 175.884 394.77 175.923 395.257 176.108C394.512 173.226 393.901 170.299 393.438 167.35C393.653 160.57 395.901 155.033 403.133 154.491C410.365 153.948 416.411 157.994 416.693 160.909C416.897 163.169 417.631 169.147 418.287 175.328C418.468 176.933 419.903 177.995 419.778 179.893Z" fill="#F8FDF8" stroke="black" stroke-linecap="round" stroke-linejoin="round"/>
<path d="M416.693 170.13C416.693 170.13 412.038 167.995 412.829 174.933C412.987 176.3 415.529 178.323 415.529 178.323C415.529 178.323 414.874 180.368 413.665 180.368" fill="#F8FDF8"/>
<path d="M416.693 170.13C416.693 170.13 412.038 167.995 412.829 174.933C412.987 176.3 415.529 178.323 415.529 178.323C415.529 178.323 414.874 180.368 413.665 180.368" stroke="black" stroke-linecap="round" stroke-linejoin="round"/>
<path d="M407.698 172.503C407.698 172.503 405.325 171.056 403.698 171.949C402.85 172.318 402.127 172.927 401.619 173.701" fill="#F8FDF8"/>
<path d="M407.698 172.503C407.698 172.503 405.325 171.056 403.698 171.949C402.85 172.318 402.127 172.927 401.619 173.701" stroke="black" stroke-linecap="round" stroke-linejoin="round"/>
<path d="M406.343 176.502C406.524 177.339 406.343 178.084 405.857 178.186C405.371 178.288 404.896 177.678 404.727 176.841C404.557 176.005 404.727 175.259 405.224 175.158C405.721 175.056 406.173 175.655 406.343 176.502Z" fill="black"/>
<path d="M415.518 174.061C415.699 174.897 415.518 175.643 415.032 175.745C414.546 175.847 414.072 175.236 413.902 174.411C413.733 173.587 413.902 172.818 414.388 172.728C414.874 172.637 415.348 173.236 415.518 174.061Z" fill="black"/>
<path d="M392.895 158.591C392.069 159.401 391.496 160.434 391.246 161.563C390.569 163.953 390.373 166.452 390.67 168.918C390.967 171.383 391.75 173.765 392.975 175.926C393.728 175.833 394.491 175.864 395.235 176.016C396.026 176.219 397.042 177.575 397.415 178.276C397.742 179.023 397.93 179.823 397.969 180.638C397.788 178.491 397.619 176.355 397.438 174.208C397.317 173.35 397.355 172.476 397.551 171.632C398.105 169.869 397.494 165.71 397.653 161.993C402.342 167.722 409.156 166.705 411.416 166.513C414.806 166.23 417.699 162.761 417.518 160.286C417.337 157.812 416.671 151.439 405.495 150.783C403.033 150.521 400.551 151.039 398.398 152.263C397.716 152.713 397.137 153.302 396.699 153.991C396.261 154.681 395.973 155.455 395.856 156.264C395.698 157.303 396.093 157.394 395.302 157.902C394.511 158.411 393.675 157.925 392.895 158.591Z" fill="black" stroke="black" stroke-linecap="round" stroke-linejoin="round"/>
<path d="M407.698 184.346C407.698 184.346 409.359 186.176 412.829 184.967L407.698 184.346Z" fill="#F8FDF8"/>
<path d="M407.698 184.346C407.698 184.346 409.359 186.176 412.829 184.967" stroke="black" stroke-linecap="round" stroke-linejoin="round"/>
</svg>
