<svg width="48" height="47" viewBox="0 0 48 47" fill="none" xmlns="http://www.w3.org/2000/svg">
<path d="M24 44.5524C12.14 44.5524 2.5 35.1132 2.5 23.5003C2.5 11.8874 12.14 2.44824 24 2.44824C35.86 2.44824 45.5 11.8874 45.5 23.5003C45.5 35.1132 35.86 44.5524 24 44.5524ZM24 5.38574C13.8 5.38574 5.5 13.5128 5.5 23.5003C5.5 33.4878 13.8 41.6149 24 41.6149C34.2 41.6149 42.5 33.4878 42.5 23.5003C42.5 13.5128 34.2 5.38574 24 5.38574Z" fill="#FFD500" fill-opacity="0.8"/>
<path d="M24 26.9274C23.18 26.9274 22.5 26.2616 22.5 25.4587V15.667C22.5 14.8641 23.18 14.1982 24 14.1982C24.82 14.1982 25.5 14.8641 25.5 15.667V25.4587C25.5 26.2616 24.82 26.9274 24 26.9274Z" fill="#FFD500" fill-opacity="0.8"/>
<path d="M24 33.2916C23.74 33.2916 23.48 33.2329 23.24 33.135C23 33.0371 22.78 32.9 22.58 32.7237C22.4 32.5279 22.26 32.3321 22.16 32.0775C22.06 31.8425 22 31.5879 22 31.3333C22 31.0787 22.06 30.8241 22.16 30.5891C22.26 30.3541 22.4 30.1387 22.58 29.9429C22.78 29.7666 23 29.6296 23.24 29.5316C23.72 29.3358 24.28 29.3358 24.76 29.5316C25 29.6296 25.22 29.7666 25.42 29.9429C25.6 30.1387 25.74 30.3541 25.84 30.5891C25.94 30.8241 26 31.0787 26 31.3333C26 31.5879 25.94 31.8425 25.84 32.0775C25.74 32.3321 25.6 32.5279 25.42 32.7237C25.22 32.9 25 33.0371 24.76 33.135C24.52 33.2329 24.26 33.2916 24 33.2916Z" fill="#FFD500" fill-opacity="0.8"/>
</svg>
