<svg width="19" height="19" viewBox="0 0 19 19" fill="none" xmlns="http://www.w3.org/2000/svg">
<path d="M17.4324 13.3156L14.9545 7.52055C14.5033 6.45972 13.8303 5.85805 13.0624 5.81847C12.3024 5.77889 11.5662 6.3093 11.0041 7.32264L9.49993 10.0222C9.18326 10.5922 8.73201 10.9326 8.24118 10.9722C7.74242 11.0197 7.24368 10.7585 6.83993 10.2439L6.66576 10.0222C6.10368 9.31764 5.40701 8.97722 4.69451 9.04847C3.98201 9.11972 3.37243 9.61055 2.96868 10.4101L1.59909 13.1414C1.10826 14.131 1.15576 15.2789 1.73368 16.2131C2.31159 17.1472 3.31701 17.7093 4.41743 17.7093H14.5191C15.5799 17.7093 16.5695 17.1789 17.1553 16.2922C17.757 15.4056 17.852 14.2893 17.4324 13.3156Z" fill="black" fill-opacity="0.8"/>
<path d="M5.51763 6.63389C6.99545 6.63389 8.19346 5.43588 8.19346 3.95806C8.19346 2.48024 6.99545 1.28223 5.51763 1.28223C4.03981 1.28223 2.8418 2.48024 2.8418 3.95806C2.8418 5.43588 4.03981 6.63389 5.51763 6.63389Z" fill="black" fill-opacity="0.8"/>
</svg>
