<svg width="41" height="41" viewBox="0 0 41 41" fill="none" xmlns="http://www.w3.org/2000/svg">
<path d="M35.8748 11.4971C35.8406 11.4971 35.7893 11.4971 35.7381 11.4971C26.701 10.5916 17.681 10.25 8.74643 11.1554L5.26143 11.4971C4.54393 11.5654 3.91185 11.0529 3.84351 10.3354C3.77518 9.6179 4.28768 9.0029 4.9881 8.93456L8.4731 8.5929C17.5614 7.6704 26.7693 8.02915 35.9943 8.93456C36.6948 9.0029 37.2073 9.63498 37.1389 10.3354C37.0877 11.0016 36.5239 11.4971 35.8748 11.4971Z" fill="#FF1500"/>
<path d="M14.5208 9.77199C14.4525 9.77199 14.3841 9.77199 14.2987 9.75491C13.6154 9.63533 13.137 8.96908 13.2566 8.28574L13.6325 6.04783C13.9058 4.40783 14.2816 2.13574 18.262 2.13574H22.7379C26.7354 2.13574 27.1112 4.49324 27.3675 6.06491L27.7433 8.28574C27.8629 8.98616 27.3845 9.65241 26.7012 9.75491C26.0008 9.87449 25.3345 9.39616 25.232 8.71283L24.8562 6.49199C24.617 5.00574 24.5658 4.71533 22.755 4.71533H18.2791C16.4683 4.71533 16.4341 4.95449 16.1779 6.47491L15.785 8.69574C15.6825 9.32783 15.1358 9.77199 14.5208 9.77199Z" fill="#FF1500"/>
<path d="M25.9836 38.8643H15.0161C9.05401 38.8643 8.81485 35.5672 8.62693 32.9022L7.51651 15.6993C7.46526 14.9989 8.01193 14.3839 8.71235 14.3326C9.42985 14.2985 10.0278 14.828 10.079 15.5285L11.1894 32.7314C11.3773 35.328 11.4457 36.3018 15.0161 36.3018H25.9836C29.5711 36.3018 29.6394 35.328 29.8103 32.7314L30.9207 15.5285C30.9719 14.828 31.5869 14.2985 32.2873 14.3326C32.9878 14.3839 33.5344 14.9818 33.4832 15.6993L32.3728 32.9022C32.1848 35.5672 31.9457 38.8643 25.9836 38.8643Z" fill="#FF1500"/>
<path d="M23.3357 29.4688H17.647C16.9466 29.4688 16.3657 28.8879 16.3657 28.1875C16.3657 27.4871 16.9466 26.9062 17.647 26.9062H23.3357C24.0361 26.9062 24.617 27.4871 24.617 28.1875C24.617 28.8879 24.0361 29.4688 23.3357 29.4688Z" fill="#FF1500"/>
<path d="M24.7707 22.6357H16.229C15.5286 22.6357 14.9478 22.0549 14.9478 21.3545C14.9478 20.6541 15.5286 20.0732 16.229 20.0732H24.7707C25.4711 20.0732 26.0519 20.6541 26.0519 21.3545C26.0519 22.0549 25.4711 22.6357 24.7707 22.6357Z" fill="#FF1500"/>
</svg>
