<svg width="50" height="50" viewBox="0 0 50 50" fill="none" xmlns="http://www.w3.org/2000/svg">
<path d="M7 0C3.13401 0 0 3.13401 0 7V43C0 46.866 3.13401 50 7 50H43C46.866 50 50 46.866 50 43V7C50 3.13401 46.866 0 43 0H7ZM35.968 6.52467C36.3311 6.51696 36.7093 6.52875 37.1002 6.55517C37.6006 6.55585 38.1088 6.57201 38.6215 6.59832C40.2554 6.68217 41.4904 8.09325 41.4457 9.7287C41.4 11.4038 40.0288 12.738 38.353 12.738H37.3657C35.4912 12.6965 34.8143 13.4244 34.7534 15.5395V16.8762C34.7534 18.7066 36.2373 20.1904 38.0677 20.1904H38.2174C40.0212 20.1904 41.4616 21.6931 41.3853 23.4953C41.3134 25.1928 39.9164 26.532 38.2174 26.532H38.0739C36.24 26.532 34.7534 28.0186 34.7534 29.8524V40.8829C34.7534 42.7073 33.2744 44.1864 31.4499 44.1864C29.6254 44.1864 28.1464 42.7073 28.1464 40.8829V28.8254C28.1464 27.5588 27.1196 26.532 25.853 26.532C24.5864 26.532 23.5596 25.5052 23.5596 24.2386V22.4838C23.5596 21.2172 24.5864 20.1904 25.853 20.1904C27.1196 20.1904 28.1464 19.1636 28.1464 17.897V14.7461C28.1464 10.8207 29.8059 8.32217 33.075 7.05567C33.9145 6.72533 34.8786 6.54779 35.968 6.52467Z" fill="#546BBB"/>
</svg>
